<svg width="245" height="376" viewBox="0 0 245 376" fill="none" xmlns="http://www.w3.org/2000/svg">
<path d="M103.385 350.596C106.64 350.596 109.407 349.375 111.686 346.934C113.964 344.492 115.104 341.725 115.104 338.633C115.104 335.54 113.964 332.855 111.686 330.576C109.407 328.135 106.64 326.914 103.385 326.914C100.13 326.914 97.2812 328.135 94.8398 330.576C92.5612 332.855 91.4219 335.54 91.4219 338.633C91.4219 341.725 92.5612 344.492 94.8398 346.934C97.2812 349.375 100.13 350.596 103.385 350.596ZM168.57 183.604C202.262 163.096 219.107 136.729 219.107 104.502C219.107 78.4603 206.982 58.0339 182.73 43.2227C175.081 38.6654 166.536 34.9219 157.096 31.9922C176.952 50.2214 186.881 75.3678 186.881 107.432C186.881 138.844 180.777 164.235 168.57 183.604ZM140.982 338.633C140.982 343.678 139.924 348.48 137.809 353.037C135.855 357.594 133.17 361.582 129.752 365C122.428 372.324 113.639 375.986 103.385 375.986C93.1309 375.986 84.3418 372.324 77.0176 365C69.6934 357.676 66.0312 348.805 66.0312 338.389C66.0312 322.275 73.681 310.964 88.9805 304.453C93.5378 302.5 98.3392 301.523 103.385 301.523C113.476 301.523 122.265 305.104 129.752 312.266C137.239 319.427 140.982 328.216 140.982 338.633ZM85.0742 278.086L84.5859 269.541C84.5859 255.706 87.1901 244.313 92.3984 235.361C100.211 221.689 109.57 209.889 120.475 199.961C125.683 194.915 130.729 189.788 135.611 184.58C140.657 179.372 145.133 173.268 149.039 166.27C157.34 150.97 161.49 131.357 161.49 107.432C161.49 84.6452 153.922 65.8464 138.785 51.0352C124.299 36.7122 106.233 29.5508 84.5859 29.5508C69.7747 29.5508 56.2656 35.4102 44.0586 47.1289C32.0143 59.0104 25.9922 71.7871 25.9922 85.459C25.9922 95.2246 27.457 102.467 30.3867 107.188C33.4792 111.745 35.6764 114.593 36.9785 115.732C38.4434 116.709 39.2572 117.279 39.4199 117.441C44.791 121.022 47.4766 124.847 47.4766 128.916C47.4766 132.822 46.2559 136.077 43.8145 138.682C41.5358 141.286 39.1758 142.588 36.7344 142.588C32.6654 142.588 29.9798 142.1 28.6777 141.123C27.5384 140.146 25.5853 138.763 22.8184 136.973C20.0514 135.02 17.0404 131.927 13.7852 127.695C4.99609 116.302 0.601562 102.874 0.601562 87.4121C0.601562 71.9499 3.93815 58.8477 10.6113 48.1055C17.4473 37.3633 26.1549 28.4115 36.7344 21.25C58.056 7.08984 82.4701 0.00976562 109.977 0.00976562C149.527 0.00976562 181.835 9.69401 206.9 29.0625C231.965 48.5938 244.498 73.7402 244.498 104.502C244.498 150.238 219.026 186.452 168.082 213.145C160.758 216.888 153.759 220.387 147.086 223.643C140.576 226.898 134.96 229.909 130.24 232.676C125.52 235.443 121.695 238.454 118.766 241.709C113.232 247.894 110.465 257.334 110.465 270.029V276.621C110.465 279.876 109.326 282.806 107.047 285.41C104.931 287.852 102.083 289.154 98.502 289.316C95.084 289.479 92.0729 288.503 89.4688 286.387C86.8646 284.108 85.3997 281.341 85.0742 278.086Z" fill="#D3B881"/>
</svg>
