<svg width="706" height="1000" viewBox="0 0 706 1000" fill="none" xmlns="http://www.w3.org/2000/svg">
<path d="M706 0H0V1000H706V0Z" fill="#191919"/>
<path d="M333.385 664.596C336.64 664.596 339.407 663.375 341.686 660.934C343.964 658.492 345.104 655.725 345.104 652.633C345.104 649.54 343.964 646.855 341.686 644.576C339.407 642.135 336.64 640.914 333.385 640.914C330.13 640.914 327.281 642.135 324.84 644.576C322.561 646.855 321.422 649.54 321.422 652.633C321.422 655.725 322.561 658.492 324.84 660.934C327.281 663.375 330.13 664.596 333.385 664.596ZM398.57 497.604C432.262 477.096 449.107 450.729 449.107 418.502C449.107 392.46 436.982 372.034 412.73 357.223C405.081 352.665 396.536 348.922 387.096 345.992C406.952 364.221 416.881 389.368 416.881 421.432C416.881 452.844 410.777 478.235 398.57 497.604ZM370.982 652.633C370.982 657.678 369.924 662.48 367.809 667.037C365.855 671.594 363.17 675.582 359.752 679C352.428 686.324 343.639 689.986 333.385 689.986C323.131 689.986 314.342 686.324 307.018 679C299.693 671.676 296.031 662.805 296.031 652.389C296.031 636.275 303.681 624.964 318.98 618.453C323.538 616.5 328.339 615.523 333.385 615.523C343.476 615.523 352.265 619.104 359.752 626.266C367.239 633.427 370.982 642.216 370.982 652.633ZM315.074 592.086L314.586 583.541C314.586 569.706 317.19 558.313 322.398 549.361C330.211 535.689 339.57 523.889 350.475 513.961C355.683 508.915 360.729 503.788 365.611 498.58C370.657 493.372 375.133 487.268 379.039 480.27C387.34 464.97 391.49 445.357 391.49 421.432C391.49 398.645 383.922 379.846 368.785 365.035C354.299 350.712 336.233 343.551 314.586 343.551C299.775 343.551 286.266 349.41 274.059 361.129C262.014 373.01 255.992 385.787 255.992 399.459C255.992 409.225 257.457 416.467 260.387 421.188C263.479 425.745 265.676 428.593 266.979 429.732C268.443 430.709 269.257 431.279 269.42 431.441C274.791 435.022 277.477 438.847 277.477 442.916C277.477 446.822 276.256 450.077 273.814 452.682C271.536 455.286 269.176 456.588 266.734 456.588C262.665 456.588 259.98 456.1 258.678 455.123C257.538 454.146 255.585 452.763 252.818 450.973C250.051 449.02 247.04 445.927 243.785 441.695C234.996 430.302 230.602 416.874 230.602 401.412C230.602 385.95 233.938 372.848 240.611 362.105C247.447 351.363 256.155 342.411 266.734 335.25C288.056 321.09 312.47 314.01 339.977 314.01C379.527 314.01 411.835 323.694 436.9 343.062C461.965 362.594 474.498 387.74 474.498 418.502C474.498 464.238 449.026 500.452 398.082 527.145C390.758 530.888 383.759 534.387 377.086 537.643C370.576 540.898 364.96 543.909 360.24 546.676C355.52 549.443 351.695 552.454 348.766 555.709C343.232 561.894 340.465 571.334 340.465 584.029V590.621C340.465 593.876 339.326 596.806 337.047 599.41C334.931 601.852 332.083 603.154 328.502 603.316C325.084 603.479 322.073 602.503 319.469 600.387C316.865 598.108 315.4 595.341 315.074 592.086Z" fill="#D3B881"/>
</svg>
