<svg width="706" height="1000" viewBox="0 0 706 1000" fill="none" xmlns="http://www.w3.org/2000/svg">
<path d="M706 0H0V1000H706V0Z" fill="#191919"/>
<g filter="url(#filter0_f_1_299)">
<path d="M537.821 415.472C542.913 500.508 438.527 597.256 353.49 597.256C268.963 597.256 183.926 511.711 188 419.545C192.583 324.325 280.674 251 365.711 251C450.238 251 531.71 310.067 537.821 415.472Z" fill="black"/>
<path d="M482.827 374.227C496.066 373.208 498.103 357.423 491.993 346.73C523.054 349.276 490.465 265.767 449.729 308.03C438.527 319.742 441.073 345.711 425.287 351.822C404.41 359.969 397.281 330.435 411.03 332.981C405.429 321.779 427.833 305.994 422.741 290.208C425.797 290.208 428.852 289.699 431.398 289.19C437.508 272.896 416.122 266.276 403.901 270.859C404.919 259.147 398.3 252.528 386.588 255.583C387.607 254.564 388.116 253.546 388.625 252.528C380.987 251.509 373.349 251 365.202 251C336.177 251 306.644 259.656 280.165 274.932C288.312 276.969 295.95 279.515 299.006 285.626C310.717 308.03 275.073 304.466 262.852 308.54C226.699 320.251 211.423 393.067 260.816 379.828C261.325 381.865 261.325 387.975 260.816 390.012C261.834 390.521 266.417 390.012 266.926 390.521C269.472 409.871 248.595 407.834 235.865 414.453C218.552 424.128 212.951 433.294 210.914 454.68C207.35 495.926 267.435 543.281 296.969 499.999C301.042 514.766 315.3 516.803 324.975 506.619C335.159 522.404 353.49 518.33 365.711 522.913C386.588 530.551 392.699 540.226 418.159 535.134C452.275 528.005 477.735 488.797 450.238 458.754C424.269 430.239 392.189 452.643 363.674 462.318C349.416 467.41 324.975 475.557 309.699 469.956C302.57 467.41 283.73 452.643 292.895 443.478C296.46 439.913 312.754 451.625 320.901 445.515C336.177 434.312 323.447 411.907 309.699 406.306C323.956 405.797 318.864 386.957 312.754 377.282C313.772 377.791 316.318 379.319 316.318 378.809C320.901 373.717 336.686 304.466 359.091 345.202C364.183 354.877 341.778 395.104 368.257 384.411C364.693 401.723 384.551 429.729 395.754 404.779C403.901 427.183 430.889 421.073 427.833 397.65C436.999 404.779 450.238 406.306 456.858 395.104C454.821 411.907 469.079 406.815 473.661 414.963C477.735 422.601 477.735 430.748 477.226 439.913C476.207 458.754 466.023 480.649 492.502 486.76C537.821 496.435 521.017 387.466 482.827 374.227Z" fill="black"/>
<path d="M193.601 466.901C195.129 473.011 197.165 479.122 199.711 484.723C197.675 478.103 195.638 471.993 193.601 466.901Z" fill="black"/>
<path d="M400.337 550.41C379.459 547.864 376.913 559.576 355.527 547.355C345.852 541.754 347.38 536.152 334.65 534.116C325.993 532.588 318.864 539.208 314.282 538.698C303.588 537.171 301.552 528.514 291.368 526.478C281.693 524.441 279.147 530.042 270.49 531.06C256.233 532.588 238.92 534.116 225.172 528.005C239.429 546.336 256.742 562.122 276.092 574.342C279.147 570.269 282.202 567.214 286.785 566.195C297.478 563.649 351.453 573.833 360.11 579.434C362.146 580.962 366.22 590.128 369.785 597.256C387.097 595.22 404.919 589.109 422.232 580.962C423.76 566.704 415.613 552.447 400.337 550.41Z" fill="black"/>
<path opacity="0.59" d="M435.981 312.613C441.582 307.012 445.146 293.264 434.453 291.736C422.741 290.208 426.306 304.466 423.76 311.086C421.723 316.687 406.956 325.343 419.177 333.491C429.87 340.619 440.054 319.233 438.527 310.576L435.981 312.613Z" fill="black"/>
<path opacity="0.59" d="M354.508 431.257C364.692 416.49 356.545 405.797 348.398 394.085C345.343 390.012 338.214 394.595 335.159 387.975C332.613 382.374 341.269 374.736 338.723 369.644C331.085 355.895 322.938 360.478 322.938 377.282C322.938 385.938 333.122 399.687 338.214 405.797C330.576 411.398 329.558 415.472 337.705 421.582C303.079 459.772 390.662 459.772 354.508 429.22V431.257Z" fill="black"/>
<path opacity="0.59" d="M427.324 494.907C426.815 468.938 384.042 458.245 386.079 490.324C378.441 481.159 351.962 465.373 349.926 487.778C337.196 487.778 311.226 488.287 299.515 485.232C274.564 479.122 283.73 459.263 269.472 443.478C256.233 428.711 223.644 424.637 222.626 454.171C222.116 472.502 249.613 490.833 265.908 484.723C265.398 504.073 310.208 490.833 325.484 492.87C338.723 494.907 360.619 514.257 371.312 505.091C376.404 513.748 384.551 516.294 391.68 509.674C394.735 521.895 415.613 527.496 426.306 520.876C438.527 512.729 435.471 489.815 427.324 494.907Z" fill="black"/>
<path opacity="0.59" d="M374.876 283.08C383.024 263.73 331.594 252.018 333.631 289.699C319.374 283.589 301.042 296.319 308.171 312.613C283.22 301.92 227.718 335.018 259.288 362.515C291.368 390.012 324.975 330.944 332.104 306.503C337.705 308.54 342.288 308.03 347.38 309.558C351.962 319.233 360.11 318.214 365.711 325.852C370.803 332.981 360.619 347.239 376.913 347.748C401.864 347.748 397.281 296.319 374.876 283.08Z" fill="black"/>
<path opacity="0.59" d="M459.404 360.478C469.079 352.84 488.937 334.509 478.753 320.76C467.551 305.484 449.22 319.233 452.275 335.018C436.49 337.055 433.435 352.84 433.944 366.589C425.287 363.533 416.122 364.043 408.484 369.644C395.245 356.914 358.073 354.368 373.858 382.374C385.57 403.251 423.251 396.122 433.435 379.319C440.054 391.539 460.422 394.595 458.895 377.282C463.987 405.797 493.52 365.57 456.858 363.024L459.404 360.478Z" fill="black"/>
<path opacity="0.59" d="M434.453 549.901C448.711 557.539 466.023 546.336 476.717 535.134C484.355 526.478 500.14 488.797 475.698 498.981C479.772 495.416 477.226 494.398 479.772 491.343C456.858 484.723 453.803 513.238 461.441 526.987C451.766 525.459 442.091 528.005 441.582 538.189C437.508 537.171 431.907 538.189 427.833 537.171C425.797 543.79 429.87 543.281 434.453 545.827V549.901Z" fill="black"/>
<path opacity="0.59" d="M206.331 403.76C206.84 405.797 206.331 407.834 206.84 410.38C225.172 414.453 232.81 386.447 213.46 382.883C221.607 375.754 228.736 357.932 213.46 355.386C221.098 349.276 225.681 339.092 225.172 328.908C238.92 327.889 257.76 314.65 254.196 299.374C237.392 297.846 217.024 335.018 210.914 348.257C205.822 358.441 180.362 414.453 206.331 403.76Z" fill="black"/>
<path opacity="0.59" d="M461.441 456.208C472.643 471.484 481.299 415.472 456.858 419.036C455.33 405.288 439.036 405.288 436.49 419.036C416.631 411.907 405.938 434.821 425.287 442.459C433.435 445.515 440.563 437.877 448.711 441.95C455.839 445.515 452.275 456.208 459.404 460.791L461.441 456.208Z" fill="black"/>
<path opacity="0.59" d="M525.6 385.429C528.146 377.791 528.655 353.859 514.397 355.386C493.011 357.932 512.361 381.865 513.888 387.466C515.925 396.631 511.851 414.963 524.072 419.036C542.404 424.637 524.072 396.122 518.98 392.049L525.6 385.429Z" fill="black"/>
<path opacity="0.59" d="M352.472 556.52C350.435 541.244 330.067 532.588 324.975 551.428C310.717 549.901 289.84 535.643 278.128 544.3C269.472 523.422 240.957 544.809 256.233 559.576C261.834 565.177 291.877 561.612 300.533 563.14C316.828 565.686 325.993 563.649 341.778 563.649C357.055 563.649 368.257 578.416 379.969 572.815C380.478 576.379 382.515 579.944 383.024 583.508C398.809 587.582 405.429 572.306 396.263 561.103C386.079 548.882 369.275 557.03 352.472 556.52Z" fill="black"/>
<path opacity="0.59" d="M498.103 435.84C507.778 420.564 498.103 389.503 477.735 403.251C477.226 400.705 475.698 398.159 475.189 395.104C444.637 390.521 477.226 414.963 480.281 419.545C485.882 429.22 487.919 439.404 486.901 450.607C485.882 458.754 481.299 472.502 489.447 477.085C513.379 491.852 502.686 446.024 496.066 437.877L498.103 435.84Z" fill="black"/>
<path opacity="0.6" d="M290.858 340.11C321.92 316.687 251.65 298.865 267.944 333.491C255.214 338.073 237.901 350.294 261.325 356.405C278.128 360.987 282.711 343.675 293.404 335.527L290.858 340.11Z" fill="black"/>
<path opacity="0.66" d="M261.325 463.337C266.926 428.202 223.135 434.312 237.902 452.134C198.693 450.607 276.092 515.275 261.325 461.3V463.337Z" fill="black"/>
<path opacity="0.6" d="M413.576 506.619C420.195 499.49 417.649 480.14 404.41 481.159C386.079 482.177 398.3 505.091 411.03 506.619H413.576Z" fill="black"/>
<path opacity="0.6" d="M397.79 372.19C364.183 340.11 391.171 420.564 402.373 383.392L397.79 372.19Z" fill="black"/>
<path opacity="0.6" d="M370.294 298.865C365.202 289.19 346.87 258.638 345.343 288.681C344.834 300.392 364.183 325.852 372.84 305.994L370.294 298.865Z" fill="black"/>
<path opacity="0.6" d="M391.171 572.306C391.171 548.882 376.404 563.14 368.257 561.103C357.055 558.048 348.907 549.391 336.687 549.901C344.834 563.14 357.055 558.557 368.257 566.195C376.913 571.796 379.459 585.036 390.662 586.054C392.699 581.471 394.226 575.361 393.208 570.269L391.171 572.306Z" fill="black"/>
<path opacity="0.6" d="M516.434 422.091C512.87 425.656 505.741 432.785 500.649 439.404C503.704 420.564 505.232 390.521 484.864 402.742C468.06 412.926 483.336 451.625 496.576 458.754C500.14 455.699 500.649 452.134 501.158 447.042C506.76 438.895 525.091 427.183 516.434 422.091Z" fill="black"/>
<path opacity="0.21" d="M524.582 382.374C517.453 365.57 494.539 331.454 488.937 315.159C486.391 307.521 484.864 301.411 482.827 295.3C450.747 266.276 408.484 251 365.711 251C356.545 251 346.87 252.018 337.705 253.546C351.453 269.84 378.95 284.607 388.116 292.245C406.447 307.521 416.631 328.398 406.447 351.822C402.373 361.497 394.735 364.552 393.208 375.245C391.68 384.92 399.318 395.613 397.791 406.815C394.735 432.275 363.165 475.557 334.14 475.048C318.864 474.539 315.809 461.3 305.625 455.189C299.515 451.625 288.312 450.607 283.22 447.042C271 437.877 273.546 427.183 255.724 424.637C235.356 421.582 239.429 433.294 226.19 441.95C210.914 452.134 197.675 450.097 188 441.441C193.601 492.87 225.681 540.735 267.435 569.25C298.496 579.434 323.447 590.128 351.962 587.072C445.146 577.398 566.845 477.085 524.582 382.374Z" fill="black"/>
<path opacity="0.27" d="M456.349 275.951C430.379 287.662 447.692 322.288 455.839 339.601C466.533 362.006 475.189 390.521 468.06 415.472C462.459 435.331 444.128 436.349 433.944 451.625C427.324 461.809 431.907 470.465 429.361 481.668C424.778 504.582 406.447 529.024 380.987 525.968C374.367 525.459 363.674 518.84 357.054 517.821C353.49 517.312 347.889 521.895 341.269 520.367C333.122 518.84 326.502 508.146 319.883 504.582C295.95 492.361 263.362 495.416 256.742 526.478C245.54 578.416 301.042 566.195 328.539 573.324C349.416 578.416 351.453 595.22 378.441 584.526C391.68 579.434 412.048 566.704 411.03 550.919C427.833 565.177 460.931 552.447 473.661 539.717C496.066 517.312 498.612 490.833 495.048 461.809C531.71 461.809 516.434 424.128 506.759 404.269C535.275 401.214 509.305 343.675 501.158 331.454L515.416 341.129C502.686 312.104 481.299 290.718 456.349 275.951Z" fill="black"/>
<path opacity="0.37" d="M363.674 273.914C344.834 251 288.312 263.73 288.312 296.319C261.834 295.3 250.632 304.975 237.392 327.38C230.773 338.583 232.3 340.619 222.626 351.313C212.442 363.024 201.748 373.717 197.166 390.012C190.546 414.453 198.693 445.005 228.227 447.042C239.938 448.061 242.994 435.84 255.214 444.496C260.816 448.57 261.834 463.337 270.49 469.447C305.625 493.38 347.38 477.594 350.944 435.84C371.312 447.042 389.643 439.913 398.3 417.509C401.355 409.361 403.901 392.558 401.864 384.411C399.827 376.263 389.134 370.153 389.134 363.024C388.625 352.84 452.784 313.122 416.122 310.576C420.705 308.54 426.815 295.3 419.686 287.662C442.6 265.767 380.478 271.877 363.674 273.914Z" fill="black"/>
<path opacity="0.4" d="M334.14 335.527C350.944 314.141 313.263 285.626 304.098 305.484C295.441 300.902 284.748 302.938 281.184 312.613C227.208 279.515 193.601 438.386 270.49 390.012C283.73 405.797 263.871 425.147 292.386 431.766C326.502 439.404 339.742 398.159 339.232 372.699C376.913 389.503 378.95 303.448 334.14 335.527Z" fill="black"/>
<path opacity="0.58" d="M286.276 313.632C285.766 313.632 285.257 314.65 286.276 314.65C291.368 315.668 295.441 319.742 296.46 324.834C296.969 326.871 296.969 329.417 296.46 331.454C296.46 332.472 291.877 339.601 291.368 337.564C290.858 336.546 289.84 336.036 288.822 337.055C285.257 340.11 283.73 344.184 281.693 347.748C276.601 356.914 269.472 358.441 259.797 355.895C259.288 355.895 259.288 356.405 259.288 356.405C264.38 360.478 271 360.478 276.601 357.423C283.22 353.859 284.239 346.221 289.331 340.619C289.84 341.128 290.349 341.638 291.368 341.128C305.625 336.546 301.552 312.613 286.276 313.632Z" fill="black"/>
<path opacity="0.58" d="M264.38 467.41C263.361 462.318 263.361 458.754 264.38 453.153C266.417 441.441 249.104 429.729 238.92 435.84C238.411 436.349 238.411 436.858 238.92 436.858C242.993 437.877 247.067 437.367 251.141 438.386C254.196 439.404 257.251 441.441 259.288 443.478C263.361 448.57 261.325 451.625 260.815 457.226C259.288 466.392 271.509 477.594 257.251 483.195C261.834 483.195 264.38 479.631 264.889 475.048C265.907 472.502 264.889 470.465 264.38 467.41Z" fill="black"/>
<path opacity="0.58" d="M357.055 277.478C356.545 277.478 356.545 277.988 357.055 277.478C362.656 283.08 367.748 288.172 370.294 295.3C371.312 298.356 372.331 301.92 372.331 304.975C371.821 312.104 366.22 311.086 361.128 310.067C360.619 310.067 360.11 310.576 360.619 311.086C367.748 317.196 375.386 312.104 375.386 303.448C374.367 294.282 366.729 281.043 357.055 277.478Z" fill="black"/>
<path opacity="0.58" d="M400.337 378.3C397.791 371.681 392.189 365.061 384.551 364.043C384.042 364.043 384.042 364.552 384.551 364.552C390.153 366.079 394.735 371.171 397.281 376.263C398.3 378.809 399.318 381.865 398.809 384.92C397.791 388.993 394.735 389.503 391.68 391.03C391.171 391.539 391.68 392.049 391.68 392.049C400.337 393.067 402.883 383.901 400.337 378.3Z" fill="black"/>
<path opacity="0.58" d="M268.963 390.012C259.797 389.503 261.834 383.392 259.797 377.282C259.797 376.773 259.288 376.773 258.779 376.773C245.03 379.828 231.791 374.736 234.337 357.932C235.356 351.822 236.374 345.711 238.411 340.11C242.994 325.852 250.632 312.613 266.417 309.558C243.503 302.429 231.791 348.767 231.791 363.533C231.791 376.773 242.994 377.791 253.687 378.809C261.325 379.319 256.233 383.901 259.797 388.484C261.834 391.539 265.398 391.03 268.454 390.521C269.472 390.521 268.963 390.012 268.963 390.012Z" fill="black"/>
<path opacity="0.58" d="M337.705 335.527C337.705 335.527 337.705 336.037 337.705 335.527C345.852 330.944 356.036 328.908 361.637 338.073C365.202 343.675 365.202 349.785 363.165 355.895C361.128 360.987 358.073 366.589 354.508 370.662C352.981 372.19 350.944 374.227 348.398 374.736C344.834 375.245 343.306 372.699 340.76 371.171C340.251 371.171 339.742 371.171 340.251 371.681C341.269 378.3 348.907 378.3 353.49 375.245C360.11 370.662 364.183 362.515 366.22 355.386C371.821 337.055 352.472 320.76 337.705 335.527Z" fill="black"/>
<path opacity="0.58" d="M340.76 406.815C336.687 405.797 333.631 407.834 333.122 411.907C332.613 414.963 337.705 423.619 338.214 422.601C337.705 423.11 333.122 426.165 332.613 427.183C331.085 429.22 330.067 431.257 329.558 433.803C329.048 438.386 331.085 442.969 336.177 443.987C336.687 443.987 337.196 443.478 336.687 442.969C332.104 440.423 330.067 436.858 332.104 431.766C333.631 427.693 336.177 425.147 340.251 424.128C340.76 424.128 341.269 423.11 340.251 422.601C334.14 418.527 331.594 408.343 340.76 406.815Z" fill="black"/>
<path opacity="0.58" d="M416.122 491.852C414.594 486.251 409.502 478.103 402.883 481.668C402.373 481.668 402.883 482.686 403.392 482.177C410.011 480.649 413.576 485.741 415.613 491.852C416.631 496.435 417.14 502.036 412.557 504.582V505.091C418.159 506.619 417.14 494.398 416.122 491.852Z" fill="black"/>
<path opacity="0.3" d="M517.962 423.619C513.379 419.036 505.741 426.674 501.667 432.275C503.195 421.073 506.25 397.65 491.483 400.196C490.974 400.196 490.974 400.705 491.483 400.705C505.232 405.797 498.612 424.637 499.121 435.84C499.121 436.858 500.649 437.367 501.158 436.349C502.686 433.294 505.232 431.257 507.778 428.711C508.796 427.693 512.87 423.619 514.397 424.128C517.962 425.147 514.397 430.748 513.379 432.275C509.815 436.858 501.158 439.913 500.14 446.533C500.14 447.042 501.158 447.551 501.158 447.042C505.741 440.932 512.361 437.367 516.943 431.257C518.471 428.711 519.999 426.165 517.962 423.619Z" fill="black"/>
<path opacity="0.3" d="M394.735 570.269C394.735 569.76 394.226 569.25 393.717 569.76C388.625 571.796 389.643 560.085 386.588 557.539C381.496 552.956 372.84 560.085 367.238 560.085C370.803 561.612 374.367 560.085 377.932 558.557C385.06 556.52 386.588 560.085 387.606 566.195C388.116 568.232 388.116 570.778 390.152 571.796C390.662 572.306 391.68 571.796 392.189 571.796C394.226 572.815 393.717 570.269 393.717 575.361C393.717 577.398 393.208 578.925 393.208 580.453C393.208 580.962 393.717 580.962 394.226 580.453C395.754 577.398 396.263 573.833 394.735 570.269Z" fill="black"/>
<path opacity="0.3" d="M478.753 324.325C476.717 313.632 467.551 310.576 459.913 318.724C470.097 310.576 477.226 318.214 476.717 327.889C476.207 333.491 473.152 339.092 470.606 343.675C466.533 350.803 461.441 357.423 456.349 364.552C455.839 365.57 457.367 366.589 457.876 365.57C466.533 355.386 481.299 339.092 478.753 324.325Z" fill="black"/>
<path opacity="0.3" d="M360.619 433.294C357.564 429.22 359.091 428.711 360.11 423.619C361.637 414.453 355.527 405.288 348.398 399.687C347.889 399.177 347.38 399.687 347.38 400.196C353.49 411.398 361.128 416.999 354.509 431.257C353.999 431.766 354.509 432.785 355.018 432.785C370.803 441.441 351.963 453.662 340.251 446.024C340.251 446.024 339.742 446.024 340.251 446.533C346.871 453.662 365.202 452.134 364.183 439.913C364.183 436.858 362.147 435.331 360.619 433.294Z" fill="black"/>
<path opacity="0.3" d="M468.06 423.11C464.496 418.018 459.913 415.472 454.821 417.509C455.33 412.926 453.293 408.343 448.711 407.325C441.582 405.797 437.508 413.944 436.49 419.036C436.49 419.545 436.999 419.545 436.999 419.036C435.981 420.564 440.563 413.944 440.054 414.453C441.073 413.435 441.582 412.417 442.6 411.398C451.257 410.889 454.312 413.435 452.275 419.036C451.766 420.055 453.293 421.073 453.803 420.564C456.858 420.564 460.422 421.073 463.477 421.073C464.496 422.091 466.023 423.619 466.533 425.147C468.569 428.202 469.588 431.257 470.097 434.821C470.097 439.404 469.079 443.478 469.079 448.061C469.079 448.57 469.588 448.57 469.588 448.061C473.661 440.423 473.152 430.239 468.06 423.11Z" fill="black"/>
<path opacity="0.3" d="M487.919 499.999C485.882 494.398 481.809 493.38 477.226 495.416C478.244 493.889 478.753 492.361 479.263 490.834C479.263 490.324 479.263 489.815 478.753 489.815C473.661 488.288 471.115 490.834 467.042 493.38C469.588 491.852 471.625 489.815 474.171 491.852C476.717 493.889 475.698 493.889 474.171 496.435C473.661 496.944 474.68 497.962 475.189 497.453C483.845 491.852 488.428 499.999 486.901 508.146C485.882 513.238 482.827 516.294 480.281 520.367C480.281 520.876 480.281 520.876 480.79 520.876C486.901 515.784 490.465 508.146 487.919 499.999Z" fill="black"/>
<path opacity="0.3" d="M359.091 477.594C357.054 478.103 355.018 479.631 353.49 481.159C352.472 482.177 351.453 485.741 350.435 486.251L346.361 485.741C341.269 486.251 338.214 489.306 332.104 487.269C331.594 487.269 331.085 487.778 331.594 488.287C337.196 492.87 346.361 485.232 349.926 489.306C350.435 489.815 351.453 489.306 351.962 488.797C359.091 469.956 378.441 484.723 386.588 493.379H387.097C383.533 483.195 369.784 474.539 359.091 477.594Z" fill="black"/>
<path opacity="0.3" d="M286.785 507.128C275.582 513.748 264.889 518.33 251.65 513.748C238.92 509.165 228.227 498.981 221.098 488.288C209.386 470.975 205.313 445.515 221.098 430.239C200.221 443.987 210.914 477.594 222.625 493.38C230.773 504.073 241.975 514.257 255.723 517.312C266.417 519.349 280.674 516.803 286.785 507.128C287.294 507.128 287.294 506.619 286.785 507.128Z" fill="black"/>
</g>
<g clip-path="url(#clip0_1_299)">
<path d="M528 402.556C533.095 487.636 428.655 584.434 343.575 584.434C259.004 584.434 173.924 498.844 178 406.632C182.585 311.362 270.722 238 355.802 238C440.373 238 521.886 297.098 528 402.556Z" fill="#F17241"/>
<path d="M472.978 361.29C486.224 360.271 488.262 344.477 482.148 333.779C513.226 336.326 480.62 252.774 439.863 295.06C428.655 306.777 431.202 332.76 415.409 338.873C394.521 347.025 387.389 317.476 401.144 320.023C395.54 308.815 417.956 293.022 412.862 277.229C415.918 277.229 418.975 276.719 421.523 276.21C427.636 259.907 406.239 253.284 394.012 257.869C395.031 246.151 388.408 239.528 376.69 242.585C377.709 241.566 378.218 240.547 378.728 239.528C371.086 238.509 363.444 238 355.293 238C326.253 238 296.704 246.661 270.212 261.945C278.364 263.983 286.006 266.53 289.063 272.643C300.78 295.06 265.118 291.493 252.891 295.569C216.719 307.287 201.435 380.14 250.853 366.894C251.362 368.932 251.362 375.045 250.853 377.083C251.872 377.592 256.457 377.083 256.966 377.592C259.514 396.952 238.626 394.914 225.889 401.537C208.568 411.217 202.964 420.387 200.926 441.785C197.359 483.051 257.476 530.431 287.025 487.127C291.1 501.901 305.365 503.939 315.045 493.75C325.234 509.543 343.575 505.467 355.802 510.052C376.69 517.694 382.803 527.374 408.277 522.279C442.41 515.147 467.884 475.918 440.373 445.86C414.39 417.33 382.294 439.747 353.764 449.426C339.499 454.521 315.045 462.673 299.761 457.068C292.629 454.521 273.779 439.747 282.949 430.576C286.515 427.01 302.818 438.728 310.969 432.614C326.253 421.406 313.517 398.99 299.761 393.386C314.026 392.876 308.932 374.026 302.818 364.346C303.837 364.856 306.384 366.384 306.384 365.875C310.969 360.78 326.763 291.493 349.179 332.25C354.274 341.93 331.857 382.178 358.349 371.479C354.783 388.801 374.652 416.821 385.86 391.857C394.012 414.274 421.013 408.16 417.956 384.725C427.127 391.857 440.373 393.386 446.996 382.178C444.958 398.99 459.223 393.895 463.808 402.047C467.884 409.689 467.884 417.84 467.374 427.01C466.355 445.86 456.166 467.767 482.658 473.881C528 483.56 511.188 374.536 472.978 361.29Z" fill="#FF4F24"/>
<path d="M183.604 454.012C185.132 460.125 187.17 466.239 189.718 471.843C187.68 465.22 185.642 459.106 183.604 454.012Z" fill="#FF4F24"/>
<path d="M390.445 537.563C369.557 535.016 367.01 546.734 345.613 534.507C335.933 528.903 337.461 523.298 324.725 521.261C316.064 519.732 308.932 526.355 304.346 525.846C293.648 524.317 291.61 515.657 281.421 513.619C271.741 511.581 269.194 517.185 260.533 518.204C246.268 519.732 228.946 521.261 215.191 515.147C229.456 533.488 246.777 549.281 266.137 561.508C269.194 557.432 272.25 554.376 276.836 553.357C287.534 550.809 341.537 560.999 350.198 566.603C352.236 568.131 356.312 577.301 359.878 584.434C377.199 582.396 395.031 576.282 412.352 568.131C413.881 553.866 405.729 539.601 390.445 537.563Z" fill="#FF4F24"/>
<path opacity="0.59" d="M426.108 299.645C431.712 294.041 435.278 280.285 424.579 278.757C412.862 277.229 416.428 291.493 413.881 298.116C411.843 303.721 397.068 312.381 409.295 320.533C419.994 327.665 430.183 306.268 428.655 297.607L426.108 299.645Z" fill="#7D0204"/>
<path opacity="0.59" d="M344.594 418.349C354.783 403.575 346.632 392.876 338.48 381.159C335.424 377.083 328.291 381.668 325.234 375.045C322.687 369.441 331.348 361.799 328.801 356.705C321.159 342.949 313.007 347.534 313.007 364.346C313.007 373.007 323.196 386.763 328.291 392.876C320.649 398.48 319.63 402.556 327.782 408.67C293.138 446.879 380.766 446.879 344.594 416.312V418.349Z" fill="#7D0204"/>
<path opacity="0.59" d="M417.447 482.032C416.937 456.05 374.143 445.351 376.18 477.447C368.539 468.277 342.047 452.483 340.009 474.9C327.272 474.9 301.29 475.409 289.572 472.352C264.608 466.239 273.779 446.37 259.514 430.576C246.268 415.802 213.662 411.726 212.643 441.275C212.134 459.616 239.645 477.956 255.948 471.843C255.438 491.202 300.271 477.956 315.555 479.994C328.801 482.032 350.707 501.392 361.406 492.221C366.501 500.882 374.652 503.429 381.785 496.806C384.841 509.033 405.729 514.638 416.428 508.015C428.655 499.863 425.598 476.937 417.447 482.032Z" fill="#7D0204"/>
<path opacity="0.59" d="M364.972 270.096C373.124 250.737 321.668 239.019 323.706 276.719C309.441 270.606 291.1 283.342 298.233 299.645C273.269 288.946 217.738 322.061 249.325 349.572C281.421 377.083 315.045 317.985 322.177 293.531C327.782 295.569 332.367 295.06 337.461 296.588C342.046 306.268 350.198 305.249 355.802 312.891C360.897 320.023 350.707 334.288 367.01 334.798C391.974 334.798 387.389 283.342 364.972 270.096Z" fill="#7D0204"/>
<path opacity="0.59" d="M449.543 347.534C459.223 339.892 479.092 321.552 468.902 307.796C457.694 292.512 439.354 306.268 442.41 322.061C426.617 324.099 423.56 339.892 424.07 353.648C415.409 350.591 406.239 351.1 398.597 356.704C385.351 343.968 348.16 341.421 363.953 369.441C375.671 390.329 413.371 383.196 423.56 366.384C430.183 378.611 450.562 381.668 449.033 364.346C454.128 392.876 483.677 352.629 446.996 350.082L449.543 347.534Z" fill="#7D0204"/>
<path opacity="0.59" d="M424.579 537.054C438.844 544.696 456.166 533.488 466.865 522.28C474.507 513.619 490.3 475.919 465.846 486.108C469.921 482.542 467.374 481.523 469.921 478.466C446.996 471.843 443.939 500.373 451.581 514.128C441.901 512.6 432.221 515.147 431.712 525.336C427.636 524.317 422.032 525.336 417.956 524.317C415.918 530.94 419.994 530.431 424.579 532.978V537.054Z" fill="#7D0204"/>
<path opacity="0.59" d="M196.341 390.838C196.85 392.876 196.341 394.914 196.85 397.461C215.191 401.537 222.833 373.517 203.473 369.951C211.624 362.818 218.757 344.987 203.473 342.44C211.115 336.326 215.7 326.137 215.191 315.948C228.946 314.929 247.796 301.683 244.23 286.399C227.418 284.87 207.039 322.061 200.926 335.307C195.831 345.496 170.358 401.537 196.341 390.838Z" fill="#7D0204"/>
<path opacity="0.59" d="M451.581 443.313C462.789 458.597 471.45 402.556 446.996 406.122C445.467 392.367 429.164 392.367 426.617 406.122C406.748 398.99 396.049 421.916 415.409 429.557C423.56 432.614 430.693 424.972 438.844 429.048C445.977 432.614 442.41 443.313 449.543 447.898L451.581 443.313Z" fill="#7D0204"/>
<path opacity="0.59" d="M515.773 372.498C518.32 364.856 518.83 340.911 504.565 342.44C483.167 344.987 502.527 368.932 504.055 374.536C506.093 383.706 502.017 402.047 514.244 406.122C532.585 411.726 514.244 383.197 509.15 379.121L515.773 372.498Z" fill="#7D0204"/>
<path opacity="0.59" d="M342.556 543.677C340.518 528.393 320.14 519.732 315.045 538.582C300.78 537.054 279.892 522.789 268.175 531.45C259.514 510.562 230.984 531.959 246.268 546.734C251.872 552.338 281.93 548.771 290.591 550.3C306.894 552.847 316.064 550.809 331.857 550.809C347.141 550.809 358.349 565.584 370.067 559.98C370.576 563.546 372.614 567.112 373.124 570.678C388.917 574.754 395.54 559.47 386.37 548.262C376.18 536.035 359.368 544.186 342.556 543.677Z" fill="#7D0204"/>
<path opacity="0.59" d="M488.262 422.934C497.942 407.651 488.262 376.574 467.883 390.329C467.374 387.782 465.846 385.234 465.336 382.178C434.769 377.592 467.374 402.047 470.431 406.632C476.035 416.311 478.073 426.501 477.054 437.709C476.035 445.86 471.45 459.616 479.601 464.201C503.546 478.975 492.847 433.124 486.224 424.972L488.262 422.934Z" fill="#7D0204"/>
<path opacity="0.6" d="M280.911 327.156C311.988 303.721 241.683 285.889 257.985 320.533C245.249 325.118 227.927 337.345 251.362 343.459C268.175 348.044 272.76 330.722 283.458 322.571L280.911 327.156Z" fill="#750400"/>
<path opacity="0.66" d="M251.362 450.445C256.966 415.293 213.153 421.406 227.927 439.237C188.699 437.709 266.137 502.41 251.362 448.408V450.445Z" fill="#750400"/>
<path opacity="0.6" d="M403.691 493.75C410.314 486.617 407.767 467.258 394.521 468.277C376.18 469.296 388.407 492.221 401.144 493.75H403.691Z" fill="#750400"/>
<path opacity="0.6" d="M387.898 359.252C354.274 327.156 381.275 407.651 392.483 370.46L387.898 359.252Z" fill="#750400"/>
<path opacity="0.6" d="M360.387 285.889C355.293 276.21 336.952 245.642 335.424 275.7C334.914 287.418 354.274 312.891 362.934 293.022L360.387 285.889Z" fill="#750400"/>
<path opacity="0.6" d="M381.275 559.47C381.275 536.035 366.501 550.3 358.349 548.262C347.141 545.205 338.99 536.544 326.763 537.054C334.914 550.3 347.141 545.715 358.349 553.357C367.01 558.961 369.557 572.207 380.766 573.226C382.803 568.64 384.332 562.527 383.313 557.432L381.275 559.47Z" fill="#750400"/>
<path opacity="0.6" d="M506.603 409.179C503.036 412.745 495.904 419.878 490.809 426.501C493.866 407.651 495.394 377.592 475.016 389.82C458.204 400.009 473.488 438.728 486.734 445.86C490.3 442.804 490.809 439.237 491.319 434.143C496.923 425.991 515.263 414.274 506.603 409.179Z" fill="#750400"/>
<path opacity="0.21" d="M514.754 369.441C507.622 352.629 484.696 318.495 479.092 302.192C476.544 294.55 475.016 288.437 472.978 282.323C440.882 253.284 398.597 238 355.802 238C346.632 238 336.952 239.019 327.782 240.547C341.537 256.85 369.048 271.624 378.218 279.266C396.559 294.55 406.748 315.438 396.559 338.873C392.483 348.553 384.841 351.61 383.313 362.309C381.785 371.988 389.426 382.687 387.898 393.895C384.841 419.368 353.255 462.673 324.215 462.163C308.932 461.654 305.875 448.408 295.686 442.294C289.572 438.728 278.364 437.709 273.269 434.143C261.042 424.972 263.59 414.274 245.758 411.726C225.38 408.67 229.456 420.387 216.21 429.048C200.926 439.237 187.68 437.199 178 428.539C183.604 479.994 215.7 527.884 257.476 556.413C288.553 566.603 313.517 577.301 342.047 574.245C435.278 564.565 557.039 464.201 514.754 369.441Z" fill="#000072"/>
<path opacity="0.27" d="M446.486 262.964C420.504 274.681 437.825 309.325 445.977 326.646C456.675 349.063 465.336 377.592 458.204 402.556C452.6 422.425 434.259 423.444 424.07 438.728C417.447 448.917 422.032 457.578 419.485 468.786C414.9 491.712 396.559 516.166 371.086 513.109C364.463 512.6 353.764 505.977 347.141 504.958C343.575 504.448 337.971 509.033 331.348 507.505C323.196 505.977 316.573 495.278 309.95 491.712C286.006 479.485 253.4 482.541 246.777 513.619C235.569 565.584 291.1 553.357 318.611 560.489C339.499 565.584 341.537 582.396 368.539 571.697C381.785 566.603 402.163 553.866 401.144 538.073C417.956 552.338 451.071 539.601 463.808 526.865C486.224 504.448 488.771 477.956 485.205 448.917C521.886 448.917 506.603 411.217 496.923 391.348C525.453 388.291 499.47 330.722 491.319 318.495L505.584 328.175C492.847 299.135 471.45 277.738 446.486 262.964Z" fill="#000072"/>
<path opacity="0.37" d="M353.764 260.926C334.914 238 278.364 250.737 278.364 283.342C251.872 282.323 240.664 292.003 227.418 314.419C220.795 325.627 222.323 327.665 212.643 338.364C202.454 350.082 191.755 360.78 187.17 377.083C180.547 401.537 188.699 432.105 218.247 434.143C229.965 435.162 233.022 422.934 245.249 431.595C250.853 435.671 251.872 450.445 260.533 456.559C295.686 480.504 337.461 464.71 341.028 422.934C361.406 434.143 379.747 427.01 388.408 404.594C391.464 396.443 394.012 379.63 391.974 371.479C389.936 363.328 379.237 357.214 379.237 350.082C378.728 339.892 442.92 300.154 406.239 297.607C410.824 295.569 416.937 282.323 409.805 274.681C432.731 252.774 370.576 258.888 353.764 260.926Z" fill="#FBB901"/>
<path opacity="0.4" d="M324.215 322.571C341.028 301.173 303.327 272.643 294.157 292.512C285.496 287.927 274.798 289.965 271.231 299.645C217.228 266.53 183.604 425.482 260.533 377.083C273.779 392.876 253.91 412.236 282.44 418.859C316.573 426.501 329.819 385.234 329.31 359.761C367.01 376.574 369.048 290.475 324.215 322.571Z" fill="#FFE4A1"/>
<path opacity="0.58" d="M276.326 300.664C275.817 300.664 275.307 301.683 276.326 301.683C281.421 302.702 285.496 306.777 286.515 311.872C287.025 313.91 287.025 316.457 286.515 318.495C286.515 319.514 281.93 326.646 281.421 324.608C280.911 323.59 279.892 323.08 278.873 324.099C275.307 327.156 273.779 331.231 271.741 334.798C266.646 343.968 259.514 345.496 249.834 342.949C249.325 342.949 249.325 343.459 249.325 343.459C254.419 347.534 261.042 347.534 266.646 344.477C273.269 340.911 274.288 333.269 279.383 327.665C279.892 328.175 280.402 328.684 281.421 328.175C295.686 323.59 291.61 299.645 276.326 300.664Z" fill="#FFE4A1"/>
<path opacity="0.58" d="M254.419 454.521C253.4 449.426 253.4 445.86 254.419 440.256C256.457 428.539 239.135 416.821 228.946 422.934C228.437 423.444 228.437 423.953 228.946 423.953C233.022 424.972 237.097 424.463 241.173 425.482C244.23 426.501 247.287 428.539 249.325 430.576C253.4 435.671 251.362 438.728 250.853 444.332C249.325 453.502 261.552 464.71 247.287 470.314C251.872 470.314 254.419 466.748 254.929 462.163C255.948 459.616 254.929 457.578 254.419 454.521Z" fill="#FFE4A1"/>
<path opacity="0.58" d="M347.141 264.492C346.632 264.492 346.632 265.001 347.141 264.492C352.745 270.096 357.84 275.191 360.387 282.323C361.406 285.38 362.425 288.946 362.425 292.003C361.916 299.135 356.311 298.116 351.217 297.098C350.707 297.098 350.198 297.607 350.707 298.116C357.84 304.23 365.482 299.135 365.482 290.475C364.463 281.304 356.821 268.058 347.141 264.492Z" fill="#FFE4A1"/>
<path opacity="0.58" d="M390.445 365.365C387.898 358.742 382.294 352.119 374.652 351.1C374.143 351.1 374.143 351.61 374.652 351.61C380.256 353.138 384.841 358.233 387.389 363.328C388.408 365.875 389.427 368.932 388.917 371.988C387.898 376.064 384.841 376.574 381.785 378.102C381.275 378.611 381.785 379.121 381.785 379.121C390.445 380.14 392.993 370.969 390.445 365.365Z" fill="#FFE4A1"/>
<path opacity="0.58" d="M259.004 377.083C249.834 376.573 251.872 370.46 249.834 364.346C249.834 363.837 249.325 363.837 248.815 363.837C235.06 366.894 221.814 361.799 224.361 344.987C225.38 338.873 226.399 332.76 228.437 327.156C233.022 312.891 240.664 299.645 256.457 296.588C233.531 289.456 221.814 335.817 221.814 350.591C221.814 363.837 233.022 364.856 243.72 365.875C251.362 366.384 246.268 370.969 249.834 375.555C251.872 378.611 255.438 378.102 258.495 377.592C259.514 377.592 259.004 377.083 259.004 377.083Z" fill="#FFE4A1"/>
<path opacity="0.58" d="M327.782 322.571C327.782 322.571 327.782 323.08 327.782 322.571C335.933 317.985 346.122 315.948 351.726 325.118C355.293 330.722 355.293 336.836 353.255 342.949C351.217 348.044 348.16 353.648 344.594 357.723C343.065 359.252 341.028 361.29 338.48 361.799C334.914 362.309 333.386 359.761 330.838 358.233C330.329 358.233 329.819 358.233 330.329 358.742C331.348 365.365 338.99 365.365 343.575 362.309C350.198 357.723 354.274 349.572 356.311 342.44C361.916 324.099 342.556 307.796 327.782 322.571Z" fill="#FFE4A1"/>
<path opacity="0.58" d="M330.838 393.895C326.763 392.876 323.706 394.914 323.196 398.99C322.687 402.047 327.782 410.707 328.291 409.689C327.782 410.198 323.196 413.255 322.687 414.274C321.159 416.312 320.14 418.349 319.63 420.897C319.121 425.482 321.159 430.067 326.253 431.086C326.763 431.086 327.272 430.576 326.763 430.067C322.178 427.52 320.14 423.953 322.178 418.859C323.706 414.783 326.253 412.236 330.329 411.217C330.838 411.217 331.348 410.198 330.329 409.689C324.215 405.613 321.668 395.424 330.838 393.895Z" fill="#FFE4A1"/>
<path opacity="0.58" d="M406.239 478.975C404.71 473.371 399.616 465.22 392.993 468.786C392.483 468.786 392.993 469.805 393.502 469.296C400.125 467.767 403.691 472.862 405.729 478.975C406.748 483.56 407.258 489.164 402.672 491.712V492.221C408.277 493.75 407.258 481.523 406.239 478.975Z" fill="#FFE4A1"/>
<path opacity="0.3" d="M508.131 410.707C503.546 406.122 495.904 413.764 491.828 419.368C493.357 408.16 496.413 384.725 481.639 387.272C481.129 387.272 481.129 387.782 481.639 387.782C495.394 392.876 488.771 411.726 489.281 422.934C489.281 423.953 490.809 424.463 491.319 423.444C492.847 420.387 495.394 418.349 497.942 415.802C498.961 414.783 503.036 410.707 504.565 411.217C508.131 412.236 504.565 417.84 503.546 419.368C499.98 423.953 491.319 427.01 490.3 433.633C490.3 434.143 491.319 434.652 491.319 434.143C495.904 428.029 502.527 424.463 507.112 418.349C508.64 415.802 510.169 413.255 508.131 410.707Z" fill="#FFE4A1"/>
<path opacity="0.3" d="M384.841 557.432C384.841 556.923 384.332 556.413 383.822 556.923C378.728 558.961 379.747 547.243 376.69 544.696C371.595 540.111 362.934 547.243 357.33 547.243C360.897 548.771 364.463 547.243 368.029 545.715C375.161 543.677 376.69 547.243 377.709 553.357C378.218 555.394 378.218 557.942 380.256 558.961C380.766 559.47 381.784 558.961 382.294 558.961C384.332 559.98 383.822 557.432 383.822 562.527C383.822 564.565 383.313 566.093 383.313 567.622C383.313 568.131 383.822 568.131 384.332 567.622C385.86 564.565 386.37 560.999 384.841 557.432Z" fill="#FFE4A1"/>
<path opacity="0.3" d="M468.902 311.362C466.865 300.664 457.694 297.607 450.052 305.758C460.242 297.607 467.374 305.249 466.865 314.929C466.355 320.533 463.298 326.137 460.751 330.722C456.675 337.854 451.581 344.477 446.486 351.61C445.977 352.629 447.505 353.648 448.014 352.629C456.675 342.44 471.45 326.137 468.902 311.362Z" fill="#FFE4A1"/>
<path opacity="0.3" d="M350.707 420.387C347.651 416.311 349.179 415.802 350.198 410.707C351.726 401.537 345.613 392.367 338.48 386.763C337.971 386.253 337.461 386.763 337.461 387.272C343.575 398.48 351.217 404.084 344.594 418.349C344.084 418.859 344.594 419.878 345.103 419.878C360.897 428.539 342.047 440.766 330.329 433.124C330.329 433.124 329.82 433.124 330.329 433.633C336.952 440.766 355.293 439.237 354.274 427.01C354.274 423.953 352.236 422.425 350.707 420.387Z" fill="#FFE4A1"/>
<path opacity="0.3" d="M458.204 410.198C454.637 405.103 450.052 402.556 444.958 404.594C445.467 400.009 443.429 395.424 438.844 394.405C431.712 392.876 427.636 401.028 426.617 406.122C426.617 406.632 427.127 406.632 427.127 406.122C426.108 407.651 430.693 401.028 430.183 401.537C431.202 400.518 431.712 399.499 432.731 398.48C441.391 397.971 444.448 400.518 442.41 406.122C441.901 407.141 443.429 408.16 443.939 407.651C446.996 407.651 450.562 408.16 453.619 408.16C454.637 409.179 456.166 410.707 456.675 412.236C458.713 415.293 459.732 418.349 460.242 421.916C460.242 426.501 459.223 430.576 459.223 435.162C459.223 435.671 459.732 435.671 459.732 435.162C463.808 427.52 463.298 417.33 458.204 410.198Z" fill="#FFE4A1"/>
<path opacity="0.3" d="M478.073 487.127C476.035 481.523 471.959 480.504 467.374 482.541C468.393 481.013 468.902 479.485 469.412 477.956C469.412 477.447 469.412 476.937 468.902 476.937C463.808 475.409 461.261 477.956 457.185 480.504C459.732 478.975 461.77 476.937 464.317 478.975C466.865 481.013 465.846 481.013 464.317 483.56C463.808 484.07 464.827 485.089 465.336 484.579C473.997 478.975 478.582 487.127 477.054 495.278C476.035 500.373 472.978 503.429 470.431 507.505C470.431 508.015 470.431 508.015 470.94 508.015C477.054 502.92 480.62 495.278 478.073 487.127Z" fill="#FFE4A1"/>
<path opacity="0.3" d="M349.179 464.71C347.141 465.22 345.103 466.748 343.575 468.277C342.556 469.296 341.537 472.862 340.518 473.371L336.442 472.862C331.348 473.371 328.291 476.428 322.178 474.39C321.668 474.39 321.159 474.9 321.668 475.409C327.272 479.994 336.442 472.352 340.009 476.428C340.518 476.937 341.537 476.428 342.047 475.919C349.179 457.068 368.539 471.843 376.69 480.504H377.199C373.633 470.314 359.878 461.654 349.179 464.71Z" fill="#FFE4A1"/>
<path opacity="0.3" d="M276.835 494.259C265.627 500.882 254.929 505.467 241.683 500.882C228.946 496.297 218.247 486.108 211.115 475.409C199.397 458.087 195.322 432.614 211.115 417.33C190.227 431.086 200.926 464.71 212.643 480.504C220.795 491.202 232.003 501.392 245.758 504.448C256.457 506.486 270.722 503.939 276.835 494.259C277.345 494.259 277.345 493.75 276.835 494.259Z" fill="#FFE4A1"/>
</g>
<path d="M207.877 852.182C207.389 853.712 207.031 855.355 206.803 857.113C206.607 858.871 206.412 860.434 206.217 861.801L229.801 907.895C230.257 906.658 230.745 905.225 231.266 903.598L233.023 898.422L207.877 852.182ZM265.396 910.092C267.87 909.896 270.377 909.734 272.916 909.604C272.005 896.192 269.807 878.777 266.324 857.357C265.934 854.949 265.624 853.126 265.396 851.889C262.988 852.084 260.318 852.247 257.389 852.377C261.523 869.76 264.192 888.998 265.396 910.092ZM276.383 845.59L276.822 845.492C277.571 845.492 278.189 845.769 278.678 846.322C279.166 846.843 279.41 847.429 279.41 848.08C279.41 848.731 279.199 849.301 278.775 849.789C278.385 850.245 277.896 850.521 277.311 850.619C276.074 850.814 273.844 851.107 270.621 851.498C270.816 852.865 271.109 854.786 271.5 857.26C271.923 859.701 272.363 862.517 272.818 865.707C273.307 868.865 273.811 872.299 274.332 876.01C274.853 879.721 275.357 883.497 275.846 887.338C276.887 895.639 277.604 902.995 277.994 909.408C279.85 909.408 281.461 909.408 282.828 909.408C284.228 909.408 285.318 909.424 286.1 909.457C286.881 909.49 287.499 909.75 287.955 910.238C288.443 910.694 288.688 911.296 288.688 912.045C288.688 912.761 288.427 913.363 287.906 913.852C287.418 914.34 286.783 914.568 286.002 914.535C285.221 914.503 284.407 914.486 283.561 914.486C282.714 914.486 281.868 914.486 281.021 914.486C271.907 914.486 262.792 915.284 253.678 916.879H253.189C252.441 916.879 251.839 916.618 251.383 916.098C250.927 915.609 250.699 915.056 250.699 914.438C250.699 913.819 250.878 913.266 251.236 912.777C251.627 912.289 252.294 911.964 253.238 911.801C255.387 911.378 257.747 911.003 260.318 910.678C258.951 890.072 256.607 872.38 253.287 857.602C248.469 869.353 242.382 886.28 235.025 908.383C235.025 908.383 234.488 910.01 233.414 913.266C232.991 914.503 232.779 915.154 232.779 915.219C232.454 916.326 231.656 916.879 230.387 916.879C229.28 916.879 228.515 916.456 228.092 915.609L204.41 869.32C201.871 888.428 200.439 901.986 200.113 909.994C206.038 910.255 209.423 910.922 210.27 911.996C210.628 912.452 210.807 913.054 210.807 913.803C210.807 914.519 210.514 915.089 209.928 915.512C209.342 915.902 208.805 916.098 208.316 916.098H207.779C204.003 915.382 200.439 915.023 197.086 915.023C193.733 915.023 190.868 915.251 188.492 915.707H188.102C187.353 915.707 186.734 915.447 186.246 914.926C185.758 914.405 185.514 913.819 185.514 913.168C185.514 911.736 186.214 910.873 187.613 910.58C189.404 910.287 191.829 910.059 194.889 909.896C195.442 896.192 197.411 880.111 200.797 861.654C201.513 857.65 202.311 853.728 203.189 849.887C199.316 849.757 195.751 849.236 192.496 848.324C191.227 847.966 190.592 847.283 190.592 846.273C190.592 845.264 190.852 844.516 191.373 844.027C191.926 843.539 192.398 843.295 192.789 843.295H193.521C193.619 843.295 194.156 843.425 195.133 843.686C197.867 844.434 201.025 844.809 204.605 844.809L208.121 844.711C209.065 844.711 209.83 845.134 210.416 845.98L235.318 891.781C243.391 868.116 248.925 853.728 251.92 848.617C252.408 847.803 253.141 847.396 254.117 847.396L276.383 845.59Z" fill="white"/>
<path d="M309.488 890.316C315.283 890.967 319.758 891.293 322.916 891.293C327.766 891.293 332.91 890.967 338.346 890.316C334.765 879.346 329.98 869.434 323.99 860.58C317.968 870.801 313.134 880.714 309.488 890.316ZM349.771 910.58L353.873 910.482H355.387C355.875 910.482 356.363 910.515 356.852 910.58C351.09 886.003 342.366 865.772 330.68 849.887L326.871 855.795C333.577 864.975 338.98 875.782 343.082 888.217C346.891 900.098 349.12 907.553 349.771 910.58ZM315.152 917.123C311.799 916.114 307.568 915.609 302.457 915.609C297.346 915.609 293.115 916.114 289.762 917.123C289.013 917.123 288.395 916.863 287.906 916.342C287.418 915.821 287.174 915.235 287.174 914.584C287.174 913.217 287.874 912.354 289.273 911.996C291.52 911.41 294.482 910.971 298.16 910.678C302.457 889.779 312.532 867.579 328.385 844.076C328.906 843.36 329.492 843.002 330.143 843.002C331.249 843.002 332.031 843.295 332.486 843.881C346.028 861.166 355.924 883.48 362.174 910.824C365.494 911.117 368.798 911.508 372.086 911.996C372.737 912.094 373.258 912.387 373.648 912.875C374.072 913.363 374.283 913.933 374.283 914.584C374.283 915.235 373.99 915.821 373.404 916.342C372.851 916.863 372.411 917.123 372.086 917.123C371.63 917.123 370.637 916.977 369.107 916.684C362.792 915.544 354.931 915.316 345.523 916C342.757 916.195 340.673 916.423 339.273 916.684C337.874 916.944 337.141 917.074 337.076 917.074C337.011 917.107 336.783 917.123 336.393 917.123C336.002 917.123 335.546 916.846 335.025 916.293C334.537 915.74 334.293 915.154 334.293 914.535C334.293 913.917 334.488 913.363 334.879 912.875C335.302 912.387 336.002 912.061 336.979 911.898C337.955 911.703 339.111 911.54 340.445 911.41C341.78 911.247 343.147 911.085 344.547 910.922C343.115 905.486 341.585 900.245 339.957 895.199C334.195 896.013 328.922 896.42 324.137 896.42C319.352 896.42 313.867 896.013 307.682 895.199C305.956 900.342 304.557 905.437 303.482 910.482C307.617 910.613 311.718 911.117 315.787 911.996C316.373 912.094 316.845 912.387 317.203 912.875C317.594 913.363 317.789 913.949 317.789 914.633C317.789 915.284 317.496 915.854 316.91 916.342C316.357 916.863 315.771 917.123 315.152 917.123Z" fill="white"/>
<path d="M390.201 910.824C391.829 910.661 393.961 910.58 396.598 910.58L398.307 849.691C395.572 849.822 393.196 849.984 391.178 850.18L390.201 910.824ZM426.92 911.703C423.958 907.602 422.477 900.603 422.477 890.707V888.949C422.477 888.363 422.509 887.842 422.574 887.387C419.286 887.973 417.057 888.314 415.885 888.412C415.755 889.324 415.689 890.658 415.689 892.416C415.689 894.141 415.836 896.094 416.129 898.275C416.454 900.456 417.04 902.491 417.887 904.379C419.742 908.676 422.753 911.117 426.92 911.703ZM402.506 882.699C404.687 883.155 407.145 883.383 409.879 883.383C412.613 883.383 415.006 883.269 417.057 883.041C419.107 882.813 421.109 882.439 423.062 881.918C425.048 881.397 426.92 880.714 428.678 879.867C430.436 878.988 431.982 877.914 433.316 876.645C436.181 873.812 437.613 870.264 437.613 866C437.613 859.587 434.57 855.095 428.482 852.523C424.804 850.993 421.012 850.098 417.105 849.838C413.199 849.545 410.383 849.398 408.658 849.398H405.143C404.524 849.398 403.938 849.431 403.385 849.496L402.506 882.699ZM440.689 898.617L440.592 897.104C440.592 896.355 440.852 895.753 441.373 895.297C441.926 894.841 442.529 894.613 443.18 894.613C443.831 894.613 444.4 894.841 444.889 895.297C445.377 895.72 445.654 896.257 445.719 896.908L445.816 898.617C445.816 903.988 444.286 908.35 441.227 911.703C438.102 915.154 434 916.879 428.922 916.879H428.775C420.312 916.651 414.778 912.191 412.174 903.5C411.132 900.049 410.611 896.176 410.611 891.879L410.709 888.607C408.202 888.607 405.436 888.38 402.408 887.924L401.676 913.217C401.676 913.998 401.415 914.617 400.895 915.072C400.406 915.495 399.804 915.707 399.088 915.707C391.471 915.707 384.537 916.098 378.287 916.879H377.994C377.245 916.879 376.627 916.618 376.139 916.098C375.65 915.609 375.406 915.04 375.406 914.389C375.406 913.738 375.602 913.168 375.992 912.68C376.415 912.191 377.083 911.882 377.994 911.752C378.938 911.622 380.029 911.508 381.266 911.41C382.535 911.312 383.772 911.215 384.977 911.117L386.1 850.912L378.678 852.377C378.45 852.54 378.092 852.621 377.604 852.621C377.115 852.621 376.627 852.361 376.139 851.84C375.65 851.319 375.406 850.733 375.406 850.082C375.406 848.78 376.008 847.95 377.213 847.592C383.756 845.411 393.749 844.32 407.193 844.32C414.745 844.711 420.23 845.297 423.648 846.078C427.099 846.859 429.915 847.755 432.096 848.764C434.277 849.74 436.148 851.01 437.711 852.572C441.031 855.827 442.691 860.303 442.691 866C442.691 870.655 441.308 874.789 438.541 878.402C435.904 881.853 432.324 884.327 427.799 885.824C427.669 887.322 427.604 888.656 427.604 889.828C427.604 890.967 427.62 892.156 427.652 893.393C427.685 894.63 427.766 895.98 427.896 897.445C428.027 898.91 428.222 900.408 428.482 901.938C428.775 903.467 429.15 904.867 429.605 906.137C430.68 908.969 432.145 910.385 434 910.385C436.279 910.385 438.036 908.871 439.273 905.844C440.217 903.598 440.689 901.189 440.689 898.617Z" fill="white"/>
<path d="M463.004 862.387C462.483 864.242 462.223 866.146 462.223 868.1C462.223 870.053 462.483 871.827 463.004 873.422C463.557 875.017 464.664 876.547 466.324 878.012C470.1 881.332 476.66 883.969 486.002 885.922C492.024 887.224 496.581 888.673 499.674 890.268C502.799 891.83 505.224 893.474 506.949 895.199C508.707 896.892 509.83 898.926 510.318 901.303C510.774 899.968 511.002 898.454 511.002 896.762C511.002 895.036 510.66 893.425 509.977 891.928C509.326 890.43 508.447 889.128 507.34 888.021C506.266 886.882 505.012 885.889 503.58 885.043C502.148 884.197 500.667 883.48 499.137 882.895C497.053 882.081 494.547 881.316 491.617 880.6C488.688 879.883 486.197 879.265 484.146 878.744C482.096 878.223 480.094 877.637 478.141 876.986C476.188 876.335 474.332 875.587 472.574 874.74C470.816 873.894 469.254 872.885 467.887 871.713C464.99 869.206 463.362 866.098 463.004 862.387ZM461.1 899.691C468.684 909.424 478.124 914.291 489.42 914.291C496.386 914.291 501.253 912.582 504.02 909.164C505.094 907.895 505.631 906.413 505.631 904.721C505.631 903.028 505.257 901.612 504.508 900.473C503.759 899.301 502.783 898.259 501.578 897.348C500.374 896.436 499.007 895.639 497.477 894.955C495.979 894.239 494.465 893.62 492.936 893.1C490.494 892.253 487.988 891.57 485.416 891.049C482.844 890.528 480.419 889.975 478.141 889.389C475.862 888.77 473.697 888.038 471.646 887.191C469.596 886.345 467.691 885.352 465.934 884.213C464.176 883.074 462.646 881.723 461.344 880.16C458.609 876.872 457.242 872.722 457.242 867.709C457.242 860.255 460.009 854.346 465.543 849.984C470.621 845.98 476.773 843.979 484 843.979C488.069 843.979 492.561 844.809 497.477 846.469C502.229 848.096 505.517 849.968 507.34 852.084C508.089 850.066 509.146 847.608 510.514 844.711C511.067 843.767 511.767 843.295 512.613 843.295C513.492 843.295 514.176 843.572 514.664 844.125C515.152 844.646 515.396 845.167 515.396 845.688C515.396 846.176 514.924 847.396 513.98 849.35C513.036 851.303 512.011 854.053 510.904 857.602C509.83 861.117 509.065 864.682 508.609 868.295C508.544 868.946 508.268 869.483 507.779 869.906C507.324 870.297 506.738 870.492 506.021 870.492C505.338 870.492 504.752 870.215 504.264 869.662C503.775 869.109 503.531 868.555 503.531 868.002V867.709C503.922 864.258 504.622 860.857 505.631 857.504C505.045 855.714 502.197 853.858 497.086 851.938C492.008 849.984 487.483 849.008 483.512 849.008C476.676 849.008 472.005 851.124 469.498 855.355C468.619 856.82 468.163 858.594 468.131 860.678C468.456 865.43 471.484 868.962 477.213 871.273C479.98 872.445 482.714 873.324 485.416 873.91C488.118 874.464 490.608 875.017 492.887 875.57C495.198 876.091 497.851 876.84 500.846 877.816C503.84 878.793 506.461 880.079 508.707 881.674C513.655 885.157 516.129 890.268 516.129 897.006C516.129 903.712 513.215 909.229 507.389 913.559C502.083 917.465 496.126 919.418 489.518 919.418C477.994 919.418 468.391 915.316 460.709 907.113V908.285C460.709 910.336 460.774 912.37 460.904 914.389V914.584C460.904 915.235 460.676 915.805 460.221 916.293C459.798 916.781 459.212 917.042 458.463 917.074C457.747 917.107 457.145 916.895 456.656 916.439C456.168 915.984 455.891 915.316 455.826 914.438C455.696 912.68 455.631 910.401 455.631 907.602C455.631 902.426 456.233 896.827 457.438 890.805C457.796 889.405 458.626 888.705 459.928 888.705C460.676 888.705 461.295 888.998 461.783 889.584C462.271 890.137 462.516 890.577 462.516 890.902V891.488C462.516 891.586 462.451 891.846 462.32 892.27C462.223 892.693 462.109 893.23 461.979 893.881C461.881 894.499 461.767 895.102 461.637 895.688C461.539 896.371 461.36 897.706 461.1 899.691Z" fill="white"/>
<defs>
<filter id="filter0_f_1_299" x="123.859" y="187" width="478.141" height="474.256" filterUnits="userSpaceOnUse" color-interpolation-filters="sRGB">
<feFlood flood-opacity="0" result="BackgroundImageFix"/>
<feBlend mode="normal" in="SourceGraphic" in2="BackgroundImageFix" result="shape"/>
<feGaussianBlur stdDeviation="32" result="effect1_foregroundBlur_1_299"/>
</filter>
<clipPath id="clip0_1_299">
<rect width="350" height="346.434" fill="white" transform="translate(178 238)"/>
</clipPath>
</defs>
</svg>
