<svg width="706" height="1000" viewBox="0 0 706 1000" fill="none" xmlns="http://www.w3.org/2000/svg">
<path d="M706 0H0V1000H706V0Z" fill="#191919"/>
<g filter="url(#filter0_f_6_544)">
<path d="M540.999 487.074C568.032 394.281 514.723 297.142 421.929 270.109C329.136 243.076 231.997 296.386 204.964 389.179C177.931 481.973 231.241 579.111 324.034 606.144C416.828 633.177 513.966 579.868 540.999 487.074Z" fill="black"/>
<path d="M323.668 350.76C343.401 353.875 362.614 358.549 382.866 358.549C403.119 359.068 420.255 353.356 438.95 346.605C448.297 342.97 457.644 339.855 467.51 339.335C479.454 338.297 489.84 342.97 500.226 347.644C509.573 351.798 517.881 353.875 526.709 353.356C526.709 352.837 526.19 352.318 526.19 351.798C522.036 351.798 517.881 351.279 513.727 350.24C499.706 346.605 487.763 337.258 473.223 336.739C457.125 336.22 442.065 342.97 427.525 348.683C408.312 355.953 389.617 357.51 369.365 355.433C352.228 353.356 335.092 349.202 317.955 347.644C294.588 345.567 271.739 356.472 249.929 363.223C237.466 367.377 223.964 371.531 210.463 372.57C209.944 373.089 209.944 374.128 209.424 374.647C246.813 373.089 288.875 345.567 323.668 350.76Z" fill="black"/>
<path d="M245.255 557.436C260.314 556.917 275.374 555.359 290.433 552.763C300.3 551.205 310.685 548.608 320.552 547.57C335.611 546.012 349.113 551.724 363.133 556.917C393.252 568.341 422.332 565.745 452.97 558.994C471.665 554.84 490.878 551.205 509.573 547.051C510.092 546.531 510.611 545.493 511.65 544.454C498.148 547.57 485.166 550.686 471.665 553.282C438.95 560.033 405.196 568.861 372.481 557.956C360.537 553.801 349.113 548.089 336.65 546.012C326.264 544.454 316.398 546.012 306.531 548.089C285.76 552.243 264.988 555.359 244.217 555.878C244.217 556.398 244.736 556.917 245.255 557.436Z" fill="black"/>
<path opacity="0.47" d="M455.047 500.315C451.932 500.834 452.97 505.507 456.086 505.507C472.703 505.507 488.801 503.43 504.899 506.027C496.59 511.739 483.608 510.7 474.78 513.816C459.721 518.49 447.777 526.279 431.68 524.202C422.332 522.644 414.024 521.086 404.677 523.163C388.579 526.279 380.27 528.875 365.211 521.605C345.478 512.258 324.706 516.412 303.935 518.49C300.3 519.009 264.469 518.49 264.988 523.682C264.988 524.202 264.988 524.721 264.988 524.721C264.988 526.279 266.027 527.317 267.065 527.837C286.798 536.145 309.128 531.472 329.899 531.472C350.151 531.472 370.404 543.415 390.136 538.223C395.849 536.665 401.042 534.068 406.754 533.03C416.101 530.952 423.89 533.549 433.237 534.587C443.104 535.626 451.932 533.03 461.279 529.395C474.261 524.202 485.166 521.086 498.668 517.97C506.457 515.893 511.131 512.777 515.285 506.546C516.843 504.469 514.766 501.353 512.688 501.353C494.513 495.641 474.261 497.199 455.047 500.315Z" fill="black"/>
<path opacity="0.47" d="M439.469 369.454C421.294 374.128 403.638 369.973 385.463 372.57C369.365 375.166 357.941 391.264 341.843 389.706C329.899 388.668 317.955 384.513 305.493 383.475C291.991 382.436 277.97 381.917 264.469 383.994C247.332 386.59 212.54 394.899 210.463 416.19C209.944 418.786 212.54 421.902 215.656 420.863C224.484 417.228 231.754 411.516 240.582 407.881C251.487 403.727 262.911 402.169 274.335 400.092C286.279 398.015 297.703 395.418 309.647 394.38C322.11 393.341 334.053 398.015 345.997 396.457C355.863 395.418 361.576 389.187 369.365 383.994C384.944 373.608 402.599 377.243 420.255 376.724C450.374 376.205 478.935 353.356 506.976 374.128C509.053 375.685 511.65 373.089 509.573 371.012C489.84 351.798 462.317 363.742 439.469 369.454Z" fill="black"/>
<path opacity="0.47" d="M459.721 432.288C446.739 434.884 437.911 443.712 423.89 444.751C410.389 445.789 396.368 443.712 382.347 443.712C354.306 443.712 327.822 450.982 300.819 457.733C270.7 464.484 240.582 467.6 209.944 470.715C204.231 471.235 202.674 480.582 208.905 481.62C239.024 486.813 270.181 480.062 298.742 470.715C331.457 460.33 360.537 449.944 395.329 450.463C408.831 450.463 422.852 452.54 435.834 447.867C450.893 442.674 460.76 433.846 478.415 436.962C499.187 440.597 519.439 448.386 536.576 431.249C538.133 429.692 536.056 427.095 533.979 428.653C509.573 448.905 486.724 426.576 459.721 432.288Z" fill="black"/>
<path opacity="0.47" d="M387.54 309.217C377.674 310.775 372.481 318.564 364.172 323.757C343.92 337.258 323.148 326.873 301.338 325.315C285.24 323.757 269.662 326.873 254.602 332.065V332.585C278.49 324.276 299.261 325.834 323.668 330.508C336.65 332.585 349.632 334.143 361.576 327.392C367.288 324.276 371.442 318.564 376.635 314.929C386.501 308.697 396.368 309.217 407.273 312.852C421.294 317.006 431.16 321.16 443.623 311.294V310.775C424.409 326.873 407.273 306.101 387.54 309.217Z" fill="black"/>
<path opacity="0.47" d="M464.395 568.341C456.605 585.478 442.585 579.766 428.044 582.362C415.582 584.439 406.754 594.825 394.81 598.46C376.635 603.653 361.576 592.748 343.92 589.632C330.938 587.555 317.436 587.555 304.454 588.594V589.113C326.264 587.036 345.997 590.151 366.769 597.421C378.193 601.057 388.579 603.134 400.003 597.941C407.273 594.306 412.985 588.594 420.774 585.478C429.083 581.843 436.872 583.401 445.7 582.881C455.047 581.324 460.24 577.689 464.395 568.341C464.395 567.822 464.395 567.822 464.395 568.341Z" fill="black"/>
<path opacity="0.3" d="M245.774 419.825C240.582 421.902 238.504 427.095 240.062 431.769C240.062 434.884 242.139 438.519 244.736 440.597C250.967 444.751 259.276 447.347 267.065 447.347C275.893 449.424 284.721 447.867 290.433 440.077C293.549 435.923 293.549 430.73 289.914 427.095C279.009 415.152 260.314 414.113 245.774 419.825Z" fill="black"/>
<path opacity="0.3" d="M315.359 430.211C315.878 435.923 324.187 435.404 323.668 429.691C323.668 424.498 314.84 425.018 315.359 430.211Z" fill="black"/>
<path opacity="0.3" d="M456.605 388.668C443.623 383.475 422.852 385.033 425.967 402.169C429.083 418.267 449.855 417.748 464.395 413.594C480.493 426.576 512.169 423.979 507.495 398.015C503.341 373.089 468.549 371.012 456.605 388.668Z" fill="black"/>
<path opacity="0.3" d="M454.009 373.608C452.451 374.647 451.932 376.724 452.451 378.282C453.49 380.359 456.605 380.359 457.125 378.282C457.125 378.282 457.644 378.282 457.644 377.763C458.163 377.243 458.163 377.243 458.163 376.724C458.683 376.205 458.683 375.166 458.163 374.647C457.644 373.089 455.567 372.57 454.009 373.608Z" fill="black"/>
<path opacity="0.3" d="M394.81 473.312C393.772 473.831 392.733 474.87 392.214 475.908C388.579 477.466 384.944 480.062 382.347 483.178C381.309 484.217 380.789 485.255 380.27 486.813C379.751 487.332 379.231 487.332 378.193 487.852C377.674 488.371 377.154 488.89 377.154 489.41C378.712 499.795 391.175 507.585 401.561 509.143C412.466 510.7 425.448 501.873 426.487 490.448C427.525 480.582 418.697 474.87 409.869 473.312C408.831 473.312 407.792 473.312 407.273 473.312C403.119 471.235 398.964 470.715 394.81 473.312Z" fill="black"/>
<path opacity="0.3" d="M497.629 462.407C497.629 465.003 498.148 467.08 499.706 469.157C500.225 469.677 500.225 470.196 500.745 470.715C500.745 471.234 501.264 471.234 501.264 471.754C501.264 472.273 502.303 473.312 501.264 472.273C502.822 475.389 506.457 478.504 510.092 476.427C513.208 474.869 516.323 472.792 517.881 469.677C518.92 467.599 518.401 464.484 516.843 462.407C515.804 460.849 514.246 460.329 512.688 460.329C511.13 457.733 508.015 456.175 504.899 455.656C501.264 455.656 497.629 458.252 497.629 462.407Z" fill="black"/>
<path opacity="0.3" d="M230.715 521.086C230.715 523.683 231.754 526.279 232.273 528.875C233.312 536.665 239.024 542.896 246.813 544.973H247.332C250.448 546.012 254.083 546.012 257.199 544.454C260.834 542.377 260.315 537.703 257.718 535.107C256.68 534.068 255.122 533.03 254.083 532.511C252.525 524.721 247.852 518.49 240.062 514.855C235.908 512.778 230.196 515.893 230.715 521.086Z" fill="black"/>
<path opacity="0.3" d="M337.169 287.926C334.053 288.964 331.976 291.042 329.38 292.6C326.264 294.677 325.225 299.87 328.341 302.466C330.938 304.543 333.534 306.101 336.65 306.101C339.246 306.101 341.323 304.543 343.401 303.505C344.958 302.466 345.478 301.427 345.997 299.87C348.074 299.87 350.151 298.312 351.19 296.235C352.228 293.638 351.19 290.003 348.593 288.964C344.958 287.926 340.804 286.368 337.169 287.926Z" fill="black"/>
<path opacity="0.3" d="M383.386 405.804C383.386 410.478 391.175 410.478 391.175 405.285C391.175 400.611 383.386 400.611 383.386 405.804Z" fill="black"/>
<path opacity="0.3" d="M452.97 300.908L453.49 301.947C455.567 306.62 461.798 306.101 463.356 301.427L463.875 300.389C464.914 296.754 461.798 293.638 458.163 293.638C454.528 294.157 451.932 297.792 452.97 300.908Z" fill="black"/>
<path opacity="0.3" d="M401.042 287.407C399.484 288.445 398.445 290.003 398.964 292.08C399.484 294.157 401.561 294.677 403.119 294.677C405.715 294.157 406.754 291.561 405.715 289.484C405.715 288.965 405.715 288.445 405.196 287.926C404.157 286.887 402.08 286.368 401.042 287.407Z" fill="black"/>
<path opacity="0.3" d="M337.169 564.706C356.383 575.092 388.059 585.478 409.35 577.688C412.466 576.65 412.466 571.976 408.831 570.938C397.406 567.822 384.944 569.899 373.519 567.822C362.095 565.745 350.671 562.11 339.246 558.994C335.611 557.956 334.053 563.148 337.169 564.706Z" fill="black"/>
<path opacity="0.26" d="M463.356 287.926C434.276 270.789 400.522 261.442 364.691 263C268.104 267.674 193.326 350.24 198 446.828C199.039 463.964 202.154 480.582 207.347 496.16C245.775 516.413 294.588 517.451 336.65 504.988C440.507 474.87 496.071 368.416 463.356 287.926Z" fill="black"/>
<path opacity="0.47" d="M507.496 326.353C506.976 326.873 506.976 327.911 506.457 328.43C497.629 348.683 499.706 376.205 490.359 398.534C473.223 440.077 447.777 475.908 407.273 497.718C341.323 533.03 279.528 538.742 219.81 522.644C250.967 579.246 312.763 616.116 381.828 613C478.415 608.327 552.674 526.279 548 429.692C545.923 390.226 531.383 354.395 507.496 326.353Z" fill="black"/>
<path opacity="0.47" d="M548 429.691C546.961 408.401 542.288 388.668 534.499 369.973C527.229 392.303 525.151 416.709 516.323 439.039C503.341 471.754 482.57 497.718 454.528 519.009C422.332 543.415 377.674 558.475 338.727 567.822C309.128 575.092 284.721 575.611 260.315 572.496C266.027 577.169 271.739 581.324 277.97 585.478C327.303 595.344 379.751 590.671 425.967 570.938C474.261 550.166 513.208 524.202 535.537 474.87C538.134 469.157 543.326 456.175 548 441.635C548 436.962 548 433.326 548 429.691Z" fill="black"/>
<path opacity="0.26" d="M369.365 290.003C345.997 272.347 300.3 297.273 280.047 311.294C247.852 333.623 210.982 386.071 233.311 427.095C253.044 463.445 301.338 461.887 333.015 446.828C364.172 432.288 389.617 413.074 404.676 381.398C421.294 346.605 418.178 297.273 369.365 290.003Z" fill="black"/>
<path opacity="0.26" d="M291.472 306.62C254.602 317.525 217.214 403.727 282.125 398.015C347.555 392.822 339.766 284.81 291.472 306.62Z" fill="black"/>
</g>
<g clip-path="url(#clip0_6_544)">
<path d="M520.999 461.074C548.032 368.281 494.723 271.142 401.929 244.109C309.136 217.076 211.997 270.386 184.964 363.179C157.931 455.973 211.241 553.111 304.034 580.144C396.828 607.177 493.966 553.868 520.999 461.074Z" fill="#3264AE"/>
<path d="M303.668 324.76C323.401 327.875 342.614 332.549 362.866 332.549C383.119 333.068 400.255 327.356 418.95 320.605C428.297 316.97 437.644 313.855 447.51 313.335C459.454 312.297 469.84 316.97 480.226 321.644C489.573 325.798 497.881 327.875 506.709 327.356C506.709 326.837 506.19 326.318 506.19 325.798C502.036 325.798 497.881 325.279 493.727 324.24C479.706 320.605 467.763 311.258 453.223 310.739C437.125 310.22 422.065 316.97 407.525 322.683C388.312 329.953 369.617 331.51 349.365 329.433C332.228 327.356 315.092 323.202 297.955 321.644C274.588 319.567 251.739 330.472 229.929 337.223C217.466 341.377 203.964 345.531 190.463 346.57C189.944 347.089 189.944 348.128 189.424 348.647C226.813 347.089 268.875 319.567 303.668 324.76Z" fill="#3264AE"/>
<path d="M225.255 531.436C240.314 530.917 255.374 529.359 270.433 526.763C280.3 525.205 290.685 522.608 300.552 521.57C315.611 520.012 329.113 525.724 343.133 530.917C373.252 542.341 402.332 539.745 432.97 532.994C451.665 528.84 470.878 525.205 489.573 521.051C490.092 520.531 490.611 519.493 491.65 518.454C478.148 521.57 465.166 524.686 451.665 527.282C418.95 534.033 385.196 542.861 352.481 531.956C340.537 527.801 329.113 522.089 316.65 520.012C306.264 518.454 296.398 520.012 286.531 522.089C265.76 526.243 244.988 529.359 224.217 529.878C224.217 530.398 224.736 530.917 225.255 531.436Z" fill="#3264AE"/>
<path opacity="0.47" d="M435.047 474.315C431.932 474.834 432.97 479.507 436.086 479.507C452.703 479.507 468.801 477.43 484.899 480.027C476.59 485.739 463.608 484.7 454.78 487.816C439.721 492.49 427.777 500.279 411.68 498.202C402.332 496.644 394.024 495.086 384.677 497.163C368.579 500.279 360.27 502.875 345.211 495.605C325.478 486.258 304.706 490.412 283.935 492.49C280.3 493.009 244.469 492.49 244.988 497.682C244.988 498.202 244.988 498.721 244.988 498.721C244.988 500.279 246.027 501.317 247.065 501.837C266.798 510.145 289.128 505.472 309.899 505.472C330.151 505.472 350.404 517.415 370.136 512.223C375.849 510.665 381.042 508.068 386.754 507.03C396.101 504.952 403.89 507.549 413.237 508.587C423.104 509.626 431.932 507.03 441.279 503.395C454.261 498.202 465.166 495.086 478.668 491.97C486.457 489.893 491.131 486.777 495.285 480.546C496.843 478.469 494.766 475.353 492.688 475.353C474.513 469.641 454.261 471.199 435.047 474.315Z" fill="#60BFEE"/>
<path opacity="0.47" d="M419.469 343.454C401.294 348.128 383.638 343.973 365.463 346.57C349.365 349.166 337.941 365.264 321.843 363.706C309.899 362.668 297.955 358.513 285.493 357.475C271.991 356.436 257.97 355.917 244.469 357.994C227.332 360.59 192.54 368.899 190.463 390.19C189.944 392.786 192.54 395.902 195.656 394.863C204.484 391.228 211.754 385.516 220.582 381.881C231.487 377.727 242.911 376.169 254.335 374.092C266.279 372.015 277.703 369.418 289.647 368.38C302.11 367.341 314.053 372.015 325.997 370.457C335.863 369.418 341.576 363.187 349.365 357.994C364.944 347.608 382.599 351.243 400.255 350.724C430.374 350.205 458.935 327.356 486.976 348.128C489.053 349.685 491.65 347.089 489.573 345.012C469.84 325.798 442.317 337.742 419.469 343.454Z" fill="#60BFEE"/>
<path opacity="0.47" d="M439.721 406.288C426.739 408.884 417.911 417.712 403.89 418.751C390.389 419.789 376.368 417.712 362.347 417.712C334.306 417.712 307.822 424.982 280.819 431.733C250.7 438.484 220.582 441.6 189.944 444.715C184.231 445.235 182.674 454.582 188.905 455.62C219.024 460.813 250.181 454.062 278.742 444.715C311.457 434.33 340.537 423.944 375.329 424.463C388.831 424.463 402.852 426.54 415.834 421.867C430.893 416.674 440.76 407.846 458.415 410.962C479.187 414.597 499.439 422.386 516.576 405.249C518.133 403.692 516.056 401.095 513.979 402.653C489.573 422.905 466.724 400.576 439.721 406.288Z" fill="#60BFEE"/>
<path opacity="0.47" d="M367.54 283.217C357.674 284.775 352.481 292.564 344.172 297.757C323.92 311.258 303.148 300.873 281.338 299.315C265.24 297.757 249.662 300.873 234.602 306.065V306.585C258.49 298.276 279.261 299.834 303.668 304.508C316.65 306.585 329.632 308.143 341.576 301.392C347.288 298.276 351.442 292.564 356.635 288.929C366.501 282.697 376.368 283.217 387.273 286.852C401.294 291.006 411.16 295.16 423.623 285.294V284.775C404.409 300.873 387.273 280.101 367.54 283.217Z" fill="#60BFEE"/>
<path opacity="0.47" d="M444.395 542.341C436.605 559.478 422.585 553.766 408.044 556.362C395.582 558.439 386.754 568.825 374.81 572.46C356.635 577.653 341.576 566.748 323.92 563.632C310.938 561.555 297.436 561.555 284.454 562.594V563.113C306.264 561.036 325.997 564.151 346.769 571.421C358.193 575.057 368.579 577.134 380.003 571.941C387.273 568.306 392.985 562.594 400.774 559.478C409.083 555.843 416.872 557.401 425.7 556.881C435.047 555.324 440.24 551.689 444.395 542.341C444.395 541.822 444.395 541.822 444.395 542.341Z" fill="#60BFEE"/>
<path opacity="0.3" d="M225.774 393.825C220.582 395.902 218.504 401.095 220.062 405.769C220.062 408.884 222.139 412.519 224.736 414.597C230.967 418.751 239.276 421.347 247.065 421.347C255.893 423.424 264.721 421.867 270.433 414.077C273.549 409.923 273.549 404.73 269.914 401.095C259.009 389.152 240.314 388.113 225.774 393.825Z" fill="#60BFEE"/>
<path opacity="0.3" d="M295.359 404.211C295.878 409.923 304.187 409.404 303.668 403.691C303.668 398.498 294.84 399.018 295.359 404.211Z" fill="#60BFEE"/>
<path opacity="0.3" d="M436.605 362.668C423.623 357.475 402.852 359.033 405.967 376.169C409.083 392.267 429.855 391.748 444.395 387.594C460.493 400.576 492.169 397.979 487.495 372.015C483.341 347.089 448.549 345.012 436.605 362.668Z" fill="#60BFEE"/>
<path opacity="0.3" d="M434.009 347.608C432.451 348.647 431.932 350.724 432.451 352.282C433.49 354.359 436.605 354.359 437.125 352.282C437.125 352.282 437.644 352.282 437.644 351.763C438.163 351.243 438.163 351.243 438.163 350.724C438.683 350.205 438.683 349.166 438.163 348.647C437.644 347.089 435.567 346.57 434.009 347.608Z" fill="#60BFEE"/>
<path opacity="0.3" d="M374.81 447.312C373.772 447.831 372.733 448.87 372.214 449.908C368.579 451.466 364.944 454.062 362.347 457.178C361.309 458.217 360.789 459.255 360.27 460.813C359.751 461.332 359.231 461.332 358.193 461.852C357.674 462.371 357.154 462.89 357.154 463.41C358.712 473.795 371.175 481.585 381.561 483.143C392.466 484.7 405.448 475.873 406.487 464.448C407.525 454.582 398.697 448.87 389.869 447.312C388.831 447.312 387.792 447.312 387.273 447.312C383.119 445.235 378.964 444.715 374.81 447.312Z" fill="#60BFEE"/>
<path opacity="0.3" d="M477.629 436.407C477.629 439.003 478.148 441.08 479.706 443.157C480.225 443.677 480.225 444.196 480.745 444.715C480.745 445.234 481.264 445.234 481.264 445.754C481.264 446.273 482.303 447.312 481.264 446.273C482.822 449.389 486.457 452.504 490.092 450.427C493.208 448.869 496.323 446.792 497.881 443.677C498.92 441.599 498.401 438.484 496.843 436.407C495.804 434.849 494.246 434.329 492.688 434.329C491.13 431.733 488.015 430.175 484.899 429.656C481.264 429.656 477.629 432.252 477.629 436.407Z" fill="#60BFEE"/>
<path opacity="0.3" d="M210.715 495.086C210.715 497.683 211.754 500.279 212.273 502.875C213.312 510.665 219.024 516.896 226.813 518.973H227.332C230.448 520.012 234.083 520.012 237.199 518.454C240.834 516.377 240.315 511.703 237.718 509.107C236.68 508.068 235.122 507.03 234.083 506.511C232.525 498.721 227.852 492.49 220.062 488.855C215.908 486.778 210.196 489.893 210.715 495.086Z" fill="#60BFEE"/>
<path opacity="0.3" d="M317.169 261.926C314.053 262.964 311.976 265.042 309.38 266.6C306.264 268.677 305.225 273.87 308.341 276.466C310.938 278.543 313.534 280.101 316.65 280.101C319.246 280.101 321.323 278.543 323.401 277.505C324.958 276.466 325.478 275.427 325.997 273.87C328.074 273.87 330.151 272.312 331.19 270.235C332.228 267.638 331.19 264.003 328.593 262.964C324.958 261.926 320.804 260.368 317.169 261.926Z" fill="#60BFEE"/>
<path opacity="0.3" d="M363.386 379.804C363.386 384.478 371.175 384.478 371.175 379.285C371.175 374.611 363.386 374.611 363.386 379.804Z" fill="#60BFEE"/>
<path opacity="0.3" d="M432.97 274.908L433.49 275.947C435.567 280.62 441.798 280.101 443.356 275.427L443.875 274.389C444.914 270.754 441.798 267.638 438.163 267.638C434.528 268.157 431.932 271.792 432.97 274.908Z" fill="#60BFEE"/>
<path opacity="0.3" d="M381.042 261.407C379.484 262.445 378.445 264.003 378.964 266.08C379.484 268.157 381.561 268.677 383.119 268.677C385.715 268.157 386.754 265.561 385.715 263.484C385.715 262.965 385.715 262.445 385.196 261.926C384.157 260.887 382.08 260.368 381.042 261.407Z" fill="#60BFEE"/>
<path opacity="0.3" d="M317.169 538.706C336.383 549.092 368.059 559.478 389.35 551.688C392.466 550.65 392.466 545.976 388.831 544.938C377.406 541.822 364.944 543.899 353.519 541.822C342.095 539.745 330.671 536.11 319.246 532.994C315.611 531.956 314.053 537.148 317.169 538.706Z" fill="#60BFEE"/>
<path opacity="0.26" d="M443.356 261.926C414.276 244.789 380.522 235.442 344.691 237C248.104 241.674 173.326 324.24 178 420.828C179.039 437.964 182.154 454.582 187.347 470.16C225.775 490.413 274.588 491.451 316.65 478.988C420.507 448.87 476.071 342.416 443.356 261.926Z" fill="#60BFEE"/>
<path opacity="0.47" d="M487.496 300.353C486.976 300.873 486.976 301.911 486.457 302.43C477.629 322.683 479.706 350.205 470.359 372.534C453.223 414.077 427.777 449.908 387.273 471.718C321.323 507.03 259.528 512.742 199.81 496.644C230.967 553.246 292.763 590.116 361.828 587C458.415 582.327 532.674 500.279 528 403.692C525.923 364.226 511.383 328.395 487.496 300.353Z" fill="#329693"/>
<path opacity="0.47" d="M528 403.691C526.961 382.401 522.288 362.668 514.499 343.973C507.229 366.303 505.151 390.709 496.323 413.039C483.341 445.754 462.57 471.718 434.528 493.009C402.332 517.415 357.674 532.475 318.727 541.822C289.128 549.092 264.721 549.611 240.315 546.496C246.027 551.169 251.739 555.324 257.97 559.478C307.303 569.344 359.751 564.671 405.967 544.938C454.261 524.166 493.208 498.202 515.537 448.87C518.134 443.157 523.326 430.175 528 415.635C528 410.962 528 407.326 528 403.691Z" fill="#329693"/>
<path opacity="0.26" d="M349.365 264.003C325.997 246.347 280.3 271.273 260.047 285.294C227.852 307.623 190.982 360.071 213.311 401.095C233.044 437.445 281.338 435.887 313.015 420.828C344.172 406.288 369.617 387.074 384.676 355.398C401.294 320.605 398.178 271.273 349.365 264.003Z" fill="#60BFEE"/>
<path opacity="0.26" d="M271.472 280.62C234.602 291.525 197.214 377.727 262.125 372.015C327.555 366.822 319.766 258.81 271.472 280.62Z" fill="#60BFEE"/>
</g>
<path d="M125.807 847.082C125.807 847.082 124.618 847.082 122.242 847.082C121.103 847.082 119.915 847.049 118.678 846.984L117.604 908.02H124.098L125.807 847.082ZM155.396 841.076C156.992 841.304 158.863 841.418 161.012 841.418C165.243 841.418 169.475 840.848 173.707 839.709C173.837 839.644 174.163 839.611 174.684 839.611C175.204 839.611 175.693 839.872 176.148 840.393C176.637 840.881 176.881 841.418 176.881 842.004C176.881 843.371 176.311 844.217 175.172 844.543C172.698 845.227 170.436 845.715 168.385 846.008C169.915 855.318 170.68 864.156 170.68 872.521C170.68 884.761 169.817 897.814 168.092 911.682C167.701 913.146 166.887 913.879 165.65 913.879C164.446 913.879 163.632 913.358 163.209 912.316C160.637 906.099 156.894 898.514 151.979 889.562C147.063 880.578 143.564 874.214 141.48 870.471C137.867 864.09 134.303 857.808 130.787 851.623L129.322 908.215C131.178 908.345 133.733 908.54 136.988 908.801C137.639 908.898 138.176 909.191 138.6 909.68C139.055 910.168 139.283 910.77 139.283 911.486C139.283 912.17 139.007 912.74 138.453 913.195C137.9 913.651 137.314 913.879 136.695 913.879H136.5C126.116 912.837 115.846 912.837 105.689 913.879H105.494C104.778 913.879 104.16 913.618 103.639 913.098C103.15 912.609 102.906 912.04 102.906 911.389C102.906 910.738 103.118 910.168 103.541 909.68C103.997 909.191 104.68 908.898 105.592 908.801C106.536 908.703 107.61 908.605 108.814 908.508C110.051 908.41 111.272 908.312 112.477 908.215L113.6 846.594C110.8 846.398 107.968 846.105 105.104 845.715C104.452 845.617 103.915 845.324 103.492 844.836C103.102 844.315 102.906 843.697 102.906 842.98C102.906 842.264 103.199 841.695 103.785 841.271C104.371 840.816 104.941 840.588 105.494 840.588H105.787C113.014 841.532 119.752 842.004 126.002 842.004H129.615C130.559 842.004 131.194 842.264 131.52 842.785C131.845 843.273 132.366 844.136 133.082 845.373C133.798 846.61 134.726 848.221 135.865 850.207C137.005 852.193 138.307 854.488 139.771 857.092C141.269 859.696 142.848 862.479 144.508 865.441C146.201 868.404 147.926 871.48 149.684 874.67C151.441 877.86 153.167 881.034 154.859 884.191C158.928 891.743 162.005 897.652 164.088 901.916C165.097 891.76 165.602 882.922 165.602 875.402C165.602 865.604 164.837 855.936 163.307 846.398C162.883 846.464 162.477 846.496 162.086 846.496H160.816C156.389 846.496 153.899 846.187 153.346 845.568C152.792 844.917 152.516 844.25 152.516 843.566C152.516 842.883 152.776 842.297 153.297 841.809C153.85 841.32 154.452 841.076 155.104 841.076H155.396Z" fill="white"/>
<path d="M206.52 848.596C204.241 848.726 201.913 848.791 199.537 848.791V908.117C200.676 908.052 201.832 908.02 203.004 908.02C204.208 908.02 205.38 907.987 206.52 907.922V848.596ZM213.014 907.922C221.77 907.922 229.615 908.15 236.549 908.605L238.307 895.52C238.437 894.868 238.73 894.348 239.186 893.957C239.674 893.534 240.26 893.322 240.943 893.322C241.66 893.322 242.245 893.599 242.701 894.152C243.189 894.706 243.434 895.259 243.434 895.812V896.203L241.334 911.682C241.236 912.333 240.943 912.854 240.455 913.244C239.967 913.667 239.397 913.879 238.746 913.879H238.648C229.892 913.293 221.314 913 212.916 913C204.518 913 196.396 913.293 188.551 913.879H188.307C187.558 913.814 186.939 913.553 186.451 913.098C185.963 912.642 185.719 912.072 185.719 911.389C185.719 910.673 185.947 910.087 186.402 909.631C186.858 909.143 187.509 908.866 188.355 908.801C189.234 908.703 190.195 908.638 191.236 908.605C192.311 908.54 193.368 908.475 194.41 908.41V848.889C193.368 848.824 192.327 848.791 191.285 848.791H188.209C187.525 848.726 186.939 848.465 186.451 848.01C185.963 847.521 185.719 846.919 185.719 846.203C185.719 845.487 185.979 844.885 186.5 844.396C187.021 843.876 187.753 843.632 188.697 843.664C189.674 843.697 190.732 843.713 191.871 843.713H195.338C209.107 843.713 222.763 842.801 236.305 840.979H236.744C237.395 840.979 237.949 841.206 238.404 841.662C238.86 842.085 239.137 842.59 239.234 843.176L241.334 859.68V860.021C241.334 860.77 241.057 861.372 240.504 861.828C239.983 862.284 239.397 862.512 238.746 862.512C238.128 862.512 237.574 862.316 237.086 861.926C236.63 861.503 236.337 860.965 236.207 860.314L234.449 846.398C228.004 847.277 220.403 847.945 211.646 848.4V880.578C218.645 880.285 224.114 879.764 228.053 879.016H228.541C229.225 879.016 229.827 879.276 230.348 879.797C230.868 880.285 231.129 880.855 231.129 881.506C231.129 882.873 230.429 883.736 229.029 884.094C225.188 884.842 219.394 885.38 211.646 885.705V907.922H213.014Z" fill="white"/>
<path d="M273.854 846.398C271.119 846.529 268.743 846.691 266.725 846.887L265.65 908.02H272.145L273.854 846.398ZM277.857 887.609C279.876 888.13 282.398 888.391 285.426 888.391C288.453 888.391 291.513 887.951 294.605 887.072C297.73 886.161 300.465 884.826 302.809 883.068C307.952 879.26 310.523 874.003 310.523 867.297C310.523 857.987 305.494 851.737 295.436 848.547C291.725 847.342 287.363 846.626 282.35 846.398H278.932L277.857 887.609ZM284.547 913.879C274.163 912.837 263.893 912.837 253.736 913.879H253.541C252.825 913.879 252.206 913.618 251.686 913.098C251.197 912.609 250.953 912.04 250.953 911.389C250.953 910.738 251.165 910.168 251.588 909.68C252.044 909.191 252.727 908.898 253.639 908.801C254.583 908.703 255.657 908.605 256.861 908.508C258.098 908.41 259.319 908.312 260.523 908.215L261.646 847.619C259.238 848.01 257.447 848.4 256.275 848.791C255.136 849.182 254.452 849.426 254.225 849.523C253.997 849.589 253.639 849.621 253.15 849.621C252.695 849.621 252.206 849.344 251.686 848.791C251.197 848.238 250.953 847.668 250.953 847.082C250.953 845.812 251.49 844.982 252.564 844.592C259.303 842.346 267.766 841.223 277.955 841.223H280.152C280.934 841.223 282.219 841.271 284.01 841.369C285.8 841.434 288.062 841.695 290.797 842.15C293.531 842.606 296.135 843.306 298.609 844.25C301.083 845.161 303.346 846.301 305.396 847.668C307.48 849.035 309.286 850.663 310.816 852.551C314.039 856.587 315.65 861.503 315.65 867.297C315.65 875.337 312.33 881.848 305.689 886.828C299.7 891.288 292.75 893.518 284.84 893.518C282.073 893.518 279.713 893.273 277.76 892.785L277.369 908.215C279.225 908.345 281.78 908.54 285.035 908.801C285.686 908.898 286.223 909.191 286.646 909.68C287.102 910.168 287.33 910.77 287.33 911.486C287.33 912.17 287.053 912.74 286.5 913.195C285.947 913.651 285.361 913.879 284.742 913.879H284.547Z" fill="white"/>
<path d="M354.957 848.205C354.957 848.205 352.613 848.173 347.926 848.107L346.852 908.312C347.405 908.247 347.958 908.215 348.512 908.215C349.553 908.215 350.481 908.215 351.295 908.215C352.109 908.215 352.792 908.247 353.346 908.312L354.957 848.205ZM326.93 841.711C333.701 842.622 342.555 843.078 353.492 843.078C364.43 843.078 371.917 842.915 375.953 842.59H376.148C376.734 842.59 377.271 842.801 377.76 843.225C378.248 843.615 378.508 843.973 378.541 844.299C378.606 844.592 378.688 844.999 378.785 845.52C378.883 846.04 379.013 846.74 379.176 847.619C379.339 848.498 379.534 849.507 379.762 850.646C380.022 851.786 380.299 852.974 380.592 854.211C381.34 857.271 382.024 859.663 382.643 861.389L382.74 862.219C382.74 862.902 382.464 863.505 381.91 864.025C381.389 864.546 380.836 864.807 380.25 864.807C379.013 864.807 378.183 864.204 377.76 863C376.067 858.085 374.83 853.055 374.049 847.912C370.338 848.107 365.667 848.205 360.035 848.205L358.424 908.508C364.055 908.703 367.132 909.11 367.652 909.729C368.173 910.314 368.434 910.982 368.434 911.73C368.434 912.447 368.157 913.033 367.604 913.488C367.083 913.977 366.529 914.221 365.943 914.221H365.65C361.158 913.667 355.982 913.391 350.123 913.391C344.264 913.391 339.202 913.667 334.938 914.221H334.645C333.928 914.221 333.31 913.944 332.789 913.391C332.301 912.837 332.057 912.235 332.057 911.584C332.057 910.933 332.268 910.363 332.691 909.875C333.375 909.191 336.386 908.736 341.725 908.508L342.848 847.912C337.704 847.717 332.936 847.44 328.541 847.082C328.346 847.961 328.102 849.035 327.809 850.305C327.548 851.574 327.255 852.925 326.93 854.357C325.888 858.589 325.221 861.21 324.928 862.219C324.407 863.944 323.544 864.807 322.34 864.807C321.591 864.807 320.973 864.546 320.484 864.025C319.996 863.472 319.752 863 319.752 862.609V861.828C319.752 861.698 319.882 861.177 320.143 860.266C320.436 859.354 320.826 857.873 321.314 855.822C321.803 853.771 322.242 851.851 322.633 850.061C323.577 845.992 324.049 843.876 324.049 843.713C324.407 842.378 325.237 841.711 326.539 841.711H326.93Z" fill="white"/>
<path d="M401.246 848.596C399.846 856.994 399.146 865.995 399.146 875.598C399.146 888.195 400.986 897.31 404.664 902.941C407.203 906.75 410.605 909.273 414.869 910.51C409.824 904.553 407.057 896.105 406.568 885.168C406.438 882.173 406.373 879.243 406.373 876.379C406.373 867.004 407.008 857.743 408.277 848.596H401.246ZM439.625 901.477C441.025 898.71 442.066 895.454 442.75 891.711C443.434 887.967 443.775 882.743 443.775 876.037C443.775 869.299 443.043 859.924 441.578 847.912L433.375 848.596H433.082C432.366 848.596 431.764 848.335 431.275 847.814C430.787 847.261 430.543 846.659 430.543 846.008C430.543 845.357 430.755 844.787 431.178 844.299C431.633 843.811 432.187 843.518 432.838 843.42L454.273 841.711H454.469C455.152 841.711 455.738 841.971 456.227 842.492C456.715 842.98 456.959 843.566 456.959 844.25C456.959 844.934 456.731 845.52 456.275 846.008C455.852 846.464 455.315 846.724 454.664 846.789L446.656 847.424C448.089 860.087 448.854 870.845 448.951 879.699C448.495 895.227 444.638 905.773 437.379 911.34C433.082 914.66 427.548 916.32 420.777 916.32C413.616 916.32 407.854 914.009 403.492 909.387C397.145 902.681 393.971 891.353 393.971 875.402C393.971 865.702 394.671 856.766 396.07 848.596H390.26C389.511 848.596 388.893 848.352 388.404 847.863C387.916 847.342 387.672 846.724 387.672 846.008C387.672 845.292 387.916 844.689 388.404 844.201C388.893 843.68 389.511 843.42 390.26 843.42H420.875C421.559 843.42 422.161 843.68 422.682 844.201C423.202 844.689 423.463 845.292 423.463 846.008C423.463 846.724 423.202 847.342 422.682 847.863C422.161 848.352 421.559 848.596 420.875 848.596H413.453C412.118 857.124 411.451 866.467 411.451 876.623C411.451 899.149 416.415 910.412 426.344 910.412C432.138 910.412 436.565 907.434 439.625 901.477Z" fill="white"/>
<path d="M486.256 847.082C486.256 847.082 485.068 847.082 482.691 847.082C481.552 847.082 480.364 847.049 479.127 846.984L478.053 908.02H484.547L486.256 847.082ZM515.846 841.076C517.441 841.304 519.312 841.418 521.461 841.418C525.693 841.418 529.924 840.848 534.156 839.709C534.286 839.644 534.612 839.611 535.133 839.611C535.654 839.611 536.142 839.872 536.598 840.393C537.086 840.881 537.33 841.418 537.33 842.004C537.33 843.371 536.76 844.217 535.621 844.543C533.147 845.227 530.885 845.715 528.834 846.008C530.364 855.318 531.129 864.156 531.129 872.521C531.129 884.761 530.266 897.814 528.541 911.682C528.15 913.146 527.337 913.879 526.1 913.879C524.895 913.879 524.081 913.358 523.658 912.316C521.087 906.099 517.343 898.514 512.428 889.562C507.512 880.578 504.013 874.214 501.93 870.471C498.316 864.09 494.752 857.808 491.236 851.623L489.771 908.215C491.627 908.345 494.182 908.54 497.438 908.801C498.089 908.898 498.626 909.191 499.049 909.68C499.505 910.168 499.732 910.77 499.732 911.486C499.732 912.17 499.456 912.74 498.902 913.195C498.349 913.651 497.763 913.879 497.145 913.879H496.949C486.565 912.837 476.295 912.837 466.139 913.879H465.943C465.227 913.879 464.609 913.618 464.088 913.098C463.6 912.609 463.355 912.04 463.355 911.389C463.355 910.738 463.567 910.168 463.99 909.68C464.446 909.191 465.13 908.898 466.041 908.801C466.985 908.703 468.059 908.605 469.264 908.508C470.501 908.41 471.721 908.312 472.926 908.215L474.049 846.594C471.249 846.398 468.417 846.105 465.553 845.715C464.902 845.617 464.365 845.324 463.941 844.836C463.551 844.315 463.355 843.697 463.355 842.98C463.355 842.264 463.648 841.695 464.234 841.271C464.82 840.816 465.39 840.588 465.943 840.588H466.236C473.463 841.532 480.201 842.004 486.451 842.004H490.064C491.008 842.004 491.643 842.264 491.969 842.785C492.294 843.273 492.815 844.136 493.531 845.373C494.247 846.61 495.175 848.221 496.314 850.207C497.454 852.193 498.756 854.488 500.221 857.092C501.718 859.696 503.297 862.479 504.957 865.441C506.65 868.404 508.375 871.48 510.133 874.67C511.891 877.86 513.616 881.034 515.309 884.191C519.378 891.743 522.454 897.652 524.537 901.916C525.546 891.76 526.051 882.922 526.051 875.402C526.051 865.604 525.286 855.936 523.756 846.398C523.333 846.464 522.926 846.496 522.535 846.496H521.266C516.839 846.496 514.348 846.187 513.795 845.568C513.242 844.917 512.965 844.25 512.965 843.566C512.965 842.883 513.225 842.297 513.746 841.809C514.299 841.32 514.902 841.076 515.553 841.076H515.846Z" fill="white"/>
<path d="M566.969 848.596C564.69 848.726 562.363 848.791 559.986 848.791V908.117C561.126 908.052 562.281 908.02 563.453 908.02C564.658 908.02 565.829 907.987 566.969 907.922V848.596ZM573.463 907.922C582.219 907.922 590.064 908.15 596.998 908.605L598.756 895.52C598.886 894.868 599.179 894.348 599.635 893.957C600.123 893.534 600.709 893.322 601.393 893.322C602.109 893.322 602.695 893.599 603.15 894.152C603.639 894.706 603.883 895.259 603.883 895.812V896.203L601.783 911.682C601.686 912.333 601.393 912.854 600.904 913.244C600.416 913.667 599.846 913.879 599.195 913.879H599.098C590.341 913.293 581.764 913 573.365 913C564.967 913 556.845 913.293 549 913.879H548.756C548.007 913.814 547.389 913.553 546.9 913.098C546.412 912.642 546.168 912.072 546.168 911.389C546.168 910.673 546.396 910.087 546.852 909.631C547.307 909.143 547.958 908.866 548.805 908.801C549.684 908.703 550.644 908.638 551.686 908.605C552.76 908.54 553.818 908.475 554.859 908.41V848.889C553.818 848.824 552.776 848.791 551.734 848.791H548.658C547.975 848.726 547.389 848.465 546.9 848.01C546.412 847.521 546.168 846.919 546.168 846.203C546.168 845.487 546.428 844.885 546.949 844.396C547.47 843.876 548.202 843.632 549.146 843.664C550.123 843.697 551.181 843.713 552.32 843.713H555.787C569.557 843.713 583.212 842.801 596.754 840.979H597.193C597.844 840.979 598.398 841.206 598.854 841.662C599.309 842.085 599.586 842.59 599.684 843.176L601.783 859.68V860.021C601.783 860.77 601.507 861.372 600.953 861.828C600.432 862.284 599.846 862.512 599.195 862.512C598.577 862.512 598.023 862.316 597.535 861.926C597.079 861.503 596.786 860.965 596.656 860.314L594.898 846.398C588.453 847.277 580.852 847.945 572.096 848.4V880.578C579.094 880.285 584.563 879.764 588.502 879.016H588.99C589.674 879.016 590.276 879.276 590.797 879.797C591.318 880.285 591.578 880.855 591.578 881.506C591.578 882.873 590.878 883.736 589.479 884.094C585.637 884.842 579.843 885.38 572.096 885.705V907.922H573.463Z" fill="white"/>
<defs>
<filter id="filter0_f_6_544" x="157.792" y="222.832" width="430.417" height="430.351" filterUnits="userSpaceOnUse" color-interpolation-filters="sRGB">
<feFlood flood-opacity="0" result="BackgroundImageFix"/>
<feBlend mode="normal" in="SourceGraphic" in2="BackgroundImageFix" result="shape"/>
<feGaussianBlur stdDeviation="20" result="effect1_foregroundBlur_6_544"/>
</filter>
<clipPath id="clip0_6_544">
<rect width="350" height="350" fill="white" transform="translate(178 237)"/>
</clipPath>
</defs>
</svg>
