<svg width="706" height="1000" viewBox="0 0 706 1000" fill="none" xmlns="http://www.w3.org/2000/svg">
<path d="M706 0H0V1000H706V0Z" fill="#191919"/>
<g filter="url(#filter0_f_1_881)">
<path d="M396.422 291.402C387.447 276.444 374.983 261.986 357.034 257.997C331.607 252.513 327.12 272.954 313.16 276.444C274.769 286.915 270.282 292.897 233.388 325.305C204.47 350.732 190.51 394.607 202.974 431.003C208.459 447.954 188.516 448.952 195.496 462.413C203.972 480.362 194 488.339 199.983 506.786C202.476 514.265 219.427 515.262 223.915 522.741C228.402 530.718 221.92 545.177 227.405 555.148C235.88 570.604 266.294 585.561 283.245 585.561C300.197 640.405 349.057 602.513 381.464 600.02C397.917 598.524 409.883 612.484 426.835 611.487C457.747 608.994 454.256 589.55 473.701 571.601C491.151 555.647 516.578 560.134 524.556 528.724C528.046 515.761 515.083 506.288 517.077 496.316C519.071 484.849 531.536 483.852 534.527 473.88C543.003 447.456 557.96 368.681 518.074 362.199C514.086 316.33 446.778 262.983 396.422 291.402Z" fill="black"/>
<path opacity="0.5" d="M242.362 490.832C224.413 517.256 236.877 564.621 270.282 570.105C288.729 573.097 295.709 553.652 313.658 560.632C323.131 564.122 318.145 586.558 336.094 593.04C349.057 598.026 368.003 585.063 381.464 584.065C398.416 583.068 409.883 591.544 428.33 585.561C460.738 574.593 476.692 526.729 441.293 509.778C409.883 494.82 371.493 564.621 361.521 514.265C349.057 516.259 343.074 511.772 333.103 520.746C326.122 499.806 306.179 485.846 287.732 501.801C295.709 440.476 224.912 444.464 242.362 490.832Z" fill="black"/>
<path opacity="0.5" d="M441.792 351.729C427.333 253.011 315.154 328.795 342.576 363.197C303.188 365.689 347.561 416.544 380.966 401.088C349.057 467.399 490.154 471.886 457.248 397.598C504.613 399.593 478.687 314.336 434.314 359.208L441.792 351.729Z" fill="black"/>
<path opacity="0.5" d="M204.969 411.558C208.957 425.02 218.929 433.496 231.393 425.02C247.348 414.55 232.39 397.1 235.88 385.632C247.846 348.738 277.262 371.174 296.707 338.766C324.128 292.399 274.769 312.84 253.331 324.806C221.92 342.755 206.963 357.712 208.459 400.59L204.969 411.558Z" fill="black"/>
<path opacity="0.5" d="M419.356 378.154C357.034 349.735 476.692 269.963 465.225 373.667C495.14 368.182 512.091 398.595 496.137 423.524C524.057 438.481 503.615 485.846 491.151 507.783C469.214 546.174 426.336 561.63 383.459 553.154C341.578 544.678 298.701 508.781 306.18 461.416C311.165 428.51 345.068 404.08 373.986 431.003C382.462 425.519 390.937 420.034 399.912 415.048C386.45 396.601 394.926 381.644 419.356 378.154Z" fill="black"/>
<path opacity="0.5" d="M469.214 508.282C492.647 489.336 501.123 481.359 498.131 449.949C495.14 417.541 494.641 423.524 471.707 415.547C461.735 412.057 437.305 429.507 431.322 407.071C427.333 392.613 463.231 382.142 471.208 366.687C486.165 337.271 461.735 299.877 426.835 298.88C408.388 298.382 403.402 308.852 388.445 306.858C378.473 305.362 371.992 287.413 352.547 290.903C350.054 246.031 287.732 312.342 283.744 346.245C274.271 348.738 266.294 357.214 265.296 370.177C224.912 366.188 217.932 426.516 260.311 427.513C249.841 458.424 280.752 476.872 300.197 443.966C308.672 429.507 295.211 414.55 298.202 400.59C300.197 391.615 312.661 378.652 317.148 370.675C309.171 393.61 357.034 353.225 371.992 340.761C369.997 346.744 371.992 354.222 370.496 359.208C385.453 354.721 404.898 355.718 421.849 356.217C423.843 363.197 423.843 378.652 421.849 385.134C407.889 386.63 379.47 405.077 383.957 423.026C387.447 436.986 406.892 427.014 410.88 435.49C430.823 474.877 374.983 456.43 359.527 492.826C342.077 534.707 388.445 551.16 421.849 554.151C439.798 555.647 466.222 559.635 478.687 543.182C491.65 526.729 488.16 507.783 469.214 508.282Z" fill="black"/>
<path opacity="0.27" d="M534.029 473.88C542.504 447.456 557.462 368.681 517.576 362.199C514.086 316.331 446.778 262.983 396.422 291.402C394.926 288.909 393.43 286.416 391.935 284.422C400.41 304.863 430.325 325.305 441.293 341.259C432.818 349.735 425.838 362.199 423.345 373.667C436.308 382.641 450.268 387.128 463.729 394.108C460.239 397.598 457.248 408.068 452.761 412.057C468.715 425.519 480.182 434.493 486.165 456.929C491.151 476.373 485.667 534.208 462.732 541.687C429.328 552.655 442.789 504.792 423.345 497.313C399.413 488.339 381.464 516.259 384.954 538.695C361.521 520.746 365.51 550.162 352.048 554.65C337.59 559.635 321.137 559.137 305.182 555.647C282.746 550.661 265.795 541.188 241.365 538.695C235.382 538.197 230.396 540.689 225.41 543.182C225.41 547.67 225.41 552.157 227.405 555.647C235.88 571.103 266.293 586.06 283.245 586.06C300.197 640.903 349.057 603.011 381.464 600.519C397.917 599.023 409.883 612.983 426.835 611.986C457.746 609.493 454.256 590.048 473.701 572.1C491.151 556.145 516.578 560.632 524.556 529.222C528.046 516.259 515.083 506.786 517.077 496.815C518.573 484.849 531.037 483.852 534.029 473.88Z" fill="black"/>
<path opacity="0.17" d="M304.684 528.225C268.288 572.1 376.479 623.952 409.883 580.576C427.832 594.037 449.271 589.55 466.222 577.085C490.652 559.635 478.188 545.177 488.658 524.236C504.114 491.829 549.484 467.399 515.581 424.023C545.994 400.59 514.085 342.256 489.655 327.798C454.256 306.858 374.983 320.319 419.356 379.65C433.316 398.595 455.752 392.613 457.746 418.04C460.239 444.963 427.832 448.453 447.276 482.356C459.242 503.296 492.647 496.316 454.755 525.732C435.809 540.191 402.903 525.732 404.897 562.128C376.977 536.202 368.501 525.732 304.684 528.225Z" fill="black"/>
<path opacity="0.4" d="M317.647 381.644C334.598 366.687 340.083 343.752 335.596 322.313C311.664 310.846 287.732 342.755 286.735 366.687C267.291 350.234 255.325 373.168 252.832 393.111C225.909 380.148 213.943 450.447 275.268 446.459C280.752 467.897 302.69 471.886 312.661 450.447C337.091 495.818 384.955 395.105 317.148 385.632V381.644H317.647Z" fill="black"/>
<path opacity="0.68" d="M252.333 319.322C237.376 326.801 222.917 335.276 214.442 350.732C203.473 370.675 199.983 397.1 198.487 419.536C198.487 422.527 202.476 423.026 203.473 420.034C215.439 386.131 210.453 351.729 245.852 331.288C257.319 324.806 269.285 318.325 282.248 315.333C291.222 313.339 301.194 314.835 299.698 326.801C298.701 334.778 291.222 340.761 284.741 344.749C270.781 354.721 247.348 358.709 237.376 373.667C231.892 382.142 230.396 393.111 228.402 402.584C226.906 410.063 225.41 433.496 213.943 428.011C212.946 427.513 211.45 428.51 211.949 430.006C224.912 453.937 236.877 391.117 237.875 387.128C247.846 356.217 297.205 362.199 305.681 329.792C315.652 292.897 266.792 311.843 252.333 319.322Z" fill="black"/>
<path opacity="0.68" d="M373.986 356.217C373.986 352.228 373.487 348.239 373.487 344.251C373.487 341.758 370.994 339.265 368.003 340.262C360.026 343.254 355.04 347.242 353.544 355.718C353.046 359.208 357.034 360.704 359.029 358.211C360.524 355.718 363.017 353.225 365.012 351.729C365.012 355.219 365.51 358.211 365.012 361.701C364.513 364.692 368.003 366.188 370.496 365.689C381.963 364.194 432.818 353.225 419.855 378.154C412.376 392.613 395.425 384.635 384.955 394.607C381.963 397.598 381.465 400.59 379.47 404.08C378.473 405.576 378.972 408.567 377.974 410.063C372.49 417.541 369.499 411.558 369 405.576C369 404.08 368.003 402.584 366.507 402.584C352.049 400.091 319.143 397.598 332.106 375.162C333.103 373.667 331.108 372.67 330.111 373.667C322.134 380.647 320.14 388.624 328.616 396.103C333.103 400.091 340.083 402.085 345.567 404.08C349.057 405.077 353.544 405.576 357.034 407.071C363.516 410.063 363.017 407.57 363.017 417.043C363.017 418.538 364.014 420.034 365.51 420.034C371.493 421.031 377.476 422.527 382.462 418.04C389.442 411.558 385.952 402.584 397.419 398.595C406.393 395.604 414.869 398.097 422.348 391.117C426.835 386.63 431.322 377.157 431.322 370.177C430.325 345.746 392.932 353.225 373.986 356.217Z" fill="black"/>
<path opacity="0.68" d="M315.652 493.325C315.154 491.33 313.16 489.835 311.165 489.835C304.185 490.832 297.205 492.328 290.225 493.325C293.217 472.385 284.242 451.444 258.815 455.433C245.353 457.427 218.43 480.362 238.373 492.826C239.37 493.325 240.368 492.826 240.368 491.829C240.368 485.348 237.875 479.863 241.863 473.382C245.353 467.399 253.331 464.407 259.812 463.41C281.749 460.419 284.741 480.86 280.254 497.812C279.755 500.305 281.749 504.293 284.741 503.795C292.718 502.798 300.197 501.302 308.174 499.806C310.667 510.276 307.675 518.752 298.202 525.732C296.208 527.228 294.712 529.721 296.707 532.214C305.681 545.675 283.744 557.641 273.274 559.635C265.296 561.131 257.319 560.134 251.336 554.151C242.362 545.177 245.353 532.214 241.863 521.245C240.866 518.752 237.875 518.752 236.878 521.245C225.909 547.171 249.342 574.094 275.766 568.61C291.222 565.12 314.655 549.165 306.678 531.217C317.148 521.245 320.638 508.781 315.652 493.325Z" fill="black"/>
<path opacity="0.68" d="M376.479 271.957C370.994 264.977 356.037 258.496 350.054 268.467C349.057 269.464 350.553 270.96 351.55 270.96C355.539 271.459 359.527 269.963 364.014 270.96C367.504 271.957 370.496 274.45 372.49 277.94C377.476 285.917 372.49 293.895 364.513 296.886C356.037 299.877 340.581 300.376 337.091 289.906C333.601 280.433 344.57 275.946 352.048 275.447C353.046 275.447 354.043 273.453 352.547 272.954C343.573 270.96 334.1 273.453 331.607 283.424C329.613 292.399 336.094 300.376 344.071 303.368C354.541 306.858 369.997 305.362 377.476 296.387C382.462 288.909 381.963 278.937 376.479 271.957Z" fill="black"/>
<path opacity="0.68" d="M497.632 387.627C496.635 386.63 495.14 388.125 495.14 389.621C496.635 394.607 499.627 399.094 500.624 404.08C501.621 407.57 502.618 425.02 495.638 424.521C493.145 424.521 489.655 418.538 486.165 417.541C471.706 414.55 449.769 432 439.798 413.553C438.801 412.057 436.806 413.054 437.305 414.55C438.801 425.02 448.772 427.513 458.245 427.014C464.726 427.014 471.208 425.02 477.689 424.023C485.168 422.527 485.168 423.524 490.652 427.513C496.635 432 500.624 430.504 504.114 424.023C510.595 412.556 508.103 396.103 497.632 387.627Z" fill="black"/>
<path opacity="0.68" d="M533.53 412.057C534.029 395.604 538.516 377.655 518.074 371.174C514.584 370.177 512.091 375.162 515.581 377.157C522.561 381.644 527.049 389.123 527.049 397.598C527.049 402.584 523.559 407.071 523.559 411.558C523.559 416.046 525.054 419.536 526.051 424.521C528.046 440.476 520.068 455.932 523.559 472.385C524.057 473.88 525.553 473.382 526.051 472.385C530.04 459.92 533.031 446.459 534.527 433.496C535.026 426.017 533.031 419.037 533.53 412.057Z" fill="black"/>
<path opacity="0.68" d="M464.727 302.37C459.741 299.379 454.257 300.875 448.772 301.373C443.786 301.373 439.798 300.875 435.311 297.883C433.316 296.387 431.821 294.393 429.826 292.897C424.342 290.405 419.356 293.895 414.869 297.385C413.373 298.88 415.368 301.373 416.863 300.376C426.835 294.892 427.333 299.877 433.815 304.365C436.806 306.359 440.296 307.356 444.285 307.855C448.274 308.353 453.259 306.858 457.248 307.356C463.729 308.353 466.222 315.832 470.211 320.319C471.208 321.316 472.704 320.319 472.704 319.322C473.701 312.342 470.71 305.86 464.727 302.37Z" fill="black"/>
<path opacity="0.68" d="M334.598 606.003C332.105 604.009 330.111 603.51 327.12 603.51C322.134 603.011 320.14 602.014 316.65 598.524C315.652 597.527 313.16 597.527 312.162 598.524C308.672 602.513 304.185 606.003 300.695 600.02C298.701 596.53 298.202 591.544 299.698 587.556C300.197 586.558 298.202 585.561 297.704 586.558C294.214 593.04 291.721 600.519 298.202 606.501C303.687 611.487 309.67 608.994 314.655 605.006C320.14 609.991 326.621 610.49 334.598 608.496C335.595 608.496 335.595 607 334.598 606.003Z" fill="black"/>
<path opacity="0.68" d="M209.955 475.376C209.456 469.892 209.955 463.41 208.957 457.926C208.957 457.427 206.464 451.943 206.464 451.943C206.464 451.943 206.464 451.444 205.966 451.444C201.479 456.929 202.476 461.416 202.476 468.895C202.974 481.359 201.479 494.821 204.47 507.285C204.969 508.781 206.464 508.781 207.462 507.784C213.445 499.308 210.453 484.849 209.955 475.376Z" fill="black"/>
<path opacity="0.68" d="M438.302 501.302C429.826 458.425 365.011 498.809 383.957 524.735C383.957 525.234 384.456 524.735 384.955 524.735C385.453 508.282 400.41 483.852 421.351 488.339C434.812 491.331 432.818 506.786 434.812 516.758C437.804 530.219 445.781 545.177 438.302 558.638C431.821 570.604 412.875 580.576 399.912 578.083C397.419 577.584 395.923 581.074 397.917 582.071C412.376 590.048 432.818 576.587 441.792 565.12C455.254 546.672 442.291 521.245 438.302 501.302Z" fill="black"/>
</g>
<g clip-path="url(#clip0_1_881)">
<path d="M380.422 267.402C371.447 252.444 358.983 237.986 341.034 233.997C315.607 228.513 311.12 248.954 297.16 252.444C258.769 262.915 254.282 268.897 217.388 301.305C188.47 326.732 174.51 370.607 186.974 407.003C192.459 423.954 172.516 424.952 179.496 438.413C187.972 456.362 178 464.339 183.983 482.786C186.476 490.265 203.427 491.262 207.915 498.741C212.402 506.718 205.92 521.177 211.405 531.148C219.88 546.604 250.294 561.561 267.245 561.561C284.197 616.405 333.057 578.513 365.464 576.02C381.917 574.524 393.883 588.484 410.835 587.487C441.747 584.994 438.256 565.55 457.701 547.601C475.151 531.647 500.578 536.134 508.556 504.724C512.046 491.761 499.083 482.288 501.077 472.316C503.071 460.849 515.536 459.852 518.527 449.88C527.003 423.456 541.96 344.681 502.074 338.199C498.086 292.33 430.778 238.983 380.422 267.402Z" fill="#CCB672"/>
<path opacity="0.5" d="M226.362 466.832C208.413 493.256 220.877 540.621 254.282 546.105C272.729 549.097 279.709 529.652 297.658 536.632C307.131 540.122 302.145 562.558 320.094 569.04C333.057 574.026 352.003 561.063 365.464 560.065C382.416 559.068 393.883 567.544 412.33 561.561C444.738 550.593 460.692 502.729 425.293 485.778C393.883 470.82 355.493 540.621 345.521 490.265C333.057 492.259 327.074 487.772 317.103 496.746C310.122 475.806 290.179 461.846 271.732 477.801C279.709 416.476 208.912 420.464 226.362 466.832Z" fill="#655538"/>
<path opacity="0.5" d="M425.792 327.729C411.333 229.011 299.154 304.795 326.576 339.197C287.188 341.689 331.561 392.544 364.966 377.088C333.057 443.399 474.154 447.886 441.248 373.598C488.613 375.593 462.687 290.336 418.314 335.208L425.792 327.729Z" fill="#655538"/>
<path opacity="0.5" d="M188.969 387.558C192.957 401.02 202.929 409.496 215.393 401.02C231.348 390.55 216.39 373.1 219.88 361.632C231.846 324.738 261.262 347.174 280.707 314.766C308.128 268.399 258.769 288.84 237.331 300.806C205.92 318.755 190.963 333.712 192.459 376.59L188.969 387.558Z" fill="#655538"/>
<path opacity="0.5" d="M403.356 354.154C341.034 325.735 460.692 245.963 449.225 349.667C479.14 344.182 496.091 374.595 480.137 399.524C508.057 414.481 487.615 461.846 475.151 483.783C453.214 522.174 410.336 537.63 367.459 529.154C325.578 520.678 282.701 484.781 290.18 437.416C295.165 404.51 329.068 380.08 357.986 407.003C366.462 401.519 374.937 396.034 383.912 391.048C370.45 372.601 378.926 357.644 403.356 354.154Z" fill="#655538"/>
<path opacity="0.5" d="M453.214 484.282C476.647 465.336 485.123 457.359 482.131 425.949C479.14 393.541 478.641 399.524 455.707 391.547C445.735 388.057 421.305 405.507 415.322 383.071C411.333 368.613 447.231 358.142 455.208 342.687C470.165 313.271 445.735 275.877 410.835 274.88C392.388 274.382 387.402 284.852 372.445 282.858C362.473 281.362 355.992 263.413 336.547 266.903C334.054 222.031 271.732 288.342 267.744 322.245C258.271 324.738 250.294 333.214 249.296 346.177C208.912 342.188 201.932 402.516 244.311 403.513C233.841 434.424 264.752 452.872 284.197 419.966C292.672 405.507 279.211 390.55 282.202 376.59C284.197 367.615 296.661 354.652 301.148 346.675C293.171 369.61 341.034 329.225 355.992 316.761C353.997 322.744 355.992 330.222 354.496 335.208C369.453 330.721 388.898 331.718 405.849 332.217C407.843 339.197 407.843 354.652 405.849 361.134C391.889 362.63 363.47 381.077 367.957 399.026C371.447 412.986 390.892 403.014 394.88 411.49C414.823 450.877 358.983 432.43 343.527 468.826C326.077 510.707 372.445 527.16 405.849 530.151C423.798 531.647 450.222 535.635 462.687 519.182C475.65 502.729 472.16 483.783 453.214 484.282Z" fill="#E3DBB1"/>
<path opacity="0.27" d="M518.029 449.88C526.504 423.456 541.462 344.681 501.576 338.199C498.086 292.331 430.778 238.983 380.422 267.402C378.926 264.909 377.43 262.416 375.935 260.422C384.41 280.863 414.325 301.305 425.293 317.259C416.818 325.735 409.838 338.199 407.345 349.667C420.308 358.641 434.268 363.128 447.729 370.108C444.239 373.598 441.248 384.068 436.761 388.057C452.715 401.519 464.182 410.493 470.165 432.929C475.151 452.373 469.667 510.208 446.732 517.687C413.328 528.655 426.789 480.792 407.345 473.313C383.413 464.339 365.464 492.259 368.954 514.695C345.521 496.746 349.51 526.162 336.048 530.65C321.59 535.635 305.137 535.137 289.182 531.647C266.746 526.661 249.795 517.188 225.365 514.695C219.382 514.197 214.396 516.689 209.41 519.182C209.41 523.67 209.41 528.157 211.405 531.647C219.88 547.103 250.293 562.06 267.245 562.06C284.197 616.903 333.057 579.011 365.464 576.519C381.917 575.023 393.883 588.983 410.835 587.986C441.746 585.493 438.256 566.048 457.701 548.1C475.151 532.145 500.578 536.632 508.556 505.222C512.046 492.259 499.083 482.786 501.077 472.815C502.573 460.849 515.037 459.852 518.029 449.88Z" fill="#21004C"/>
<path opacity="0.17" d="M288.684 504.225C252.288 548.1 360.479 599.952 393.883 556.576C411.832 570.037 433.271 565.55 450.222 553.085C474.652 535.635 462.188 521.177 472.658 500.236C488.114 467.829 533.484 443.399 499.581 400.023C529.994 376.59 498.085 318.256 473.655 303.798C438.256 282.858 358.983 296.319 403.356 355.65C417.316 374.595 439.752 368.613 441.746 394.04C444.239 420.963 411.832 424.453 431.276 458.356C443.242 479.296 476.647 472.316 438.755 501.732C419.809 516.191 386.903 501.732 388.897 538.128C360.977 512.202 352.501 501.732 288.684 504.225Z" fill="#21004C"/>
<path opacity="0.4" d="M301.647 357.644C318.598 342.687 324.083 319.752 319.596 298.313C295.664 286.846 271.732 318.755 270.735 342.687C251.291 326.234 239.325 349.168 236.832 369.111C209.909 356.148 197.943 426.447 259.268 422.459C264.752 443.897 286.69 447.886 296.661 426.447C321.091 471.818 368.955 371.105 301.148 361.632V357.644H301.647Z" fill="#FFE4A1"/>
<path opacity="0.68" d="M236.333 295.322C221.376 302.801 206.917 311.276 198.442 326.732C187.473 346.675 183.983 373.1 182.487 395.536C182.487 398.527 186.476 399.026 187.473 396.034C199.439 362.131 194.453 327.729 229.852 307.288C241.319 300.806 253.285 294.325 266.248 291.333C275.222 289.339 285.194 290.835 283.698 302.801C282.701 310.778 275.222 316.761 268.741 320.749C254.781 330.721 231.348 334.709 221.376 349.667C215.892 358.142 214.396 369.111 212.402 378.584C210.906 386.063 209.41 409.496 197.943 404.011C196.946 403.513 195.45 404.51 195.949 406.006C208.912 429.937 220.877 367.117 221.875 363.128C231.846 332.217 281.205 338.199 289.681 305.792C299.652 268.897 250.792 287.843 236.333 295.322Z" fill="#E6D4A3"/>
<path opacity="0.68" d="M357.986 332.217C357.986 328.228 357.487 324.239 357.487 320.251C357.487 317.758 354.994 315.265 352.003 316.262C344.026 319.254 339.04 323.242 337.544 331.718C337.046 335.208 341.034 336.704 343.029 334.211C344.524 331.718 347.017 329.225 349.012 327.729C349.012 331.219 349.51 334.211 349.012 337.701C348.513 340.692 352.003 342.188 354.496 341.689C365.963 340.194 416.818 329.225 403.855 354.154C396.376 368.613 379.425 360.635 368.955 370.607C365.963 373.598 365.465 376.59 363.47 380.08C362.473 381.576 362.972 384.567 361.974 386.063C356.49 393.541 353.499 387.558 353 381.576C353 380.08 352.003 378.584 350.507 378.584C336.049 376.091 303.143 373.598 316.106 351.162C317.103 349.667 315.108 348.67 314.111 349.667C306.134 356.647 304.14 364.624 312.616 372.103C317.103 376.091 324.083 378.085 329.567 380.08C333.057 381.077 337.544 381.576 341.034 383.071C347.516 386.063 347.017 383.57 347.017 393.043C347.017 394.538 348.014 396.034 349.51 396.034C355.493 397.031 361.476 398.527 366.462 394.04C373.442 387.558 369.952 378.584 381.419 374.595C390.393 371.604 398.869 374.097 406.348 367.117C410.835 362.63 415.322 353.157 415.322 346.177C414.325 321.746 376.932 329.225 357.986 332.217Z" fill="#E6D4A3"/>
<path opacity="0.68" d="M299.652 469.325C299.154 467.33 297.16 465.835 295.165 465.835C288.185 466.832 281.205 468.328 274.225 469.325C277.217 448.385 268.242 427.444 242.815 431.433C229.353 433.427 202.43 456.362 222.373 468.826C223.37 469.325 224.368 468.826 224.368 467.829C224.368 461.348 221.875 455.863 225.863 449.382C229.353 443.399 237.331 440.407 243.812 439.41C265.749 436.419 268.741 456.86 264.254 473.812C263.755 476.305 265.749 480.293 268.741 479.795C276.718 478.798 284.197 477.302 292.174 475.806C294.667 486.276 291.675 494.752 282.202 501.732C280.208 503.228 278.712 505.721 280.707 508.214C289.681 521.675 267.744 533.641 257.274 535.635C249.296 537.131 241.319 536.134 235.336 530.151C226.362 521.177 229.353 508.214 225.863 497.245C224.866 494.752 221.875 494.752 220.878 497.245C209.909 523.171 233.342 550.094 259.766 544.61C275.222 541.12 298.655 525.165 290.678 507.217C301.148 497.245 304.638 484.781 299.652 469.325Z" fill="#E6D4A3"/>
<path opacity="0.68" d="M360.479 247.957C354.994 240.977 340.037 234.496 334.054 244.467C333.057 245.464 334.553 246.96 335.55 246.96C339.539 247.459 343.527 245.963 348.014 246.96C351.504 247.957 354.496 250.45 356.49 253.94C361.476 261.917 356.49 269.895 348.513 272.886C340.037 275.877 324.581 276.376 321.091 265.906C317.601 256.433 328.57 251.946 336.048 251.447C337.046 251.447 338.043 249.453 336.547 248.954C327.573 246.96 318.1 249.453 315.607 259.424C313.613 268.399 320.094 276.376 328.071 279.368C338.541 282.858 353.997 281.362 361.476 272.387C366.462 264.909 365.963 254.937 360.479 247.957Z" fill="#E6D4A3"/>
<path opacity="0.68" d="M481.632 363.627C480.635 362.63 479.14 364.125 479.14 365.621C480.635 370.607 483.627 375.094 484.624 380.08C485.621 383.57 486.618 401.02 479.638 400.521C477.145 400.521 473.655 394.538 470.165 393.541C455.706 390.55 433.769 408 423.798 389.553C422.801 388.057 420.806 389.054 421.305 390.55C422.801 401.02 432.772 403.513 442.245 403.014C448.726 403.014 455.208 401.02 461.689 400.023C469.168 398.527 469.168 399.524 474.652 403.513C480.635 408 484.624 406.504 488.114 400.023C494.595 388.556 492.103 372.103 481.632 363.627Z" fill="#E6D4A3"/>
<path opacity="0.68" d="M517.53 388.057C518.029 371.604 522.516 353.655 502.074 347.174C498.584 346.177 496.091 351.162 499.581 353.157C506.561 357.644 511.049 365.123 511.049 373.598C511.049 378.584 507.559 383.071 507.559 387.558C507.559 392.046 509.054 395.536 510.051 400.521C512.046 416.476 504.068 431.932 507.559 448.385C508.057 449.88 509.553 449.382 510.051 448.385C514.04 435.92 517.031 422.459 518.527 409.496C519.026 402.017 517.031 395.037 517.53 388.057Z" fill="#E6D4A3"/>
<path opacity="0.68" d="M448.727 278.37C443.741 275.379 438.257 276.875 432.772 277.373C427.786 277.373 423.798 276.875 419.311 273.883C417.316 272.387 415.821 270.393 413.826 268.897C408.342 266.405 403.356 269.895 398.869 273.385C397.373 274.88 399.368 277.373 400.863 276.376C410.835 270.892 411.333 275.877 417.815 280.365C420.806 282.359 424.296 283.356 428.285 283.855C432.274 284.353 437.259 282.858 441.248 283.356C447.729 284.353 450.222 291.832 454.211 296.319C455.208 297.316 456.704 296.319 456.704 295.322C457.701 288.342 454.71 281.86 448.727 278.37Z" fill="#E6D4A3"/>
<path opacity="0.68" d="M318.598 582.003C316.105 580.009 314.111 579.51 311.12 579.51C306.134 579.011 304.14 578.014 300.65 574.524C299.652 573.527 297.16 573.527 296.162 574.524C292.672 578.513 288.185 582.003 284.695 576.02C282.701 572.53 282.202 567.544 283.698 563.556C284.197 562.558 282.202 561.561 281.704 562.558C278.214 569.04 275.721 576.519 282.202 582.501C287.687 587.487 293.67 584.994 298.655 581.006C304.14 585.991 310.621 586.49 318.598 584.496C319.595 584.496 319.595 583 318.598 582.003Z" fill="#E6D4A3"/>
<path opacity="0.68" d="M193.955 451.376C193.456 445.892 193.955 439.41 192.957 433.926C192.957 433.427 190.464 427.943 190.464 427.943C190.464 427.943 190.464 427.444 189.966 427.444C185.479 432.929 186.476 437.416 186.476 444.895C186.974 457.359 185.479 470.821 188.47 483.285C188.969 484.781 190.464 484.781 191.462 483.784C197.445 475.308 194.453 460.849 193.955 451.376Z" fill="#E6D4A3"/>
<path opacity="0.68" d="M422.302 477.302C413.826 434.425 349.011 474.809 367.957 500.735C367.957 501.234 368.456 500.735 368.955 500.735C369.453 484.282 384.41 459.852 405.351 464.339C418.812 467.331 416.818 482.786 418.812 492.758C421.804 506.219 429.781 521.177 422.302 534.638C415.821 546.604 396.875 556.576 383.912 554.083C381.419 553.584 379.923 557.074 381.917 558.071C396.376 566.048 416.818 552.587 425.792 541.12C439.254 522.672 426.291 497.245 422.302 477.302Z" fill="#E6D4A3"/>
</g>
<path d="M201.807 849.398C199.072 849.529 196.696 849.691 194.678 849.887L193.604 911.02H200.098L201.807 849.398ZM205.811 890.609C207.829 891.13 210.352 891.391 213.379 891.391C216.406 891.391 219.466 890.951 222.559 890.072C225.684 889.161 228.418 887.826 230.762 886.068C235.905 882.26 238.477 877.003 238.477 870.297C238.477 860.987 233.447 854.737 223.389 851.547C219.678 850.342 215.316 849.626 210.303 849.398H206.885L205.811 890.609ZM212.5 916.879C202.116 915.837 191.846 915.837 181.689 916.879H181.494C180.778 916.879 180.16 916.618 179.639 916.098C179.15 915.609 178.906 915.04 178.906 914.389C178.906 913.738 179.118 913.168 179.541 912.68C179.997 912.191 180.68 911.898 181.592 911.801C182.536 911.703 183.61 911.605 184.814 911.508C186.051 911.41 187.272 911.312 188.477 911.215L189.6 850.619C187.191 851.01 185.4 851.4 184.229 851.791C183.089 852.182 182.406 852.426 182.178 852.523C181.95 852.589 181.592 852.621 181.104 852.621C180.648 852.621 180.16 852.344 179.639 851.791C179.15 851.238 178.906 850.668 178.906 850.082C178.906 848.812 179.443 847.982 180.518 847.592C187.256 845.346 195.719 844.223 205.908 844.223H208.105C208.887 844.223 210.173 844.271 211.963 844.369C213.753 844.434 216.016 844.695 218.75 845.15C221.484 845.606 224.089 846.306 226.562 847.25C229.036 848.161 231.299 849.301 233.35 850.668C235.433 852.035 237.24 853.663 238.77 855.551C241.992 859.587 243.604 864.503 243.604 870.297C243.604 878.337 240.283 884.848 233.643 889.828C227.653 894.288 220.703 896.518 212.793 896.518C210.026 896.518 207.666 896.273 205.713 895.785L205.322 911.215C207.178 911.345 209.733 911.54 212.988 911.801C213.639 911.898 214.176 912.191 214.6 912.68C215.055 913.168 215.283 913.77 215.283 914.486C215.283 915.17 215.007 915.74 214.453 916.195C213.9 916.651 213.314 916.879 212.695 916.879H212.5Z" fill="white"/>
<path d="M272.412 849.887C272.412 849.887 271.224 849.887 268.848 849.887C267.708 849.887 266.52 849.854 265.283 849.789L264.209 911.02C265.251 910.954 266.309 910.922 267.383 910.922C268.49 910.922 269.596 910.889 270.703 910.824L272.412 849.887ZM309.521 891.391L305.42 914.584C305.322 915.235 305.029 915.74 304.541 916.098C304.053 916.488 303.499 916.684 302.881 916.684H302.588C297.249 916.163 288.818 915.902 277.295 915.902C265.706 915.902 257.373 916.163 252.295 916.684H252.1C250.57 916.684 249.707 915.854 249.512 914.193C249.512 913.542 249.723 912.973 250.146 912.484C250.602 911.996 251.221 911.703 252.002 911.605C252.816 911.508 253.825 911.426 255.029 911.361C256.266 911.296 257.617 911.215 259.082 911.117L260.205 849.398C257.406 849.203 254.574 848.91 251.709 848.52C251.058 848.422 250.521 848.129 250.098 847.641C249.707 847.152 249.528 846.55 249.561 845.834C249.626 845.085 249.902 844.499 250.391 844.076C250.879 843.62 251.449 843.393 252.1 843.393H252.393C258.577 844.337 264.648 844.809 270.605 844.809C276.562 844.809 281.169 844.646 284.424 844.32H284.619C285.368 844.32 285.986 844.581 286.475 845.102C286.963 845.59 287.207 846.176 287.207 846.859C287.207 847.543 286.979 848.129 286.523 848.617C286.068 849.073 285.368 849.333 284.424 849.398C282.471 849.594 280.16 849.757 277.49 849.887L275.879 910.824H277.295C287.223 910.824 295.052 911.02 300.781 911.41L304.395 891C304.492 890.349 304.785 889.828 305.273 889.438C305.762 889.014 306.331 888.803 306.982 888.803C307.633 888.803 308.219 889.079 308.74 889.633C309.261 890.154 309.521 890.74 309.521 891.391Z" fill="white"/>
<path d="M328.125 851.596C326.725 859.994 326.025 868.995 326.025 878.598C326.025 891.195 327.865 900.31 331.543 905.941C334.082 909.75 337.484 912.273 341.748 913.51C336.702 907.553 333.936 899.105 333.447 888.168C333.317 885.173 333.252 882.243 333.252 879.379C333.252 870.004 333.887 860.743 335.156 851.596H328.125ZM366.504 904.477C367.904 901.71 368.945 898.454 369.629 894.711C370.312 890.967 370.654 885.743 370.654 879.037C370.654 872.299 369.922 862.924 368.457 850.912L360.254 851.596H359.961C359.245 851.596 358.643 851.335 358.154 850.814C357.666 850.261 357.422 849.659 357.422 849.008C357.422 848.357 357.633 847.787 358.057 847.299C358.512 846.811 359.066 846.518 359.717 846.42L381.152 844.711H381.348C382.031 844.711 382.617 844.971 383.105 845.492C383.594 845.98 383.838 846.566 383.838 847.25C383.838 847.934 383.61 848.52 383.154 849.008C382.731 849.464 382.194 849.724 381.543 849.789L373.535 850.424C374.967 863.087 375.732 873.845 375.83 882.699C375.374 898.227 371.517 908.773 364.258 914.34C359.961 917.66 354.427 919.32 347.656 919.32C340.495 919.32 334.733 917.009 330.371 912.387C324.023 905.681 320.85 894.353 320.85 878.402C320.85 868.702 321.549 859.766 322.949 851.596H317.139C316.39 851.596 315.771 851.352 315.283 850.863C314.795 850.342 314.551 849.724 314.551 849.008C314.551 848.292 314.795 847.689 315.283 847.201C315.771 846.68 316.39 846.42 317.139 846.42H347.754C348.438 846.42 349.04 846.68 349.561 847.201C350.081 847.689 350.342 848.292 350.342 849.008C350.342 849.724 350.081 850.342 349.561 850.863C349.04 851.352 348.438 851.596 347.754 851.596H340.332C338.997 860.124 338.33 869.467 338.33 879.623C338.33 902.149 343.294 913.412 353.223 913.412C359.017 913.412 363.444 910.434 366.504 904.477Z" fill="white"/>
<path d="M423.047 851.205C423.047 851.205 420.703 851.173 416.016 851.107L414.941 911.312C415.495 911.247 416.048 911.215 416.602 911.215C417.643 911.215 418.571 911.215 419.385 911.215C420.199 911.215 420.882 911.247 421.436 911.312L423.047 851.205ZM395.02 844.711C401.79 845.622 410.645 846.078 421.582 846.078C432.52 846.078 440.007 845.915 444.043 845.59H444.238C444.824 845.59 445.361 845.801 445.85 846.225C446.338 846.615 446.598 846.973 446.631 847.299C446.696 847.592 446.777 847.999 446.875 848.52C446.973 849.04 447.103 849.74 447.266 850.619C447.428 851.498 447.624 852.507 447.852 853.646C448.112 854.786 448.389 855.974 448.682 857.211C449.43 860.271 450.114 862.663 450.732 864.389L450.83 865.219C450.83 865.902 450.553 866.505 450 867.025C449.479 867.546 448.926 867.807 448.34 867.807C447.103 867.807 446.273 867.204 445.85 866C444.157 861.085 442.92 856.055 442.139 850.912C438.428 851.107 433.757 851.205 428.125 851.205L426.514 911.508C432.145 911.703 435.221 912.11 435.742 912.729C436.263 913.314 436.523 913.982 436.523 914.73C436.523 915.447 436.247 916.033 435.693 916.488C435.173 916.977 434.619 917.221 434.033 917.221H433.74C429.248 916.667 424.072 916.391 418.213 916.391C412.354 916.391 407.292 916.667 403.027 917.221H402.734C402.018 917.221 401.4 916.944 400.879 916.391C400.391 915.837 400.146 915.235 400.146 914.584C400.146 913.933 400.358 913.363 400.781 912.875C401.465 912.191 404.476 911.736 409.814 911.508L410.938 850.912C405.794 850.717 401.025 850.44 396.631 850.082C396.436 850.961 396.191 852.035 395.898 853.305C395.638 854.574 395.345 855.925 395.02 857.357C393.978 861.589 393.311 864.21 393.018 865.219C392.497 866.944 391.634 867.807 390.43 867.807C389.681 867.807 389.062 867.546 388.574 867.025C388.086 866.472 387.842 866 387.842 865.609V864.828C387.842 864.698 387.972 864.177 388.232 863.266C388.525 862.354 388.916 860.873 389.404 858.822C389.893 856.771 390.332 854.851 390.723 853.061C391.667 848.992 392.139 846.876 392.139 846.713C392.497 845.378 393.327 844.711 394.629 844.711H395.02Z" fill="white"/>
<path d="M477.051 909.506C471.582 903.126 468.848 893.458 468.848 880.502C468.848 867.807 472.575 858.204 480.029 851.693C480.225 851.498 480.469 851.303 480.762 851.107C475.098 853.614 470.557 857.569 467.139 862.973C463.623 868.507 461.865 874.61 461.865 881.283C461.865 890.3 464.86 898.015 470.85 904.428C472.705 906.413 474.772 908.106 477.051 909.506ZM522.363 881.43C522.363 879.118 522.07 876.758 521.484 874.35C520.898 871.908 520.068 869.532 518.994 867.221C517.952 864.877 516.683 862.663 515.186 860.58C513.721 858.464 512.109 856.625 510.352 855.062C506.478 851.612 502.507 849.887 498.438 849.887C490.43 849.887 484.212 853.174 479.785 859.75C475.879 865.577 473.926 872.494 473.926 880.502C473.926 886.361 474.447 891.016 475.488 894.467C476.53 897.917 477.62 900.701 478.76 902.816C479.932 904.9 481.364 906.723 483.057 908.285C486.67 911.573 491.227 913.217 496.729 913.217C501.123 913.217 505.404 911.54 509.57 908.188C513.346 905.095 516.439 901.026 518.848 895.98C521.191 891.033 522.363 886.182 522.363 881.43ZM527.441 881.43C527.441 884.75 527.002 888.005 526.123 891.195C525.277 894.353 524.072 897.331 522.51 900.131C520.98 902.93 519.124 905.486 516.943 907.797C514.762 910.108 512.37 912.094 509.766 913.754C504.264 917.237 498.356 918.979 492.041 918.979C482.373 918.979 474.056 915.284 467.09 907.895C462.728 903.272 459.701 897.738 458.008 891.293C457.161 888.07 456.738 884.734 456.738 881.283C456.738 874.48 458.35 868.148 461.572 862.289C464.665 856.658 468.896 852.133 474.268 848.715C479.704 845.297 485.628 843.588 492.041 843.588C498.649 843.588 504.753 845.427 510.352 849.105C515.592 852.556 519.743 857.195 522.803 863.021C525.895 868.848 527.441 874.984 527.441 881.43Z" fill="white"/>
<defs>
<filter id="filter0_f_1_881" x="153.995" y="217.068" width="430.446" height="438.516" filterUnits="userSpaceOnUse" color-interpolation-filters="sRGB">
<feFlood flood-opacity="0" result="BackgroundImageFix"/>
<feBlend mode="normal" in="SourceGraphic" in2="BackgroundImageFix" result="shape"/>
<feGaussianBlur stdDeviation="20" result="effect1_foregroundBlur_1_881"/>
</filter>
<clipPath id="clip0_1_881">
<rect width="350" height="357.479" fill="white" transform="translate(178 233)"/>
</clipPath>
</defs>
</svg>
