<svg width="706" height="1000" viewBox="0 0 706 1000" fill="none" xmlns="http://www.w3.org/2000/svg">
<path d="M706 0H0V1000H706V0Z" fill="#191919"/>
<g filter="url(#filter0_f_1_7007)">
<path d="M468.712 516.191C511.906 450.755 493.874 362.693 428.437 319.5C363.001 276.307 274.939 294.338 231.746 359.775C188.552 425.212 206.584 513.273 272.021 556.467C337.457 599.66 425.519 581.628 468.712 516.191Z" fill="#030303"/>
<path d="M468.712 516.191C511.906 450.755 493.874 362.693 428.437 319.5C363.001 276.307 274.939 294.338 231.746 359.775C188.552 425.212 206.584 513.273 272.021 556.467C337.457 599.66 425.519 581.628 468.712 516.191Z" fill="#030303"/>
<path opacity="0.41" d="M302.107 488.411C273.982 491.536 247.196 493.768 220.411 495.107C230.679 518.321 246.75 537.964 266.839 552.696C306.571 562.964 352.554 565.643 367.286 547.339C348.089 546.893 328 544.661 310.143 536.625C323.982 541.982 373.982 540.196 383.804 528.143C379.786 527.696 376.214 526.357 372.196 525.911C398.536 521.446 463.268 520.107 478.446 496C462.821 494.214 447.643 505.821 433.357 497.339C446.75 488.857 466.839 488.411 485.143 484.839C487.375 479.036 488.714 472.786 490.054 466.536C448.089 475.464 401.661 507.161 363.714 490.643C381.125 482.161 407.464 487.071 420.857 470.554C402.554 466.982 380.232 480.821 361.929 486.179C333.357 494.214 299.429 504.482 269.964 502.25C280.232 500.464 294.518 495.107 302.107 488.411Z" fill="#030303"/>
<path opacity="0.41" d="M216.393 390.643C215.946 391.536 215.946 392.429 215.5 393.321C234.696 389.304 260.589 373.679 280.232 367.875C307.911 360.286 334.696 362.071 362.821 359.839C347.643 360.732 335.589 370.554 322.643 376.804C339.607 379.482 357.464 370.554 373.536 365.643C402.107 356.714 431.571 347.339 455.679 342.429C453.446 340.196 451.214 337.964 448.982 335.732C406.125 332.607 363.714 335.286 320.411 339.75C277.107 344.214 252.107 374.125 216.393 390.643Z" fill="#030303"/>
<path opacity="0.41" d="M211.036 465.643C228.446 464.75 256.125 454.036 266.393 452.696C280.232 450.464 296.75 448.679 312.821 448.679C318.179 450.464 324.429 451.357 329.339 451.357C332.464 451.357 335.589 450.911 338.268 450.464C339.161 450.464 340.054 450.911 341.393 450.911L338.714 450.464C358.804 447.786 378.893 439.75 396.75 432.161C424.428 421 459.696 414.75 487.375 400.018C486.928 397.786 486.036 396 485.589 394.214C450.321 409.839 414.607 422.786 377.553 434.393C365.053 438.411 343.625 449.125 328 448.232L320.857 446.893C284.696 432.161 340.946 405.375 344.518 428.589C341.839 421.447 320.857 426.804 325.768 439.75C337.821 438.857 356.571 435.286 362.375 423.679C346.75 416.089 313.268 403.143 300.768 422.786C294.964 431.714 297.643 438.857 303 443.768C274.875 444.214 236.482 443.768 209.696 456.714C210.143 459.393 210.589 461.625 211.036 464.304C210.589 464.304 211.036 465.197 211.036 465.643Z" fill="#030303"/>
<path opacity="0.82" d="M257.464 342.875C253.893 343.768 248.089 345.107 241.393 346.893C234.696 354.929 228.893 363.411 224.429 372.786C233.804 368.768 242.732 364.304 245.411 362.964C264.161 353.589 285.143 343.768 306.125 337.964C336.036 329.929 366.393 333.946 396.304 329.482C386.482 325.018 370.857 327.25 362.375 321.893C380.679 309.839 409.25 321 434.25 323.679C426.214 317.429 417.286 312.518 408.357 308.5C394.071 308.5 380.679 309.839 370.411 310.732C335.143 313.411 303.893 325.018 257.464 342.875Z" fill="#030303"/>
<path opacity="0.82" d="M396.75 441.089C406.571 441.089 416.393 438.411 426.214 439.75C405.232 457.161 365.5 458.946 339.161 460.732C298.536 463.857 254.339 469.214 214.607 479.929C214.607 479.929 214.607 479.929 214.607 480.375C260.143 481.268 310.589 462.964 356.571 467.875C351.214 479.036 332.911 480.821 322.643 488.411C343.625 498.232 383.804 471 403.893 462.964C430.679 452.25 464.607 444.214 492.286 429.929C491.839 425.911 491.393 421.446 490.946 416.982C459.25 425.018 422.643 427.25 396.75 441.089Z" fill="#030303"/>
<path opacity="0.82" d="M411.929 383.947C406.571 401.804 385.143 397.786 372.196 404.482C384.25 408.5 397.196 398.232 408.804 400.464C405.232 408.947 394.071 413.857 386.929 421C407.911 418.322 427.554 407.607 445.411 397.339C454.786 391.982 467.286 386.179 479.339 379.482C477.107 374.572 474.428 370.107 471.75 365.643C459.696 366.089 447.196 365.643 435.589 367.875C417.286 371 399.429 375.018 381.571 379.929C353 387.518 324.875 388.411 297.196 395.107C301.661 395.554 305.679 398.232 309.696 399.125C291.393 421 226.661 409.393 208.357 429.929C208.357 431.268 208.357 433.054 208.357 434.393C277.107 425.018 343.179 388.411 411.929 383.947Z" fill="#030303"/>
<path opacity="0.82" d="M423.089 542.875C410.143 541.982 376.661 557.161 369.071 566.982C387.375 575.018 455.232 540.643 461.482 522.339C445.411 519.214 404.786 535.286 390.946 545.554C394.518 546.893 396.75 545.554 401.214 545.107L423.089 542.875Z" fill="#030303"/>
<path opacity="0.23" d="M324.875 298.232C247.643 312.518 196.304 386.179 210.589 463.411C211.482 466.982 211.929 470.554 213.268 474.572C217.286 478.143 221.75 481.268 226.661 484.393C275.768 514.304 328.893 502.697 372.196 468.768C404.339 443.322 428 404.482 427.107 362.518C426.214 334.393 415.054 316.089 398.089 304.036C374.875 296 350.321 293.768 324.875 298.232Z" fill="#030303"/>
<path opacity="0.28" d="M303.447 319.661C246.304 318.321 214.161 412.964 260.143 446C363.268 520.107 415.947 283.054 303.447 319.661Z" fill="#030303"/>
<path opacity="0.21" d="M490.054 412.518C484.696 383.5 471.304 358.054 452.107 338.857C452.554 340.643 452.554 341.982 453 343.768C456.125 369.214 453 396 443.625 420.554C413.714 499.125 332.464 540.196 252.107 522.786C246.75 521.446 239.607 519.214 232.018 516.536C262.375 562.518 318.179 588.411 375.768 578.143C453 563.857 503.893 489.75 490.054 412.518Z" fill="#030303"/>
<path opacity="0.28" d="M490.054 412.518C487.375 398.679 483.357 386.179 477.107 374.125C472.643 391.982 471.304 411.179 468.625 429.036C463.714 460.732 450.768 476.357 426.214 497.339C394.964 524.125 354.339 548.232 311.929 548.232C293.625 548.232 275.768 543.321 257.911 546C271.75 557.607 287.821 566.982 304.786 572.786C321.304 573.232 336.929 571.893 344.964 571C415.946 563.857 465.946 520.554 490.5 460.286C493.179 445.107 493.179 429.036 490.054 412.518Z" fill="#030303"/>
<path opacity="0.74" d="M425.768 317.875C430.679 321 435.589 324.571 440.054 328.143C508.357 317.875 559.25 325.911 568.625 352.25C582.911 392.429 495.411 460.286 373.089 504.036C250.768 547.339 140.054 550.464 125.321 510.286C115.946 483.946 150.768 445.107 211.036 409.393C211.929 404.036 213.714 398.679 215.054 393.321C123.536 441.982 66.8393 497.786 79.7857 534.839C97.6429 583.946 234.25 580.375 384.696 526.357C535.589 472.339 643.625 388.857 625.768 339.304C612.821 302.25 530.679 295.107 425.768 317.875Z" fill="#030303"/>
<path opacity="0.74" d="M371.304 500.911C488.268 458.947 571.75 394.214 557.464 356.714C548.982 333.5 505.232 326.357 445.857 333.5C449.875 337.071 453.893 341.089 457.464 345.554C486.929 346 507.464 352.696 512.822 366.536C524.429 396.893 457.018 449.125 361.929 483.5C266.839 517.875 180.679 520.554 169.518 490.197C163.714 474.125 178.893 452.696 208.804 430.375C209.25 425.911 209.696 421 210.143 416.536C156.125 449.571 125.321 484.839 134.25 508.947C148.089 546.447 254.339 542.875 371.304 500.911Z" fill="#030303"/>
</g>
<g clip-path="url(#clip0_1_7007)">
<path d="M468.712 490.191C511.906 424.755 493.874 336.693 428.437 293.5C363.001 250.307 274.939 268.338 231.746 333.775C188.552 399.212 206.584 487.273 272.021 530.467C337.457 573.66 425.519 555.628 468.712 490.191Z" fill="#E5B883"/>
<path d="M468.712 490.191C511.906 424.755 493.874 336.693 428.437 293.5C363.001 250.307 274.939 268.338 231.746 333.775C188.552 399.212 206.584 487.273 272.021 530.467C337.457 573.66 425.519 555.628 468.712 490.191Z" fill="#E5B883"/>
<path opacity="0.41" d="M302.107 462.411C273.982 465.536 247.196 467.768 220.411 469.107C230.679 492.321 246.75 511.964 266.839 526.696C306.571 536.964 352.554 539.643 367.286 521.339C348.089 520.893 328 518.661 310.143 510.625C323.982 515.982 373.982 514.196 383.804 502.143C379.786 501.696 376.214 500.357 372.196 499.911C398.536 495.446 463.268 494.107 478.446 470C462.821 468.214 447.643 479.821 433.357 471.339C446.75 462.857 466.839 462.411 485.143 458.839C487.375 453.036 488.714 446.786 490.054 440.536C448.089 449.464 401.661 481.161 363.714 464.643C381.125 456.161 407.464 461.071 420.857 444.554C402.554 440.982 380.232 454.821 361.929 460.179C333.357 468.214 299.429 478.482 269.964 476.25C280.232 474.464 294.518 469.107 302.107 462.411Z" fill="#AC2024"/>
<path opacity="0.41" d="M216.393 364.643C215.946 365.536 215.946 366.429 215.5 367.321C234.696 363.304 260.589 347.679 280.232 341.875C307.911 334.286 334.696 336.071 362.821 333.839C347.643 334.732 335.589 344.554 322.643 350.804C339.607 353.482 357.464 344.554 373.536 339.643C402.107 330.714 431.571 321.339 455.679 316.429C453.446 314.196 451.214 311.964 448.982 309.732C406.125 306.607 363.714 309.286 320.411 313.75C277.107 318.214 252.107 348.125 216.393 364.643Z" fill="#AC2024"/>
<path opacity="0.41" d="M211.036 439.643C228.446 438.75 256.125 428.036 266.393 426.696C280.232 424.464 296.75 422.679 312.821 422.679C318.179 424.464 324.429 425.357 329.339 425.357C332.464 425.357 335.589 424.911 338.268 424.464C339.161 424.464 340.054 424.911 341.393 424.911L338.714 424.464C358.804 421.786 378.893 413.75 396.75 406.161C424.428 395 459.696 388.75 487.375 374.018C486.928 371.786 486.036 370 485.589 368.214C450.321 383.839 414.607 396.786 377.553 408.393C365.053 412.411 343.625 423.125 328 422.232L320.857 420.893C284.696 406.161 340.946 379.375 344.518 402.589C341.839 395.447 320.857 400.804 325.768 413.75C337.821 412.857 356.571 409.286 362.375 397.679C346.75 390.089 313.268 377.143 300.768 396.786C294.964 405.714 297.643 412.857 303 417.768C274.875 418.214 236.482 417.768 209.696 430.714C210.143 433.393 210.589 435.625 211.036 438.304C210.589 438.304 211.036 439.197 211.036 439.643Z" fill="#AC2024"/>
<path opacity="0.82" d="M257.464 316.875C253.893 317.768 248.089 319.107 241.393 320.893C234.696 328.929 228.893 337.411 224.429 346.786C233.804 342.768 242.732 338.304 245.411 336.964C264.161 327.589 285.143 317.768 306.125 311.964C336.036 303.929 366.393 307.946 396.304 303.482C386.482 299.018 370.857 301.25 362.375 295.893C380.679 283.839 409.25 295 434.25 297.679C426.214 291.429 417.286 286.518 408.357 282.5C394.071 282.5 380.679 283.839 370.411 284.732C335.143 287.411 303.893 299.018 257.464 316.875Z" fill="#FFEACC"/>
<path opacity="0.82" d="M396.75 415.089C406.571 415.089 416.393 412.411 426.214 413.75C405.232 431.161 365.5 432.946 339.161 434.732C298.536 437.857 254.339 443.214 214.607 453.929C214.607 453.929 214.607 453.929 214.607 454.375C260.143 455.268 310.589 436.964 356.571 441.875C351.214 453.036 332.911 454.821 322.643 462.411C343.625 472.232 383.804 445 403.893 436.964C430.679 426.25 464.607 418.214 492.286 403.929C491.839 399.911 491.393 395.446 490.946 390.982C459.25 399.018 422.643 401.25 396.75 415.089Z" fill="#FFEACC"/>
<path opacity="0.82" d="M411.929 357.947C406.571 375.804 385.143 371.786 372.196 378.482C384.25 382.5 397.196 372.232 408.804 374.464C405.232 382.947 394.071 387.857 386.929 395C407.911 392.322 427.554 381.607 445.411 371.339C454.786 365.982 467.286 360.179 479.339 353.482C477.107 348.572 474.428 344.107 471.75 339.643C459.696 340.089 447.196 339.643 435.589 341.875C417.286 345 399.429 349.018 381.571 353.929C353 361.518 324.875 362.411 297.196 369.107C301.661 369.554 305.679 372.232 309.696 373.125C291.393 395 226.661 383.393 208.357 403.929C208.357 405.268 208.357 407.054 208.357 408.393C277.107 399.018 343.179 362.411 411.929 357.947Z" fill="#FFEACC"/>
<path opacity="0.82" d="M423.089 516.875C410.143 515.982 376.661 531.161 369.071 540.982C387.375 549.018 455.232 514.643 461.482 496.339C445.411 493.214 404.786 509.286 390.946 519.554C394.518 520.893 396.75 519.554 401.214 519.107L423.089 516.875Z" fill="#FFEACC"/>
<path opacity="0.23" d="M324.875 272.232C247.643 286.518 196.304 360.179 210.589 437.411C211.482 440.982 211.929 444.554 213.268 448.572C217.286 452.143 221.75 455.268 226.661 458.393C275.768 488.304 328.893 476.697 372.196 442.768C404.339 417.322 428 378.482 427.107 336.518C426.214 308.393 415.054 290.089 398.089 278.036C374.875 270 350.321 267.768 324.875 272.232Z" fill="#FFEACC"/>
<path opacity="0.28" d="M303.447 293.661C246.304 292.321 214.161 386.964 260.143 420C363.268 494.107 415.947 257.054 303.447 293.661Z" fill="#FFEACC"/>
<path opacity="0.21" d="M490.054 386.518C484.696 357.5 471.304 332.054 452.107 312.857C452.554 314.643 452.554 315.982 453 317.768C456.125 343.214 453 370 443.625 394.554C413.714 473.125 332.464 514.196 252.107 496.786C246.75 495.446 239.607 493.214 232.018 490.536C262.375 536.518 318.179 562.411 375.768 552.143C453 537.857 503.893 463.75 490.054 386.518Z" fill="#AC2024"/>
<path opacity="0.28" d="M490.054 386.518C487.375 372.679 483.357 360.179 477.107 348.125C472.643 365.982 471.304 385.179 468.625 403.036C463.714 434.732 450.768 450.357 426.214 471.339C394.964 498.125 354.339 522.232 311.929 522.232C293.625 522.232 275.768 517.321 257.911 520C271.75 531.607 287.821 540.982 304.786 546.786C321.304 547.232 336.929 545.893 344.964 545C415.946 537.857 465.946 494.554 490.5 434.286C493.179 419.107 493.179 403.036 490.054 386.518Z" fill="#AC2024"/>
<path opacity="0.74" d="M425.768 291.875C430.679 295 435.589 298.571 440.054 302.143C508.357 291.875 559.25 299.911 568.625 326.25C582.911 366.429 495.411 434.286 373.089 478.036C250.768 521.339 140.054 524.464 125.321 484.286C115.946 457.946 150.768 419.107 211.036 383.393C211.929 378.036 213.714 372.679 215.054 367.321C123.536 415.982 66.8393 471.786 79.7857 508.839C97.6429 557.946 234.25 554.375 384.696 500.357C535.589 446.339 643.625 362.857 625.768 313.304C612.821 276.25 530.679 269.107 425.768 291.875Z" fill="#FFE4CC"/>
<path opacity="0.74" d="M371.304 474.911C488.268 432.947 571.75 368.214 557.464 330.714C548.982 307.5 505.232 300.357 445.857 307.5C449.875 311.071 453.893 315.089 457.464 319.554C486.929 320 507.464 326.696 512.822 340.536C524.429 370.893 457.018 423.125 361.929 457.5C266.839 491.875 180.679 494.554 169.518 464.197C163.714 448.125 178.893 426.696 208.804 404.375C209.25 399.911 209.696 395 210.143 390.536C156.125 423.571 125.321 458.839 134.25 482.947C148.089 520.447 254.339 516.875 371.304 474.911Z" fill="#EDCBAE"/>
</g>
<path d="M140.086 861.387C139.565 863.242 139.305 865.146 139.305 867.1C139.305 869.053 139.565 870.827 140.086 872.422C140.639 874.017 141.746 875.547 143.406 877.012C147.182 880.332 153.742 882.969 163.084 884.922C169.106 886.224 173.663 887.673 176.756 889.268C179.881 890.83 182.306 892.474 184.031 894.199C185.789 895.892 186.912 897.926 187.4 900.303C187.856 898.968 188.084 897.454 188.084 895.762C188.084 894.036 187.742 892.425 187.059 890.928C186.408 889.43 185.529 888.128 184.422 887.021C183.348 885.882 182.094 884.889 180.662 884.043C179.23 883.197 177.749 882.48 176.219 881.895C174.135 881.081 171.629 880.316 168.699 879.6C165.77 878.883 163.279 878.265 161.229 877.744C159.178 877.223 157.176 876.637 155.223 875.986C153.27 875.335 151.414 874.587 149.656 873.74C147.898 872.894 146.336 871.885 144.969 870.713C142.072 868.206 140.444 865.098 140.086 861.387ZM138.182 898.691C145.766 908.424 155.206 913.291 166.502 913.291C173.468 913.291 178.335 911.582 181.102 908.164C182.176 906.895 182.713 905.413 182.713 903.721C182.713 902.028 182.339 900.612 181.59 899.473C180.841 898.301 179.865 897.259 178.66 896.348C177.456 895.436 176.089 894.639 174.559 893.955C173.061 893.239 171.548 892.62 170.018 892.1C167.576 891.253 165.07 890.57 162.498 890.049C159.926 889.528 157.501 888.975 155.223 888.389C152.944 887.77 150.779 887.038 148.729 886.191C146.678 885.345 144.773 884.352 143.016 883.213C141.258 882.074 139.728 880.723 138.426 879.16C135.691 875.872 134.324 871.722 134.324 866.709C134.324 859.255 137.091 853.346 142.625 848.984C147.703 844.98 153.855 842.979 161.082 842.979C165.151 842.979 169.643 843.809 174.559 845.469C179.311 847.096 182.599 848.968 184.422 851.084C185.171 849.066 186.229 846.608 187.596 843.711C188.149 842.767 188.849 842.295 189.695 842.295C190.574 842.295 191.258 842.572 191.746 843.125C192.234 843.646 192.479 844.167 192.479 844.688C192.479 845.176 192.007 846.396 191.062 848.35C190.118 850.303 189.093 853.053 187.986 856.602C186.912 860.117 186.147 863.682 185.691 867.295C185.626 867.946 185.35 868.483 184.861 868.906C184.406 869.297 183.82 869.492 183.104 869.492C182.42 869.492 181.834 869.215 181.346 868.662C180.857 868.109 180.613 867.555 180.613 867.002V866.709C181.004 863.258 181.704 859.857 182.713 856.504C182.127 854.714 179.279 852.858 174.168 850.938C169.09 848.984 164.565 848.008 160.594 848.008C153.758 848.008 149.087 850.124 146.58 854.355C145.701 855.82 145.245 857.594 145.213 859.678C145.538 864.43 148.566 867.962 154.295 870.273C157.062 871.445 159.796 872.324 162.498 872.91C165.2 873.464 167.69 874.017 169.969 874.57C172.28 875.091 174.933 875.84 177.928 876.816C180.923 877.793 183.543 879.079 185.789 880.674C190.737 884.157 193.211 889.268 193.211 896.006C193.211 902.712 190.298 908.229 184.471 912.559C179.165 916.465 173.208 918.418 166.6 918.418C155.076 918.418 145.473 914.316 137.791 906.113V907.285C137.791 909.336 137.856 911.37 137.986 913.389V913.584C137.986 914.235 137.758 914.805 137.303 915.293C136.88 915.781 136.294 916.042 135.545 916.074C134.829 916.107 134.227 915.895 133.738 915.439C133.25 914.984 132.973 914.316 132.908 913.438C132.778 911.68 132.713 909.401 132.713 906.602C132.713 901.426 133.315 895.827 134.52 889.805C134.878 888.405 135.708 887.705 137.01 887.705C137.758 887.705 138.377 887.998 138.865 888.584C139.354 889.137 139.598 889.577 139.598 889.902V890.488C139.598 890.586 139.533 890.846 139.402 891.27C139.305 891.693 139.191 892.23 139.061 892.881C138.963 893.499 138.849 894.102 138.719 894.688C138.621 895.371 138.442 896.706 138.182 898.691Z" fill="white"/>
<path d="M217.43 889.316C223.224 889.967 227.7 890.293 230.857 890.293C235.708 890.293 240.851 889.967 246.287 889.316C242.706 878.346 237.921 868.434 231.932 859.58C225.91 869.801 221.076 879.714 217.43 889.316ZM257.713 909.58L261.814 909.482H263.328C263.816 909.482 264.305 909.515 264.793 909.58C259.031 885.003 250.307 864.772 238.621 848.887L234.812 854.795C241.518 863.975 246.922 874.782 251.023 887.217C254.832 899.098 257.062 906.553 257.713 909.58ZM223.094 916.123C219.741 915.114 215.509 914.609 210.398 914.609C205.288 914.609 201.056 915.114 197.703 916.123C196.954 916.123 196.336 915.863 195.848 915.342C195.359 914.821 195.115 914.235 195.115 913.584C195.115 912.217 195.815 911.354 197.215 910.996C199.461 910.41 202.423 909.971 206.102 909.678C210.398 888.779 220.473 866.579 236.326 843.076C236.847 842.36 237.433 842.002 238.084 842.002C239.191 842.002 239.972 842.295 240.428 842.881C253.969 860.166 263.865 882.48 270.115 909.824C273.436 910.117 276.74 910.508 280.027 910.996C280.678 911.094 281.199 911.387 281.59 911.875C282.013 912.363 282.225 912.933 282.225 913.584C282.225 914.235 281.932 914.821 281.346 915.342C280.792 915.863 280.353 916.123 280.027 916.123C279.572 916.123 278.579 915.977 277.049 915.684C270.734 914.544 262.872 914.316 253.465 915C250.698 915.195 248.615 915.423 247.215 915.684C245.815 915.944 245.083 916.074 245.018 916.074C244.952 916.107 244.725 916.123 244.334 916.123C243.943 916.123 243.488 915.846 242.967 915.293C242.479 914.74 242.234 914.154 242.234 913.535C242.234 912.917 242.43 912.363 242.82 911.875C243.243 911.387 243.943 911.061 244.92 910.898C245.896 910.703 247.052 910.54 248.387 910.41C249.721 910.247 251.089 910.085 252.488 909.922C251.056 904.486 249.526 899.245 247.898 894.199C242.137 895.013 236.863 895.42 232.078 895.42C227.293 895.42 221.808 895.013 215.623 894.199C213.898 899.342 212.498 904.437 211.424 909.482C215.558 909.613 219.66 910.117 223.729 910.996C224.314 911.094 224.786 911.387 225.145 911.875C225.535 912.363 225.73 912.949 225.73 913.633C225.73 914.284 225.438 914.854 224.852 915.342C224.298 915.863 223.712 916.123 223.094 916.123Z" fill="white"/>
<path d="M314.5 850.205C314.5 850.205 312.156 850.173 307.469 850.107L306.395 910.312C306.948 910.247 307.501 910.215 308.055 910.215C309.096 910.215 310.024 910.215 310.838 910.215C311.652 910.215 312.335 910.247 312.889 910.312L314.5 850.205ZM286.473 843.711C293.243 844.622 302.098 845.078 313.035 845.078C323.973 845.078 331.46 844.915 335.496 844.59H335.691C336.277 844.59 336.814 844.801 337.303 845.225C337.791 845.615 338.051 845.973 338.084 846.299C338.149 846.592 338.23 846.999 338.328 847.52C338.426 848.04 338.556 848.74 338.719 849.619C338.882 850.498 339.077 851.507 339.305 852.646C339.565 853.786 339.842 854.974 340.135 856.211C340.883 859.271 341.567 861.663 342.186 863.389L342.283 864.219C342.283 864.902 342.007 865.505 341.453 866.025C340.932 866.546 340.379 866.807 339.793 866.807C338.556 866.807 337.726 866.204 337.303 865C335.61 860.085 334.373 855.055 333.592 849.912C329.881 850.107 325.21 850.205 319.578 850.205L317.967 910.508C323.598 910.703 326.674 911.11 327.195 911.729C327.716 912.314 327.977 912.982 327.977 913.73C327.977 914.447 327.7 915.033 327.146 915.488C326.626 915.977 326.072 916.221 325.486 916.221H325.193C320.701 915.667 315.525 915.391 309.666 915.391C303.807 915.391 298.745 915.667 294.48 916.221H294.188C293.471 916.221 292.853 915.944 292.332 915.391C291.844 914.837 291.6 914.235 291.6 913.584C291.6 912.933 291.811 912.363 292.234 911.875C292.918 911.191 295.929 910.736 301.268 910.508L302.391 849.912C297.247 849.717 292.479 849.44 288.084 849.082C287.889 849.961 287.645 851.035 287.352 852.305C287.091 853.574 286.798 854.925 286.473 856.357C285.431 860.589 284.764 863.21 284.471 864.219C283.95 865.944 283.087 866.807 281.883 866.807C281.134 866.807 280.516 866.546 280.027 866.025C279.539 865.472 279.295 865 279.295 864.609V863.828C279.295 863.698 279.425 863.177 279.686 862.266C279.979 861.354 280.369 859.873 280.857 857.822C281.346 855.771 281.785 853.851 282.176 852.061C283.12 847.992 283.592 845.876 283.592 845.713C283.95 844.378 284.78 843.711 286.082 843.711H286.473Z" fill="white"/>
<path d="M360.789 850.596C359.389 858.994 358.689 867.995 358.689 877.598C358.689 890.195 360.529 899.31 364.207 904.941C366.746 908.75 370.148 911.273 374.412 912.51C369.367 906.553 366.6 898.105 366.111 887.168C365.981 884.173 365.916 881.243 365.916 878.379C365.916 869.004 366.551 859.743 367.82 850.596H360.789ZM399.168 903.477C400.568 900.71 401.609 897.454 402.293 893.711C402.977 889.967 403.318 884.743 403.318 878.037C403.318 871.299 402.586 861.924 401.121 849.912L392.918 850.596H392.625C391.909 850.596 391.307 850.335 390.818 849.814C390.33 849.261 390.086 848.659 390.086 848.008C390.086 847.357 390.298 846.787 390.721 846.299C391.176 845.811 391.73 845.518 392.381 845.42L413.816 843.711H414.012C414.695 843.711 415.281 843.971 415.77 844.492C416.258 844.98 416.502 845.566 416.502 846.25C416.502 846.934 416.274 847.52 415.818 848.008C415.395 848.464 414.858 848.724 414.207 848.789L406.199 849.424C407.632 862.087 408.396 872.845 408.494 881.699C408.038 897.227 404.181 907.773 396.922 913.34C392.625 916.66 387.091 918.32 380.32 918.32C373.159 918.32 367.397 916.009 363.035 911.387C356.688 904.681 353.514 893.353 353.514 877.402C353.514 867.702 354.214 858.766 355.613 850.596H349.803C349.054 850.596 348.436 850.352 347.947 849.863C347.459 849.342 347.215 848.724 347.215 848.008C347.215 847.292 347.459 846.689 347.947 846.201C348.436 845.68 349.054 845.42 349.803 845.42H380.418C381.102 845.42 381.704 845.68 382.225 846.201C382.745 846.689 383.006 847.292 383.006 848.008C383.006 848.724 382.745 849.342 382.225 849.863C381.704 850.352 381.102 850.596 380.418 850.596H372.996C371.661 859.124 370.994 868.467 370.994 878.623C370.994 901.149 375.958 912.412 385.887 912.412C391.681 912.412 396.108 909.434 399.168 903.477Z" fill="white"/>
<path d="M437.596 909.824C439.223 909.661 441.355 909.58 443.992 909.58L445.701 848.691C442.967 848.822 440.59 848.984 438.572 849.18L437.596 909.824ZM474.314 910.703C471.352 906.602 469.871 899.603 469.871 889.707V887.949C469.871 887.363 469.904 886.842 469.969 886.387C466.681 886.973 464.451 887.314 463.279 887.412C463.149 888.324 463.084 889.658 463.084 891.416C463.084 893.141 463.23 895.094 463.523 897.275C463.849 899.456 464.435 901.491 465.281 903.379C467.137 907.676 470.148 910.117 474.314 910.703ZM449.9 881.699C452.081 882.155 454.539 882.383 457.273 882.383C460.008 882.383 462.4 882.269 464.451 882.041C466.502 881.813 468.504 881.439 470.457 880.918C472.443 880.397 474.314 879.714 476.072 878.867C477.83 877.988 479.376 876.914 480.711 875.645C483.576 872.812 485.008 869.264 485.008 865C485.008 858.587 481.964 854.095 475.877 851.523C472.199 849.993 468.406 849.098 464.5 848.838C460.594 848.545 457.778 848.398 456.053 848.398H452.537C451.919 848.398 451.333 848.431 450.779 848.496L449.9 881.699ZM488.084 897.617L487.986 896.104C487.986 895.355 488.247 894.753 488.768 894.297C489.321 893.841 489.923 893.613 490.574 893.613C491.225 893.613 491.795 893.841 492.283 894.297C492.771 894.72 493.048 895.257 493.113 895.908L493.211 897.617C493.211 902.988 491.681 907.35 488.621 910.703C485.496 914.154 481.395 915.879 476.316 915.879H476.17C467.706 915.651 462.173 911.191 459.568 902.5C458.527 899.049 458.006 895.176 458.006 890.879L458.104 887.607C455.597 887.607 452.83 887.38 449.803 886.924L449.07 912.217C449.07 912.998 448.81 913.617 448.289 914.072C447.801 914.495 447.199 914.707 446.482 914.707C438.865 914.707 431.932 915.098 425.682 915.879H425.389C424.64 915.879 424.021 915.618 423.533 915.098C423.045 914.609 422.801 914.04 422.801 913.389C422.801 912.738 422.996 912.168 423.387 911.68C423.81 911.191 424.477 910.882 425.389 910.752C426.333 910.622 427.423 910.508 428.66 910.41C429.93 910.312 431.167 910.215 432.371 910.117L433.494 849.912L426.072 851.377C425.844 851.54 425.486 851.621 424.998 851.621C424.51 851.621 424.021 851.361 423.533 850.84C423.045 850.319 422.801 849.733 422.801 849.082C422.801 847.78 423.403 846.95 424.607 846.592C431.15 844.411 441.144 843.32 454.588 843.32C462.14 843.711 467.625 844.297 471.043 845.078C474.493 845.859 477.309 846.755 479.49 847.764C481.671 848.74 483.543 850.01 485.105 851.572C488.426 854.827 490.086 859.303 490.086 865C490.086 869.655 488.702 873.789 485.936 877.402C483.299 880.853 479.718 883.327 475.193 884.824C475.063 886.322 474.998 887.656 474.998 888.828C474.998 889.967 475.014 891.156 475.047 892.393C475.079 893.63 475.161 894.98 475.291 896.445C475.421 897.91 475.617 899.408 475.877 900.938C476.17 902.467 476.544 903.867 477 905.137C478.074 907.969 479.539 909.385 481.395 909.385C483.673 909.385 485.431 907.871 486.668 904.844C487.612 902.598 488.084 900.189 488.084 897.617Z" fill="white"/>
<path d="M524.119 849.082C524.119 849.082 522.931 849.082 520.555 849.082C519.415 849.082 518.227 849.049 516.99 848.984L515.916 910.02H522.41L524.119 849.082ZM553.709 843.076C555.304 843.304 557.176 843.418 559.324 843.418C563.556 843.418 567.788 842.848 572.02 841.709C572.15 841.644 572.475 841.611 572.996 841.611C573.517 841.611 574.005 841.872 574.461 842.393C574.949 842.881 575.193 843.418 575.193 844.004C575.193 845.371 574.624 846.217 573.484 846.543C571.01 847.227 568.748 847.715 566.697 848.008C568.227 857.318 568.992 866.156 568.992 874.521C568.992 886.761 568.13 899.814 566.404 913.682C566.014 915.146 565.2 915.879 563.963 915.879C562.758 915.879 561.945 915.358 561.521 914.316C558.95 908.099 555.206 900.514 550.291 891.562C545.376 882.578 541.876 876.214 539.793 872.471C536.18 866.09 532.615 859.808 529.1 853.623L527.635 910.215C529.49 910.345 532.046 910.54 535.301 910.801C535.952 910.898 536.489 911.191 536.912 911.68C537.368 912.168 537.596 912.77 537.596 913.486C537.596 914.17 537.319 914.74 536.766 915.195C536.212 915.651 535.626 915.879 535.008 915.879H534.812C524.428 914.837 514.158 914.837 504.002 915.879H503.807C503.09 915.879 502.472 915.618 501.951 915.098C501.463 914.609 501.219 914.04 501.219 913.389C501.219 912.738 501.43 912.168 501.854 911.68C502.309 911.191 502.993 910.898 503.904 910.801C504.848 910.703 505.923 910.605 507.127 910.508C508.364 910.41 509.585 910.312 510.789 910.215L511.912 848.594C509.113 848.398 506.281 848.105 503.416 847.715C502.765 847.617 502.228 847.324 501.805 846.836C501.414 846.315 501.219 845.697 501.219 844.98C501.219 844.264 501.512 843.695 502.098 843.271C502.684 842.816 503.253 842.588 503.807 842.588H504.1C511.326 843.532 518.064 844.004 524.314 844.004H527.928C528.872 844.004 529.507 844.264 529.832 844.785C530.158 845.273 530.678 846.136 531.395 847.373C532.111 848.61 533.038 850.221 534.178 852.207C535.317 854.193 536.619 856.488 538.084 859.092C539.581 861.696 541.16 864.479 542.82 867.441C544.513 870.404 546.238 873.48 547.996 876.67C549.754 879.86 551.479 883.034 553.172 886.191C557.241 893.743 560.317 899.652 562.4 903.916C563.41 893.76 563.914 884.922 563.914 877.402C563.914 867.604 563.149 857.936 561.619 848.398C561.196 848.464 560.789 848.496 560.398 848.496H559.129C554.702 848.496 552.212 848.187 551.658 847.568C551.105 846.917 550.828 846.25 550.828 845.566C550.828 844.883 551.089 844.297 551.609 843.809C552.163 843.32 552.765 843.076 553.416 843.076H553.709Z" fill="white"/>
<defs>
<filter id="filter0_f_1_7007" x="37.9517" y="255.966" width="629.746" height="364.412" filterUnits="userSpaceOnUse" color-interpolation-filters="sRGB">
<feFlood flood-opacity="0" result="BackgroundImageFix"/>
<feBlend mode="normal" in="SourceGraphic" in2="BackgroundImageFix" result="shape"/>
<feGaussianBlur stdDeviation="20" result="effect1_foregroundBlur_1_7007"/>
</filter>
<clipPath id="clip0_1_7007">
<rect width="550" height="283.929" fill="white" transform="translate(78 270)"/>
</clipPath>
</defs>
</svg>
