<svg width="706" height="1000" viewBox="0 0 706 1000" fill="none" xmlns="http://www.w3.org/2000/svg">
<path d="M706 0H0V1000H706V0Z" fill="#191919"/>
<g filter="url(#filter0_f_6_835)">
<path d="M418.331 556.551C485.452 529.114 516.99 450.915 488.774 381.889C460.558 312.862 383.273 279.147 316.152 306.584C249.031 334.022 217.492 412.221 245.708 481.247C273.925 550.274 351.21 583.988 418.331 556.551Z" fill="black"/>
<path opacity="0.76" d="M295.523 543.009C306.705 550.464 319.13 556.676 331.968 560.404C338.595 559.989 344.807 559.161 350.605 558.333C360.959 556.676 411.901 541.352 409.001 527.271C404.86 528.928 400.718 530.17 396.163 530.998C418.527 514.018 467.398 503.25 476.509 473.016C473.196 474.259 468.226 474.259 464.913 475.087C474.024 464.319 486.863 454.794 498.045 444.025C498.459 437.813 498.459 431.601 498.045 425.388C470.297 453.137 437.992 478.4 402.789 492.068C413.143 480.471 465.327 457.693 457.458 436.571C424.325 450.652 398.648 483.37 369.242 503.664C350.191 516.503 330.726 529.342 309.604 538.039C305.462 540.11 300.492 541.766 295.523 543.009Z" fill="black"/>
<path opacity="0.76" d="M237.955 401.367C232.985 425.803 234.642 451.894 243.753 476.33C256.592 462.248 266.117 440.298 280.199 429.116C287.239 423.732 344.393 391.842 340.252 381.902C334.453 368.649 295.108 398.882 286.411 394.327C305.877 376.104 334.039 359.952 359.303 351.254C372.142 346.699 386.637 342.971 399.89 340.486C409.83 338.83 422.255 340.486 431.366 334.688C437.992 330.546 441.72 326.819 443.376 323.092C435.922 317.293 427.639 312.738 418.941 308.596C418.941 308.596 418.941 308.596 418.527 308.596C387.465 311.495 355.161 328.476 327.827 341.315C292.209 358.709 260.319 377.346 237.955 401.367Z" fill="black"/>
<path opacity="0.76" d="M298.422 496.623C326.17 491.239 359.303 474.259 381.667 456.864C395.334 446.51 420.598 429.944 423.911 412.55C413.143 417.934 387.051 442.369 376.697 436.156C386.223 421.661 406.102 412.55 420.184 403.024C425.982 399.297 454.559 388.114 453.316 378.175C450.831 362.851 383.738 402.196 377.94 405.509C340.666 426.631 295.937 449.824 298.422 496.623Z" fill="black"/>
<path opacity="0.76" d="M278.128 509.462C282.27 505.321 301.321 477.986 288.482 473.845C276.886 470.117 248.723 513.604 271.087 516.089L278.128 509.462Z" fill="black"/>
<path opacity="0.76" d="M453.316 407.994C463.256 407.166 489.348 396.398 490.176 383.973C477.751 378.589 457.872 393.913 450.831 403.438L453.316 407.994Z" fill="black"/>
<path opacity="0.76" d="M287.239 397.226C297.179 398.054 305.877 392.256 314.574 387.7C317.059 386.458 337.352 376.104 337.767 382.73C337.767 383.559 339.009 383.973 339.009 383.144C341.908 375.69 330.726 378.589 327.413 379.417C313.331 383.973 301.321 393.084 286.825 396.397C286.825 396.812 286.825 397.226 287.239 397.226Z" fill="black"/>
<path opacity="0.76" d="M280.199 366.164C269.845 374.033 258.663 380.66 249.965 390.185C249.965 390.185 249.965 390.599 250.38 390.185C259.905 380.66 272.33 374.033 283.098 366.164C294.28 358.295 305.462 351.254 317.887 345.042C345.221 331.375 374.212 321.849 403.203 311.081C404.032 310.667 403.618 309.425 402.789 309.839C372.97 315.637 343.151 329.718 316.23 343.385C303.392 350.012 291.381 357.467 280.199 366.164Z" fill="black"/>
<path opacity="0.76" d="M273.986 482.128C271.501 485.441 268.602 488.754 266.532 492.482C263.633 497.452 264.461 503.25 261.976 508.22C263.218 506.563 263.633 505.321 264.047 503.25C265.289 497.452 266.946 493.31 270.259 488.754C274.401 482.956 280.199 473.016 288.896 475.087C289.724 475.501 290.139 473.845 289.31 473.431C282.684 471.36 277.714 477.158 273.986 482.128Z" fill="black"/>
<path opacity="0.76" d="M321.614 442.369C305.462 456.45 298.836 474.673 298.836 496.623C300.492 485.855 301.735 474.673 306.705 464.733C311.675 454.794 319.544 447.339 328.241 440.712C343.565 428.702 360.545 417.934 377.111 407.994C381.667 405.095 446.69 364.922 452.902 376.518C453.73 378.175 456.215 376.932 455.387 375.275C449.175 360.366 395.334 394.327 388.294 398.468C365.101 411.307 341.908 424.974 321.614 442.369Z" fill="black"/>
<path opacity="0.76" d="M450.831 404.681C451.246 404.681 451.246 404.681 450.831 404.681C448.346 399.711 476.095 386.872 479.408 383.973C480.236 383.144 478.994 382.316 478.166 382.73C475.267 383.973 445.861 401.367 450.831 404.681Z" fill="black"/>
<path opacity="0.76" d="M377.111 436.571C395.334 445.682 410.244 419.176 424.325 413.378C425.568 412.964 425.154 410.893 423.911 411.307C417.699 412.135 413.143 417.519 408.587 421.661C400.304 429.53 389.122 438.641 377.111 435.742C376.697 435.742 376.697 436.571 377.111 436.571Z" fill="black"/>
<path opacity="0.76" d="M419.355 461.42C406.102 472.188 394.92 484.199 381.253 494.553C368.828 503.664 356.404 512.776 343.151 521.059C331.968 528.099 319.544 540.11 305.877 541.767C305.877 541.767 305.462 542.181 305.877 542.181C315.402 543.009 323.271 537.625 330.726 532.241C344.393 523.129 358.889 514.846 372.556 504.907C385.809 495.381 399.062 485.855 411.072 474.259C425.568 460.178 442.548 449.824 459.114 439.056C461.185 437.813 459.114 434.914 457.044 436.157C444.205 444.026 430.952 451.895 419.355 461.42Z" fill="black"/>
<path opacity="0.76" d="M495.56 424.56C483.136 439.884 470.711 453.551 454.559 465.148C439.649 475.916 423.083 482.542 406.931 491.239V491.654C443.791 486.27 475.681 454.38 498.045 427.045C499.288 425.389 496.803 422.904 495.56 424.56Z" fill="black"/>
<path opacity="0.76" d="M396.991 532.241C398.648 533.483 401.133 531.827 402.789 530.998C404.032 530.584 410.244 526.443 410.244 528.928C410.244 528.928 410.244 528.928 410.658 528.928C411.072 528.099 411.486 528.099 411.486 527.271C411.486 526.857 411.486 526.443 411.072 526.443C408.587 526.443 406.517 527.271 404.446 528.513C403.203 529.342 401.961 529.756 400.718 530.584C399.476 530.998 398.648 530.998 397.405 531.412C396.163 531.412 396.577 531.827 396.991 532.241Z" fill="black"/>
<path opacity="0.76" d="M466.569 475.087C466.569 475.501 466.569 475.916 466.983 475.916C468.226 476.33 469.883 475.087 471.125 474.259C472.367 473.845 474.852 472.602 476.095 473.431C475.267 473.017 475.267 472.602 474.438 472.188C473.61 471.774 472.782 472.188 471.539 472.188C470.297 473.017 467.398 473.845 466.569 475.087Z" fill="black"/>
<path opacity="0.76" d="M458.7 472.188C449.175 478.815 438.407 482.542 430.952 491.654C430.123 492.482 430.538 493.724 431.78 494.139C435.093 494.967 437.164 494.553 440.063 493.724C442.134 492.896 443.791 491.654 445.861 491.239C447.104 489.997 448.761 489.583 450.417 490.411C453.316 490.411 453.316 491.239 450.417 492.896C447.104 499.523 434.265 503.25 428.053 505.321C421.426 507.392 414.386 509.048 407.345 511.119C377.94 519.402 355.575 541.352 326.17 550.05C325.756 550.05 326.17 550.464 326.17 550.464C355.575 544.252 377.526 522.715 406.102 514.846C416.87 511.533 428.467 509.877 438.821 504.492C444.619 501.593 455.387 496.209 456.63 488.755C456.63 487.926 456.63 487.512 455.801 487.098C452.074 485.027 448.346 487.098 444.619 488.755C442.548 489.583 440.892 490.411 438.821 491.239C433.851 492.482 433.437 491.654 437.164 489.169C440.063 485.441 445.861 482.956 450.003 480.886C466.569 471.36 478.166 456.864 491.833 443.611C492.661 442.783 491.419 441.541 490.59 441.955C479.408 450.652 470.711 463.491 458.7 472.188Z" fill="black"/>
<path opacity="0.76" d="M425.568 465.148C425.154 465.562 425.568 466.804 426.396 466.39C433.023 465.976 437.164 460.592 440.892 455.622C441.72 454.794 440.063 453.551 439.649 454.379C437.578 457.279 434.679 461.834 431.366 463.077C423.083 466.804 433.437 457.693 434.679 456.036C437.578 453.551 450.831 442.783 451.66 447.753C453.73 457.693 428.467 469.703 421.84 473.016C415.214 476.744 376.697 495.795 385.809 502.007C389.95 504.907 401.961 499.108 406.102 497.452C408.173 496.623 422.255 491.239 422.255 494.138C421.84 498.28 409.83 499.108 406.102 499.937C391.607 503.664 377.94 511.947 365.101 519.816C349.363 529.342 334.039 544.251 314.988 545.908C329.483 546.322 340.666 537.211 352.262 530.17C368.414 520.23 386.223 508.634 404.446 503.25C406.931 502.422 437.164 495.381 423.497 489.997C417.285 487.512 406.517 494.553 401.133 496.623C393.678 499.108 381.253 502.836 394.092 492.482C400.304 487.512 407.759 483.785 414.386 480.057C427.224 472.602 455.387 462.663 454.145 443.611C454.145 442.783 453.316 442.369 452.488 442.369C442.548 445.682 429.295 454.794 425.568 465.148Z" fill="black"/>
<path opacity="0.76" d="M335.696 554.191C335.282 554.191 335.282 554.605 335.696 554.605C346.05 557.09 356.404 553.777 366.343 551.292C374.212 549.635 391.607 546.736 395.748 537.625C400.304 527.271 380.839 531.413 376.283 532.655C372.556 533.897 351.434 540.938 358.06 547.979C363.858 554.191 382.495 543.009 386.223 537.625C386.637 537.211 386.223 536.382 385.395 535.968C380.425 534.312 375.869 536.797 371.727 539.696C370.899 540.11 371.727 541.766 372.556 540.938C376.283 538.867 385.809 536.382 377.94 541.352C375.041 543.009 369.242 546.736 365.101 546.736C361.788 546.322 358.06 546.322 361.788 541.352C362.616 540.11 365.101 539.282 366.343 538.867C370.071 537.211 373.798 535.554 377.526 534.312C380.425 533.483 386.223 531.413 389.536 532.655C399.89 537.625 377.94 546.322 372.97 547.565C361.788 551.292 347.706 555.019 335.696 554.191Z" fill="black"/>
<path opacity="0.76" d="M369.657 352.497C369.242 353.325 369.242 354.153 370.071 354.568C377.94 356.224 368 359.538 365.515 360.78C360.959 362.851 355.161 362.851 350.605 364.093C342.736 366.578 335.696 369.477 329.069 374.447C328.655 374.861 328.655 375.69 329.069 375.69C335.696 381.074 345.636 374.033 351.848 378.175C365.929 387.7 309.604 422.075 303.392 427.045C292.209 435.328 245.41 464.733 255.764 485.441C247.895 465.147 292.624 437.399 304.22 428.702C319.958 417.105 347.706 405.509 355.575 386.044C358.474 379.003 354.747 376.932 348.12 376.518C344.807 376.518 341.494 376.932 338.595 376.518C327.413 374.861 339.837 370.306 345.636 368.235C356.818 364.507 368.828 364.093 378.768 357.467C379.596 357.053 379.596 356.224 378.768 355.396C380.011 356.638 374.212 350.426 373.798 352.083C374.212 348.355 386.223 347.113 388.294 346.699C395.749 345.87 402.789 346.285 410.244 346.699C423.083 347.113 437.578 346.699 441.72 332.203C442.134 330.961 440.063 330.547 439.649 331.789C430.538 359.538 385.395 332.617 369.657 352.497Z" fill="black"/>
<path opacity="0.76" d="M330.312 312.738C326.998 318.95 331.14 322.678 323.685 328.062C319.13 331.789 311.261 331.789 305.877 333.032C295.937 335.517 286.411 338.001 281.027 347.113C280.613 347.527 281.027 348.355 281.441 348.77C286.825 352.497 291.795 348.355 296.765 346.699C304.634 344.214 298.422 347.113 294.28 349.184C290.139 351.254 285.997 352.497 281.855 354.568C274.401 357.881 257.006 363.265 259.077 374.447C259.077 375.276 259.905 375.69 260.733 375.69C265.289 374.447 265.289 374.033 261.562 376.932C259.077 378.589 256.178 379.831 253.279 381.074C249.137 383.145 245.41 385.215 242.511 389.357C241.682 390.185 242.925 391.428 243.753 390.599C251.208 383.145 262.39 381.488 269.431 373.205C270.259 372.376 269.431 370.72 268.188 371.134C256.592 374.447 266.117 365.75 270.673 362.851C275.643 359.952 281.441 357.881 286.825 355.396C293.038 352.911 300.907 350.426 305.462 345.456C306.291 344.628 305.876 343.386 304.634 343.386C301.735 342.971 300.078 342.971 297.179 343.8C296.351 344.214 290.553 347.527 289.724 347.113C290.967 344.628 292.209 341.729 293.866 339.244C295.523 338.416 297.593 338.001 299.664 337.173C307.947 334.688 321.2 334.688 327.413 327.648C329.483 325.163 329.483 322.678 330.726 320.193C333.625 313.566 327.413 317.708 339.423 311.495C347.292 307.768 346.878 307.354 353.919 309.425C366.758 313.152 373.384 310.667 385.809 305.697C377.526 307.768 369.657 311.91 360.959 310.253C355.575 309.011 350.605 306.111 345.221 306.111C339.423 305.283 333.211 307.354 330.312 312.738Z" fill="black"/>
<path opacity="0.76" d="M467.398 363.679C472.782 375.275 464.498 381.488 456.215 388.114C450.831 392.256 444.619 394.741 439.649 399.297C433.437 404.681 437.992 410.893 435.093 418.348C428.881 434.5 413.557 439.056 402.789 449.824C399.476 453.551 399.89 453.965 399.89 458.107C400.304 458.521 400.718 458.521 401.133 458.935C404.032 459.763 404.032 462.663 401.547 467.632C399.89 470.946 392.849 475.087 389.536 476.744C379.182 482.542 368.828 482.956 357.646 485.441C343.979 488.34 336.524 499.108 326.584 508.634C322.443 512.775 291.795 538.453 288.068 521.059C290.139 538.453 318.715 516.917 323.685 512.775C333.211 504.492 341.08 492.482 353.505 488.34C363.03 485.027 372.97 485.855 382.081 482.128C389.122 479.229 405.274 472.188 405.688 461.834C405.688 458.107 402.375 459.349 402.789 455.208C402.789 448.581 413.557 444.854 418.527 441.126C427.639 433.672 437.992 421.661 440.477 409.65C440.477 408.822 439.235 407.58 439.235 407.166C440.063 399.711 441.72 400.539 446.69 397.226C453.316 393.084 459.529 388.528 465.327 383.144C468.226 380.659 474.852 374.861 474.852 370.306C474.438 364.922 460.357 359.537 471.125 352.497C471.953 352.083 471.125 350.426 470.297 351.254C462.842 354.982 464.498 357.881 467.398 363.679Z" fill="black"/>
<path opacity="0.76" d="M445.447 423.732C440.892 427.045 437.992 432.429 433.437 436.157C429.709 439.056 425.568 441.541 421.426 444.44C419.355 446.096 415.214 448.581 414.8 451.48C414.386 456.036 416.456 456.45 420.184 455.622C424.739 454.38 431.78 447.339 435.093 444.44C442.962 437.813 450.417 430.773 460.357 426.631C460.771 426.631 460.357 426.217 460.357 426.217C447.932 429.116 437.992 438.642 428.053 446.511C425.154 448.581 416.042 455.622 421.012 446.925C423.497 442.783 430.952 439.884 434.679 436.985C442.134 430.773 447.104 422.904 457.044 420.005C462.842 418.348 468.64 418.348 474.024 415.863C480.651 412.964 488.105 408.408 488.934 400.125C484.792 420.833 457.872 414.62 445.447 423.732Z" fill="black"/>
<path opacity="0.76" d="M412.729 353.325C406.931 353.325 401.961 352.911 399.062 358.709C398.648 359.538 399.476 360.366 400.304 360.366C404.032 360.78 407.345 359.952 410.658 359.952C411.901 359.952 416.87 358.709 417.699 359.538C416.042 362.437 414.386 365.75 413.143 368.649C411.901 368.649 411.072 368.649 409.83 368.649C402.789 370.306 394.092 366.992 386.637 368.235C367.172 371.134 386.637 379.417 380.425 390.185C377.526 394.741 368.414 398.883 363.444 401.367C355.989 405.095 348.535 408.408 341.08 411.721C330.312 416.691 321.2 422.904 312.503 430.358C301.321 440.298 291.795 451.48 281.855 462.249C279.785 464.319 272.33 475.087 269.431 475.087C268.188 473.017 266.946 471.36 265.289 469.289C266.532 468.047 268.188 466.804 269.431 465.562C271.916 463.491 274.815 461.834 278.128 460.592C271.087 463.491 260.733 468.875 261.148 477.986C261.148 478.401 261.562 478.401 261.562 478.401C273.572 479.229 284.34 462.248 291.381 454.794C300.492 445.268 309.19 435.328 319.13 427.459C329.069 419.59 340.252 414.62 351.848 409.236C360.545 405.095 383.738 397.226 386.223 385.63C387.465 380.66 384.566 381.902 383.324 378.589C379.182 366.992 393.264 369.477 399.476 369.892C405.274 370.306 424.325 372.791 425.154 362.023C425.568 355.396 417.699 356.639 413.143 356.639C410.244 356.639 406.517 357.881 403.617 357.467C395.749 356.224 411.901 355.396 413.971 355.396C421.426 354.982 427.224 355.396 434.679 352.497C440.477 350.012 453.316 342.971 451.245 334.274C451.245 333.446 450.417 333.446 449.589 333.446C447.518 334.274 448.346 334.274 445.861 336.345C445.033 337.173 445.861 338.83 447.104 338.002C447.932 337.587 445.861 342.971 445.447 343.386C442.548 347.527 435.093 350.84 430.538 352.083C424.325 354.154 418.941 353.739 412.729 353.325Z" fill="black"/>
<path opacity="0.76" d="M379.596 419.176C366.758 426.631 353.09 430.773 340.666 439.056C339.837 439.47 339.837 441.127 341.08 441.127C344.807 441.541 348.12 440.712 351.848 440.298C358.474 439.47 364.273 441.127 358.889 448.996C356.404 452.723 349.777 453.965 345.636 455.208C338.595 457.693 321.2 460.178 319.13 469.289C317.473 475.087 321.614 475.087 326.17 475.087C341.08 474.259 351.434 463.491 363.03 456.036C355.161 461.006 348.12 467.633 339.423 470.946C336.11 472.188 329.483 474.673 326.17 473.845C310.846 468.875 344.807 458.521 349.363 456.864C354.333 455.208 373.798 444.026 363.03 437.813C359.717 436.157 346.05 441.541 344.807 439.47C345.221 439.884 378.354 423.318 383.324 420.419C396.163 412.55 405.688 400.953 418.527 393.499C422.669 391.014 427.224 388.114 431.366 386.458C437.578 383.973 440.892 384.801 435.093 390.599C432.194 393.499 425.568 394.327 421.84 395.569C420.598 395.983 421.426 397.64 422.255 397.226C430.952 395.569 439.235 392.67 443.377 384.387C443.791 383.973 443.377 382.73 442.962 382.73C432.194 378.175 415.214 391.842 407.759 397.64C398.233 404.267 389.95 413.378 379.596 419.176Z" fill="black"/>
<path opacity="0.76" d="M266.532 390.185C266.946 392.67 270.673 392.67 271.501 394.327C273.572 400.125 253.279 410.479 249.965 414.62C249.551 415.035 249.551 415.449 249.965 415.863C259.077 422.075 269.017 418.348 277.714 413.792C284.34 410.479 290.967 406.337 297.593 402.61C300.078 401.367 319.958 387.7 320.372 396.398C320.786 400.953 287.654 417.934 283.512 420.419C275.643 425.389 266.946 430.773 260.733 438.227C254.521 446.096 250.794 455.622 245.41 464.319C245.41 464.733 245.824 464.733 245.824 464.733C251.622 456.864 255.349 446.925 261.562 439.47C269.845 429.53 281.855 423.732 292.209 416.691C300.492 411.307 316.645 405.923 321.614 396.812C323.685 392.67 323.271 391.014 318.715 390.599C315.402 390.185 311.261 393.084 308.361 394.741C300.078 398.883 292.209 403.852 283.926 408.408C278.128 411.721 269.431 417.934 262.39 417.52C257.42 417.105 254.935 413.378 258.249 409.236C259.491 407.994 262.39 406.751 263.633 405.923C266.117 404.267 271.087 402.196 272.33 399.297C275.229 393.084 266.946 392.256 269.845 386.872C271.502 383.973 280.199 380.66 283.098 379.003C288.068 376.104 293.038 372.791 297.593 369.892C307.947 363.679 318.301 357.881 329.069 352.083C349.363 340.486 367.586 330.133 390.364 323.92C399.476 321.435 407.345 320.193 416.87 322.264C426.81 324.748 418.113 330.547 412.729 331.375C408.173 332.203 402.375 330.547 397.405 329.718C379.596 327.648 363.03 335.102 348.535 344.628C347.706 345.042 348.535 346.285 349.363 345.87C367.586 335.102 383.738 330.133 404.446 332.617C409.83 333.032 422.669 335.931 425.982 329.718C434.265 314.809 394.092 320.193 389.536 321.435C351.848 332.203 319.13 354.154 286.411 374.861C283.512 376.932 265.289 383.559 266.532 390.185Z" fill="black"/>
<path opacity="0.76" d="M267.774 500.765C267.774 501.179 268.188 501.593 268.602 501.593C275.643 502.008 283.098 487.926 283.926 482.128C283.926 481.714 283.512 481.3 283.098 481.3C282.27 481.714 281.855 481.714 281.441 482.128C283.512 480.057 286.411 477.158 288.068 480.057C289.31 482.542 285.997 487.512 284.755 489.583C283.098 492.482 273.158 508.634 268.602 506.563C268.602 506.563 268.188 506.977 268.602 506.977C274.401 507.806 280.199 499.108 283.098 494.967C285.583 491.654 292.209 483.371 288.896 478.815C283.098 470.946 269.017 496.209 267.774 500.765ZM282.27 483.371C282.27 484.199 281.027 485.855 281.027 486.684C279.785 488.755 278.542 490.825 277.3 492.896C276.057 494.553 275.229 495.795 273.986 497.038C273.158 497.866 271.916 499.108 271.087 499.523C269.845 499.937 270.259 500.765 270.259 499.937C269.845 498.28 273.572 493.724 273.986 492.482C275.643 489.997 276.886 487.512 278.956 485.441H279.37C280.613 484.613 281.855 483.37 283.098 482.542C282.27 482.956 282.27 482.956 282.27 483.371Z" fill="black"/>
<path opacity="0.76" d="M495.146 449.824C490.59 455.622 484.378 459.349 479.822 465.147C479.408 465.562 479.822 466.804 480.236 466.804C482.721 467.218 483.964 466.39 486.035 466.804C489.348 467.218 488.105 462.248 488.52 468.461C488.934 472.188 486.035 475.501 483.964 477.986C479.822 483.784 474.024 488.34 470.297 494.553C469.883 494.967 470.297 495.795 470.711 496.209C476.095 499.108 454.973 512.775 452.488 514.018C441.306 520.23 428.467 521.473 418.113 528.513C417.699 528.928 417.699 529.756 418.113 530.17C421.012 533.483 421.84 531.827 424.739 533.483C430.952 536.382 430.538 537.211 423.911 541.766C419.77 545.08 415.214 547.15 410.658 549.635C405.688 552.12 401.133 555.019 396.163 557.504C392.849 559.161 389.536 560.818 385.809 562.06C383.738 562.888 381.667 563.303 379.596 563.303C377.111 556.262 379.596 553.777 387.88 556.262C388.294 556.262 388.294 555.848 387.88 555.848C381.253 554.605 375.041 556.676 370.899 561.646C370.899 562.06 370.485 562.474 370.899 562.474C378.354 567.858 388.294 563.303 395.334 559.575C409.002 552.949 424.739 546.736 433.851 534.312C434.265 533.897 434.265 533.069 433.437 532.655C430.123 530.584 422.255 533.069 422.255 528.099C422.255 525.614 448.346 518.988 451.245 517.331C457.458 514.018 469.468 508.22 472.782 501.593C473.61 499.937 473.196 498.28 473.61 496.623C473.61 496.209 472.367 495.381 472.367 494.967C472.782 492.482 476.095 489.583 477.752 487.926C483.136 481.714 492.661 473.016 490.176 463.491C490.176 462.662 489.348 462.662 488.52 463.077C487.277 464.319 485.62 464.733 484.378 463.905C479.822 463.905 481.479 461.834 488.934 458.107C492.247 454.794 492.247 455.208 494.732 451.48C497.217 450.238 495.974 448.995 495.146 449.824Z" fill="black"/>
<path opacity="0.76" d="M402.375 526.857C401.547 526.443 401.133 526.443 402.375 526.857V526.857Z" fill="black"/>
<path opacity="0.76" d="M402.375 526.857C403.617 527.271 405.688 527.685 405.274 527.685C408.173 526.443 408.173 527.271 406.102 530.17C405.688 532.241 404.446 533.897 402.375 534.726C396.163 541.352 386.223 544.666 377.94 547.979C363.858 553.777 349.777 558.747 334.039 559.161C334.039 559.161 333.625 559.575 334.039 559.575C344.393 562.06 355.161 558.747 365.101 555.848C377.111 552.12 389.95 547.565 400.718 540.524C404.032 538.453 415.628 531.413 413.143 525.614C411.072 521.059 406.517 524.372 402.789 523.958C400.718 523.958 400.718 526.443 402.375 526.857Z" fill="black"/>
<path opacity="0.76" d="M472.782 470.117C472.367 470.946 472.782 472.188 473.61 472.602C487.277 478.4 452.074 501.593 446.69 504.078C435.922 509.048 423.911 512.361 414.8 520.644V521.059C435.093 509.876 466.569 504.492 478.994 482.128C481.479 477.572 481.065 475.916 479.822 471.774C479.408 469.289 477.752 472.602 478.166 468.875C478.166 466.39 482.307 463.905 483.55 462.248C487.691 458.521 492.247 455.208 495.974 451.48C497.217 450.238 495.56 448.581 494.318 449.409C486.449 454.794 478.166 461.834 472.782 470.117Z" fill="black"/>
<path opacity="0.76" d="M457.458 436.571C473.196 451.894 415.214 484.199 405.274 491.239C404.86 491.239 405.274 492.068 405.688 491.653C421.012 482.956 436.336 474.259 449.589 462.248C454.559 458.107 460.357 452.723 462.428 446.096C463.256 443.611 461.185 434.5 461.185 434.5C462.428 433.672 460.771 432.015 459.529 432.843C458.7 433.257 458.286 433.671 457.458 434.086C456.63 434.5 456.63 435.742 457.458 436.571Z" fill="black"/>
<path opacity="0.76" d="M423.083 413.378C423.497 424.974 413.557 433.257 405.688 440.298C395.748 449.41 384.98 457.693 372.97 464.733C349.777 478.815 324.514 485.441 300.078 495.795C300.078 495.795 300.078 496.209 300.078 495.795C329.483 492.482 360.545 477.158 384.98 460.592C399.062 451.066 427.224 433.257 425.982 412.964C425.982 411.307 423.083 411.721 423.083 413.378Z" fill="black"/>
<path opacity="0.76" d="M337.767 379.417C345.221 388.528 294.28 415.034 290.967 417.105C279.785 423.732 271.501 432.015 264.047 442.783C257.006 453.137 252.45 465.976 243.339 474.259C242.925 474.259 243.339 474.673 243.753 474.673C248.309 472.188 251.208 468.461 254.107 463.905C259.491 455.208 264.875 446.925 271.087 439.056C285.169 422.075 304.22 416.277 321.2 403.852C325.756 400.539 350.191 383.144 339.837 376.932C338.595 376.518 336.938 378.175 337.767 379.417Z" fill="black"/>
<path opacity="0.76" d="M286.825 393.912C310.018 371.962 336.938 359.952 367.172 350.426C383.324 345.456 399.062 342.971 415.628 340.9C426.396 339.244 434.265 335.102 442.134 327.647C443.377 325.991 440.892 323.92 439.235 325.162C425.568 338.001 409.83 336.759 392.435 340.072C376.697 342.971 361.374 348.355 346.05 353.739C324.099 361.608 300.078 373.205 286.825 393.912Z" fill="black"/>
<path opacity="0.76" d="M348.949 502.422C341.08 503.25 336.524 505.321 331.968 511.947C327.827 517.746 324.928 523.958 319.544 528.514C310.432 535.968 298.836 538.039 287.654 532.655C298.422 539.282 310.846 537.211 320.372 529.756C324.099 526.857 326.584 522.715 329.483 518.574C334.867 510.705 339.009 504.907 349.363 504.078C352.676 503.664 355.989 504.078 358.889 503.25C370.485 500.351 370.485 489.583 380.425 486.27C393.678 482.128 403.203 478.815 410.244 465.562C410.658 465.148 409.83 464.733 409.416 465.148C404.032 473.845 396.577 481.3 386.637 483.785C382.91 484.613 377.526 483.785 374.627 485.855C372.97 487.098 372.97 488.34 372.142 489.169C371.727 490.411 370.899 492.068 370.485 493.31C367.586 497.866 363.858 500.351 358.889 501.179C355.161 502.008 352.262 502.008 348.949 502.422Z" fill="black"/>
<path opacity="0.76" d="M440.063 353.325C442.962 358.295 438.821 363.679 435.093 365.75C432.608 366.992 430.124 368.235 427.639 369.063C423.497 370.306 418.527 369.891 414.386 371.548C409.416 373.619 411.072 374.033 409.83 376.932C406.931 383.973 409.002 383.559 402.789 386.458C400.304 387.7 397.819 388.529 395.334 389.357C391.607 390.599 388.708 392.256 385.395 394.327C372.142 401.367 358.889 406.751 346.878 415.863C331.14 427.873 307.119 440.712 300.078 460.592C295.937 471.774 299.664 485.027 294.28 495.795C290.553 503.25 281.855 507.806 280.613 516.503C280.613 516.917 281.027 517.331 281.441 517.331C285.583 517.331 287.654 516.503 290.967 514.018C291.381 514.018 290.967 513.604 290.553 513.604C284.34 512.775 283.098 510.705 286.825 508.22C287.654 507.391 288.068 506.563 288.896 506.149C290.967 504.078 293.038 502.007 294.694 499.522C297.179 495.381 298.422 489.997 298.836 485.027C300.078 475.916 298.836 466.804 302.977 458.521C307.119 449.824 314.988 443.197 322.443 437.399C337.767 425.803 352.676 412.55 370.071 404.266C377.111 400.953 383.738 397.226 390.779 393.913C396.577 391.428 403.203 390.185 408.587 386.458C411.486 384.387 411.901 383.144 413.557 380.66C414.386 379.417 413.143 379.003 413.557 378.175C414.8 375.275 419.355 373.619 423.497 372.376C429.709 370.72 440.477 368.649 443.791 361.608C445.033 359.538 443.791 357.467 444.619 355.396C445.447 353.325 442.962 354.568 444.619 352.497C445.447 351.254 450.831 351.254 452.074 350.84C457.458 349.598 464.084 347.941 462.842 341.315C462.428 340.072 460.357 340.486 460.771 341.729C462.014 348.769 445.447 349.598 441.72 350.84C439.649 351.669 439.649 352.911 440.063 353.325Z" fill="black"/>
<path opacity="0.47" d="M300.907 313.98C237.955 350.012 216.419 431.601 252.864 496.623C254.521 499.522 256.178 502.007 257.834 504.492C261.976 506.977 266.117 509.048 271.087 510.705C303.806 521.473 343.151 513.604 369.242 492.068C394.092 471.36 412.729 432.843 416.042 400.539C418.527 376.518 414.8 350.012 402.789 328.476C394.506 313.566 383.738 303.626 371.313 297C347.292 296.172 323.271 301.141 300.907 313.98Z" fill="black"/>
<path opacity="0.42" d="M481.479 366.164C466.569 339.658 444.619 320.193 418.941 308.596C418.941 309.01 419.355 309.01 419.355 309.425C447.932 356.638 447.518 420.833 412.729 463.491C396.163 483.37 373.798 502.007 351.02 514.018C327.827 526.443 302.149 530.998 277.3 528.099C318.715 567.858 381.667 578.212 433.023 548.807C496.389 513.19 517.925 431.187 481.479 366.164Z" fill="black"/>
<path opacity="0.42" d="M481.479 366.164C476.509 357.053 470.297 348.77 463.67 341.315C464.084 343.385 464.498 345.456 464.913 347.113C474.438 391.842 475.267 434.5 449.589 472.602C442.134 483.37 436.336 494.967 427.224 504.492C417.699 514.018 406.517 521.887 394.92 528.513C384.566 534.312 373.798 538.453 362.616 542.595C343.565 549.635 329.069 552.12 312.089 552.12C322.029 557.09 332.797 560.818 343.565 562.888C356.404 562.474 369.242 560.404 380.011 557.919C392.435 555.019 403.203 549.635 413.557 541.766C427.224 531.413 441.72 521.059 452.902 508.22C461.599 498.28 470.297 488.34 477.751 477.572C489.762 460.178 493.075 443.611 494.318 422.489C494.732 414.62 495.146 406.751 495.146 398.882C491.833 388.114 487.277 376.932 481.479 366.164Z" fill="black"/>
<path d="M471.539 351.255C474.438 354.982 477.337 359.123 479.822 363.679C526.208 350.426 557.684 346.285 561.411 354.982C567.623 369.892 485.62 417.105 379.182 460.592C272.744 504.078 180.801 527.685 175.003 512.776C171.69 504.492 196.953 485.027 239.197 462.249C237.955 457.279 237.126 452.723 236.298 447.753C146.012 491.654 87.2018 530.998 93.4141 545.908C102.111 567.03 231.742 533.483 383.738 471.774C535.733 410.065 651.283 342.557 642.586 321.435C636.373 306.526 566.795 319.364 471.539 351.255Z" fill="black"/>
<path opacity="0.47" d="M305.877 332.203C291.381 327.233 271.502 352.911 265.703 363.265C252.036 388.943 246.652 424.56 266.946 450.238C276.057 462.248 293.038 462.248 306.291 458.935C326.584 453.965 344.807 441.541 355.161 423.318C366.343 404.266 372.556 384.801 367.172 362.437C364.687 352.497 361.374 342.557 352.262 337.173C340.666 330.132 324.099 329.304 305.877 332.203Z" fill="black"/>
<path opacity="0.47" d="M278.956 367.407C270.673 376.104 262.39 402.61 281.855 403.438C306.705 403.852 300.078 358.295 278.956 367.407Z" fill="black"/>
<path opacity="0.51" d="M476.095 357.467C477.337 359.123 478.58 361.194 479.408 362.851C546.916 340.072 594.13 329.304 597.443 338.001C602.827 350.84 503.429 403.852 375.869 456.036C248.309 508.22 140.628 539.696 135.244 526.857C131.931 518.16 173.346 492.482 238.783 461.006C238.369 458.935 237.955 456.864 237.541 454.794C163.821 490.825 116.607 521.473 121.163 532.655C127.789 549.221 242.925 517.331 378.354 462.248C513.783 406.751 618.151 348.77 611.524 332.203C607.382 321.021 552.714 332.203 476.095 357.467Z" fill="black"/>
<path opacity="0.62" d="M481.893 366.992C483.964 370.306 485.62 374.033 487.277 377.346C494.318 376.518 498.459 376.932 499.288 379.003C502.601 387.286 446.69 418.348 374.627 447.753C302.149 477.158 240.854 494.552 237.541 485.855C236.712 483.784 239.197 480.471 244.581 476.33C243.339 472.602 242.096 468.875 240.854 465.147C202.752 485.441 179.559 501.593 182.458 508.22C187.428 520.23 274.815 495.795 377.526 453.965C480.236 412.135 559.755 368.235 554.785 356.224C551.471 350.012 523.309 354.568 481.893 366.992Z" fill="black"/>
</g>
<g clip-path="url(#clip0_6_835)">
<path d="M403.331 536.551C470.452 509.114 501.99 430.915 473.774 361.889C445.558 292.862 368.273 259.147 301.152 286.584C234.031 314.022 202.492 392.221 230.708 461.247C258.925 530.274 336.21 563.988 403.331 536.551Z" fill="#31ADE0"/>
<path opacity="0.76" d="M280.523 523.009C291.705 530.464 304.13 536.676 316.968 540.404C323.595 539.989 329.807 539.161 335.605 538.333C345.959 536.676 396.901 521.352 394.001 507.271C389.86 508.928 385.718 510.17 381.163 510.998C403.527 494.018 452.398 483.25 461.509 453.016C458.196 454.259 453.226 454.259 449.913 455.087C459.024 444.319 471.863 434.794 483.045 424.025C483.459 417.813 483.459 411.601 483.045 405.388C455.297 433.137 422.992 458.4 387.789 472.068C398.143 460.471 450.327 437.693 442.458 416.571C409.325 430.652 383.648 463.37 354.242 483.664C335.191 496.503 315.726 509.342 294.604 518.039C290.462 520.11 285.492 521.766 280.523 523.009Z" fill="#60BFEE"/>
<path opacity="0.76" d="M222.955 381.367C217.985 405.803 219.642 431.894 228.753 456.33C241.592 442.248 251.117 420.298 265.199 409.116C272.239 403.732 329.393 371.842 325.252 361.902C319.453 348.649 280.108 378.882 271.411 374.327C290.877 356.104 319.039 339.952 344.303 331.254C357.142 326.699 371.637 322.971 384.89 320.486C394.83 318.83 407.255 320.486 416.366 314.688C422.992 310.546 426.72 306.819 428.376 303.092C420.922 297.293 412.639 292.738 403.941 288.596C403.941 288.596 403.941 288.596 403.527 288.596C372.465 291.495 340.161 308.476 312.827 321.315C277.209 338.709 245.319 357.346 222.955 381.367Z" fill="#60BFEE"/>
<path opacity="0.76" d="M283.422 476.623C311.17 471.239 344.303 454.259 366.667 436.864C380.334 426.51 405.598 409.944 408.911 392.55C398.143 397.934 372.051 422.369 361.697 416.156C371.223 401.661 391.102 392.55 405.184 383.024C410.982 379.297 439.559 368.114 438.316 358.175C435.831 342.851 368.738 382.196 362.94 385.509C325.666 406.631 280.937 429.824 283.422 476.623Z" fill="#60BFEE"/>
<path opacity="0.76" d="M263.128 489.462C267.27 485.321 286.321 457.986 273.482 453.845C261.886 450.117 233.723 493.604 256.087 496.089L263.128 489.462Z" fill="#60BFEE"/>
<path opacity="0.76" d="M438.316 387.994C448.256 387.166 474.348 376.398 475.176 363.973C462.752 358.589 442.872 373.913 435.831 383.438L438.316 387.994Z" fill="#60BFEE"/>
<path opacity="0.76" d="M272.239 377.226C282.179 378.054 290.877 372.256 299.574 367.7C302.059 366.458 322.352 356.104 322.767 362.73C322.767 363.559 324.009 363.973 324.009 363.144C326.908 355.69 315.726 358.589 312.413 359.417C298.331 363.973 286.321 373.084 271.825 376.397C271.825 376.812 271.825 377.226 272.239 377.226Z" fill="#60BFEE"/>
<path opacity="0.76" d="M265.199 346.164C254.845 354.033 243.663 360.66 234.965 370.185C234.965 370.185 234.965 370.599 235.38 370.185C244.905 360.66 257.33 354.033 268.098 346.164C279.28 338.295 290.462 331.254 302.887 325.042C330.221 311.375 359.212 301.849 388.203 291.081C389.032 290.667 388.618 289.425 387.789 289.839C357.97 295.637 328.151 309.718 301.23 323.385C288.392 330.012 276.381 337.467 265.199 346.164Z" fill="#60BFEE"/>
<path opacity="0.76" d="M258.986 462.128C256.501 465.441 253.602 468.754 251.532 472.482C248.633 477.452 249.461 483.25 246.976 488.22C248.218 486.563 248.633 485.321 249.047 483.25C250.289 477.452 251.946 473.31 255.259 468.754C259.401 462.956 265.199 453.016 273.896 455.087C274.724 455.501 275.139 453.845 274.31 453.431C267.684 451.36 262.714 457.158 258.986 462.128Z" fill="#60BFEE"/>
<path opacity="0.76" d="M306.614 422.369C290.462 436.45 283.836 454.673 283.836 476.623C285.492 465.855 286.735 454.673 291.705 444.733C296.675 434.794 304.544 427.339 313.241 420.712C328.565 408.702 345.545 397.934 362.111 387.994C366.667 385.095 431.69 344.922 437.902 356.518C438.73 358.175 441.215 356.932 440.387 355.275C434.175 340.366 380.334 374.327 373.294 378.468C350.101 391.307 326.908 404.974 306.614 422.369Z" fill="#60BFEE"/>
<path opacity="0.76" d="M435.831 384.681C436.246 384.681 436.246 384.681 435.831 384.681C433.346 379.711 461.095 366.872 464.408 363.973C465.236 363.144 463.994 362.316 463.166 362.73C460.267 363.973 430.861 381.367 435.831 384.681Z" fill="#60BFEE"/>
<path opacity="0.76" d="M362.111 416.571C380.334 425.682 395.244 399.176 409.325 393.378C410.568 392.964 410.154 390.893 408.911 391.307C402.699 392.135 398.143 397.519 393.587 401.661C385.304 409.53 374.122 418.641 362.111 415.742C361.697 415.742 361.697 416.571 362.111 416.571Z" fill="#60BFEE"/>
<path opacity="0.76" d="M404.355 441.42C391.102 452.188 379.92 464.199 366.253 474.553C353.828 483.664 341.404 492.776 328.151 501.059C316.968 508.099 304.544 520.11 290.877 521.767C290.877 521.767 290.462 522.181 290.877 522.181C300.402 523.009 308.271 517.625 315.726 512.241C329.393 503.129 343.889 494.846 357.556 484.907C370.809 475.381 384.062 465.855 396.072 454.259C410.568 440.178 427.548 429.824 444.114 419.056C446.185 417.813 444.114 414.914 442.044 416.157C429.205 424.026 415.952 431.895 404.355 441.42Z" fill="#60BFEE"/>
<path opacity="0.76" d="M480.56 404.56C468.136 419.884 455.711 433.551 439.559 445.148C424.649 455.916 408.083 462.542 391.931 471.239V471.654C428.791 466.27 460.681 434.38 483.045 407.045C484.288 405.389 481.803 402.904 480.56 404.56Z" fill="#60BFEE"/>
<path opacity="0.76" d="M381.991 512.241C383.648 513.483 386.133 511.827 387.789 510.998C389.032 510.584 395.244 506.443 395.244 508.928C395.244 508.928 395.244 508.928 395.658 508.928C396.072 508.099 396.486 508.099 396.486 507.271C396.486 506.857 396.486 506.443 396.072 506.443C393.587 506.443 391.517 507.271 389.446 508.513C388.203 509.342 386.961 509.756 385.718 510.584C384.476 510.998 383.648 510.998 382.405 511.412C381.163 511.412 381.577 511.827 381.991 512.241Z" fill="#60BFEE"/>
<path opacity="0.76" d="M451.569 455.087C451.569 455.501 451.569 455.916 451.983 455.916C453.226 456.33 454.883 455.087 456.125 454.259C457.367 453.845 459.852 452.602 461.095 453.431C460.267 453.017 460.267 452.602 459.438 452.188C458.61 451.774 457.782 452.188 456.539 452.188C455.297 453.017 452.398 453.845 451.569 455.087Z" fill="#60BFEE"/>
<path opacity="0.76" d="M443.7 452.188C434.175 458.815 423.407 462.542 415.952 471.654C415.123 472.482 415.538 473.724 416.78 474.139C420.093 474.967 422.164 474.553 425.063 473.724C427.134 472.896 428.791 471.654 430.861 471.239C432.104 469.997 433.761 469.583 435.417 470.411C438.316 470.411 438.316 471.239 435.417 472.896C432.104 479.523 419.265 483.25 413.053 485.321C406.426 487.392 399.386 489.048 392.345 491.119C362.94 499.402 340.575 521.352 311.17 530.05C310.756 530.05 311.17 530.464 311.17 530.464C340.575 524.252 362.526 502.715 391.102 494.846C401.87 491.533 413.467 489.877 423.821 484.492C429.619 481.593 440.387 476.209 441.63 468.755C441.63 467.926 441.63 467.512 440.801 467.098C437.074 465.027 433.346 467.098 429.619 468.755C427.548 469.583 425.892 470.411 423.821 471.239C418.851 472.482 418.437 471.654 422.164 469.169C425.063 465.441 430.861 462.956 435.003 460.886C451.569 451.36 463.166 436.864 476.833 423.611C477.661 422.783 476.419 421.541 475.59 421.955C464.408 430.652 455.711 443.491 443.7 452.188Z" fill="#60BFEE"/>
<path opacity="0.76" d="M410.568 445.148C410.154 445.562 410.568 446.804 411.396 446.39C418.023 445.976 422.164 440.592 425.892 435.622C426.72 434.794 425.063 433.551 424.649 434.379C422.578 437.279 419.679 441.834 416.366 443.077C408.083 446.804 418.437 437.693 419.679 436.036C422.578 433.551 435.831 422.783 436.66 427.753C438.73 437.693 413.467 449.703 406.84 453.016C400.214 456.744 361.697 475.795 370.809 482.007C374.95 484.907 386.961 479.108 391.102 477.452C393.173 476.623 407.255 471.239 407.255 474.138C406.84 478.28 394.83 479.108 391.102 479.937C376.607 483.664 362.94 491.947 350.101 499.816C334.363 509.342 319.039 524.251 299.988 525.908C314.483 526.322 325.666 517.211 337.262 510.17C353.414 500.23 371.223 488.634 389.446 483.25C391.931 482.422 422.164 475.381 408.497 469.997C402.285 467.512 391.517 474.553 386.133 476.623C378.678 479.108 366.253 482.836 379.092 472.482C385.304 467.512 392.759 463.785 399.386 460.057C412.224 452.602 440.387 442.663 439.145 423.611C439.145 422.783 438.316 422.369 437.488 422.369C427.548 425.682 414.295 434.794 410.568 445.148Z" fill="#60BFEE"/>
<path opacity="0.76" d="M320.696 534.191C320.282 534.191 320.282 534.605 320.696 534.605C331.05 537.09 341.404 533.777 351.343 531.292C359.212 529.635 376.607 526.736 380.748 517.625C385.304 507.271 365.839 511.413 361.283 512.655C357.556 513.897 336.434 520.938 343.06 527.979C348.858 534.191 367.495 523.009 371.223 517.625C371.637 517.211 371.223 516.382 370.395 515.968C365.425 514.312 360.869 516.797 356.727 519.696C355.899 520.11 356.727 521.766 357.556 520.938C361.283 518.867 370.809 516.382 362.94 521.352C360.041 523.009 354.242 526.736 350.101 526.736C346.788 526.322 343.06 526.322 346.788 521.352C347.616 520.11 350.101 519.282 351.343 518.867C355.071 517.211 358.798 515.554 362.526 514.312C365.425 513.483 371.223 511.413 374.536 512.655C384.89 517.625 362.94 526.322 357.97 527.565C346.788 531.292 332.706 535.019 320.696 534.191Z" fill="#60BFEE"/>
<path opacity="0.76" d="M354.657 332.497C354.242 333.325 354.242 334.153 355.071 334.568C362.94 336.224 353 339.538 350.515 340.78C345.959 342.851 340.161 342.851 335.605 344.093C327.736 346.578 320.696 349.477 314.069 354.447C313.655 354.861 313.655 355.69 314.069 355.69C320.696 361.074 330.636 354.033 336.848 358.175C350.929 367.7 294.604 402.075 288.392 407.045C277.209 415.328 230.41 444.733 240.764 465.441C232.895 445.147 277.624 417.399 289.22 408.702C304.958 397.105 332.706 385.509 340.575 366.044C343.474 359.003 339.747 356.932 333.12 356.518C329.807 356.518 326.494 356.932 323.595 356.518C312.413 354.861 324.837 350.306 330.636 348.235C341.818 344.507 353.828 344.093 363.768 337.467C364.596 337.053 364.596 336.224 363.768 335.396C365.011 336.638 359.212 330.426 358.798 332.083C359.212 328.355 371.223 327.113 373.294 326.699C380.749 325.87 387.789 326.285 395.244 326.699C408.083 327.113 422.578 326.699 426.72 312.203C427.134 310.961 425.063 310.547 424.649 311.789C415.538 339.538 370.395 312.617 354.657 332.497Z" fill="#60BFEE"/>
<path opacity="0.76" d="M315.312 292.738C311.998 298.95 316.14 302.678 308.685 308.062C304.13 311.789 296.261 311.789 290.877 313.032C280.937 315.517 271.411 318.001 266.027 327.113C265.613 327.527 266.027 328.355 266.441 328.77C271.825 332.497 276.795 328.355 281.765 326.699C289.634 324.214 283.422 327.113 279.28 329.184C275.139 331.254 270.997 332.497 266.855 334.568C259.401 337.881 242.006 343.265 244.077 354.447C244.077 355.276 244.905 355.69 245.733 355.69C250.289 354.447 250.289 354.033 246.562 356.932C244.077 358.589 241.178 359.831 238.279 361.074C234.137 363.145 230.41 365.215 227.511 369.357C226.682 370.185 227.925 371.428 228.753 370.599C236.208 363.145 247.39 361.488 254.431 353.205C255.259 352.376 254.431 350.72 253.188 351.134C241.592 354.447 251.117 345.75 255.673 342.851C260.643 339.952 266.441 337.881 271.825 335.396C278.038 332.911 285.907 330.426 290.462 325.456C291.291 324.628 290.876 323.386 289.634 323.386C286.735 322.971 285.078 322.971 282.179 323.8C281.351 324.214 275.553 327.527 274.724 327.113C275.967 324.628 277.209 321.729 278.866 319.244C280.523 318.416 282.593 318.001 284.664 317.173C292.947 314.688 306.2 314.688 312.413 307.648C314.483 305.163 314.483 302.678 315.726 300.193C318.625 293.566 312.413 297.708 324.423 291.495C332.292 287.768 331.878 287.354 338.919 289.425C351.758 293.152 358.384 290.667 370.809 285.697C362.526 287.768 354.657 291.91 345.959 290.253C340.575 289.011 335.605 286.111 330.221 286.111C324.423 285.283 318.211 287.354 315.312 292.738Z" fill="#60BFEE"/>
<path opacity="0.76" d="M452.398 343.679C457.782 355.275 449.498 361.488 441.215 368.114C435.831 372.256 429.619 374.741 424.649 379.297C418.437 384.681 422.992 390.893 420.093 398.348C413.881 414.5 398.557 419.056 387.789 429.824C384.476 433.551 384.89 433.965 384.89 438.107C385.304 438.521 385.718 438.521 386.133 438.935C389.032 439.763 389.032 442.663 386.547 447.632C384.89 450.946 377.849 455.087 374.536 456.744C364.182 462.542 353.828 462.956 342.646 465.441C328.979 468.34 321.524 479.108 311.584 488.634C307.443 492.775 276.795 518.453 273.068 501.059C275.139 518.453 303.715 496.917 308.685 492.775C318.211 484.492 326.08 472.482 338.505 468.34C348.03 465.027 357.97 465.855 367.081 462.128C374.122 459.229 390.274 452.188 390.688 441.834C390.688 438.107 387.375 439.349 387.789 435.208C387.789 428.581 398.557 424.854 403.527 421.126C412.639 413.672 422.992 401.661 425.477 389.65C425.477 388.822 424.235 387.58 424.235 387.166C425.063 379.711 426.72 380.539 431.69 377.226C438.316 373.084 444.529 368.528 450.327 363.144C453.226 360.659 459.852 354.861 459.852 350.306C459.438 344.922 445.357 339.537 456.125 332.497C456.953 332.083 456.125 330.426 455.297 331.254C447.842 334.982 449.498 337.881 452.398 343.679Z" fill="#60BFEE"/>
<path opacity="0.76" d="M430.447 403.732C425.892 407.045 422.992 412.429 418.437 416.157C414.709 419.056 410.568 421.541 406.426 424.44C404.355 426.096 400.214 428.581 399.8 431.48C399.386 436.036 401.456 436.45 405.184 435.622C409.739 434.38 416.78 427.339 420.093 424.44C427.962 417.813 435.417 410.773 445.357 406.631C445.771 406.631 445.357 406.217 445.357 406.217C432.932 409.116 422.992 418.642 413.053 426.511C410.154 428.581 401.042 435.622 406.012 426.925C408.497 422.783 415.952 419.884 419.679 416.985C427.134 410.773 432.104 402.904 442.044 400.005C447.842 398.348 453.64 398.348 459.024 395.863C465.651 392.964 473.105 388.408 473.934 380.125C469.792 400.833 442.872 394.62 430.447 403.732Z" fill="#60BFEE"/>
<path opacity="0.76" d="M397.729 333.325C391.931 333.325 386.961 332.911 384.062 338.709C383.648 339.538 384.476 340.366 385.304 340.366C389.032 340.78 392.345 339.952 395.658 339.952C396.901 339.952 401.87 338.709 402.699 339.538C401.042 342.437 399.386 345.75 398.143 348.649C396.901 348.649 396.072 348.649 394.83 348.649C387.789 350.306 379.092 346.992 371.637 348.235C352.172 351.134 371.637 359.417 365.425 370.185C362.526 374.741 353.414 378.883 348.444 381.367C340.989 385.095 333.535 388.408 326.08 391.721C315.312 396.691 306.2 402.904 297.503 410.358C286.321 420.298 276.795 431.48 266.855 442.249C264.785 444.319 257.33 455.087 254.431 455.087C253.188 453.017 251.946 451.36 250.289 449.289C251.532 448.047 253.188 446.804 254.431 445.562C256.916 443.491 259.815 441.834 263.128 440.592C256.087 443.491 245.733 448.875 246.148 457.986C246.148 458.401 246.562 458.401 246.562 458.401C258.572 459.229 269.34 442.248 276.381 434.794C285.492 425.268 294.19 415.328 304.13 407.459C314.069 399.59 325.252 394.62 336.848 389.236C345.545 385.095 368.738 377.226 371.223 365.63C372.465 360.66 369.566 361.902 368.324 358.589C364.182 346.992 378.264 349.477 384.476 349.892C390.274 350.306 409.325 352.791 410.154 342.023C410.568 335.396 402.699 336.639 398.143 336.639C395.244 336.639 391.517 337.881 388.617 337.467C380.749 336.224 396.901 335.396 398.971 335.396C406.426 334.982 412.224 335.396 419.679 332.497C425.477 330.012 438.316 322.971 436.245 314.274C436.245 313.446 435.417 313.446 434.589 313.446C432.518 314.274 433.346 314.274 430.861 316.345C430.033 317.173 430.861 318.83 432.104 318.002C432.932 317.587 430.861 322.971 430.447 323.386C427.548 327.527 420.093 330.84 415.538 332.083C409.325 334.154 403.941 333.739 397.729 333.325Z" fill="#60BFEE"/>
<path opacity="0.76" d="M364.596 399.176C351.758 406.631 338.09 410.773 325.666 419.056C324.837 419.47 324.837 421.127 326.08 421.127C329.807 421.541 333.12 420.712 336.848 420.298C343.474 419.47 349.273 421.127 343.889 428.996C341.404 432.723 334.777 433.965 330.636 435.208C323.595 437.693 306.2 440.178 304.13 449.289C302.473 455.087 306.614 455.087 311.17 455.087C326.08 454.259 336.434 443.491 348.03 436.036C340.161 441.006 333.12 447.633 324.423 450.946C321.11 452.188 314.483 454.673 311.17 453.845C295.846 448.875 329.807 438.521 334.363 436.864C339.333 435.208 358.798 424.026 348.03 417.813C344.717 416.157 331.05 421.541 329.807 419.47C330.221 419.884 363.354 403.318 368.324 400.419C381.163 392.55 390.688 380.953 403.527 373.499C407.669 371.014 412.224 368.114 416.366 366.458C422.578 363.973 425.892 364.801 420.093 370.599C417.194 373.499 410.568 374.327 406.84 375.569C405.598 375.983 406.426 377.64 407.255 377.226C415.952 375.569 424.235 372.67 428.377 364.387C428.791 363.973 428.377 362.73 427.962 362.73C417.194 358.175 400.214 371.842 392.759 377.64C383.233 384.267 374.95 393.378 364.596 399.176Z" fill="#60BFEE"/>
<path opacity="0.76" d="M251.532 370.185C251.946 372.67 255.673 372.67 256.501 374.327C258.572 380.125 238.279 390.479 234.965 394.62C234.551 395.035 234.551 395.449 234.965 395.863C244.077 402.075 254.017 398.348 262.714 393.792C269.34 390.479 275.967 386.337 282.593 382.61C285.078 381.367 304.958 367.7 305.372 376.398C305.786 380.953 272.654 397.934 268.512 400.419C260.643 405.389 251.946 410.773 245.733 418.227C239.521 426.096 235.794 435.622 230.41 444.319C230.41 444.733 230.824 444.733 230.824 444.733C236.622 436.864 240.349 426.925 246.562 419.47C254.845 409.53 266.855 403.732 277.209 396.691C285.492 391.307 301.645 385.923 306.614 376.812C308.685 372.67 308.271 371.014 303.715 370.599C300.402 370.185 296.261 373.084 293.361 374.741C285.078 378.883 277.209 383.852 268.926 388.408C263.128 391.721 254.431 397.934 247.39 397.52C242.42 397.105 239.935 393.378 243.249 389.236C244.491 387.994 247.39 386.751 248.633 385.923C251.117 384.267 256.087 382.196 257.33 379.297C260.229 373.084 251.946 372.256 254.845 366.872C256.502 363.973 265.199 360.66 268.098 359.003C273.068 356.104 278.038 352.791 282.593 349.892C292.947 343.679 303.301 337.881 314.069 332.083C334.363 320.486 352.586 310.133 375.364 303.92C384.476 301.435 392.345 300.193 401.87 302.264C411.81 304.748 403.113 310.547 397.729 311.375C393.173 312.203 387.375 310.547 382.405 309.718C364.596 307.648 348.03 315.102 333.535 324.628C332.706 325.042 333.535 326.285 334.363 325.87C352.586 315.102 368.738 310.133 389.446 312.617C394.83 313.032 407.669 315.931 410.982 309.718C419.265 294.809 379.092 300.193 374.536 301.435C336.848 312.203 304.13 334.154 271.411 354.861C268.512 356.932 250.289 363.559 251.532 370.185Z" fill="#60BFEE"/>
<path opacity="0.76" d="M252.774 480.765C252.774 481.179 253.188 481.593 253.602 481.593C260.643 482.008 268.098 467.926 268.926 462.128C268.926 461.714 268.512 461.3 268.098 461.3C267.27 461.714 266.855 461.714 266.441 462.128C268.512 460.057 271.411 457.158 273.068 460.057C274.31 462.542 270.997 467.512 269.755 469.583C268.098 472.482 258.158 488.634 253.602 486.563C253.602 486.563 253.188 486.977 253.602 486.977C259.401 487.806 265.199 479.108 268.098 474.967C270.583 471.654 277.209 463.371 273.896 458.815C268.098 450.946 254.017 476.209 252.774 480.765ZM267.27 463.371C267.27 464.199 266.027 465.855 266.027 466.684C264.785 468.755 263.542 470.825 262.3 472.896C261.057 474.553 260.229 475.795 258.986 477.038C258.158 477.866 256.916 479.108 256.087 479.523C254.845 479.937 255.259 480.765 255.259 479.937C254.845 478.28 258.572 473.724 258.986 472.482C260.643 469.997 261.886 467.512 263.956 465.441H264.37C265.613 464.613 266.855 463.37 268.098 462.542C267.27 462.956 267.27 462.956 267.27 463.371Z" fill="#60BFEE"/>
<path opacity="0.76" d="M480.146 429.824C475.59 435.622 469.378 439.349 464.822 445.147C464.408 445.562 464.822 446.804 465.236 446.804C467.721 447.218 468.964 446.39 471.035 446.804C474.348 447.218 473.105 442.248 473.52 448.461C473.934 452.188 471.035 455.501 468.964 457.986C464.822 463.784 459.024 468.34 455.297 474.553C454.883 474.967 455.297 475.795 455.711 476.209C461.095 479.108 439.973 492.775 437.488 494.018C426.306 500.23 413.467 501.473 403.113 508.513C402.699 508.928 402.699 509.756 403.113 510.17C406.012 513.483 406.84 511.827 409.739 513.483C415.952 516.382 415.538 517.211 408.911 521.766C404.77 525.08 400.214 527.15 395.658 529.635C390.688 532.12 386.133 535.019 381.163 537.504C377.849 539.161 374.536 540.818 370.809 542.06C368.738 542.888 366.667 543.303 364.596 543.303C362.111 536.262 364.596 533.777 372.88 536.262C373.294 536.262 373.294 535.848 372.88 535.848C366.253 534.605 360.041 536.676 355.899 541.646C355.899 542.06 355.485 542.474 355.899 542.474C363.354 547.858 373.294 543.303 380.334 539.575C394.002 532.949 409.739 526.736 418.851 514.312C419.265 513.897 419.265 513.069 418.437 512.655C415.123 510.584 407.255 513.069 407.255 508.099C407.255 505.614 433.346 498.988 436.245 497.331C442.458 494.018 454.468 488.22 457.782 481.593C458.61 479.937 458.196 478.28 458.61 476.623C458.61 476.209 457.367 475.381 457.367 474.967C457.782 472.482 461.095 469.583 462.752 467.926C468.136 461.714 477.661 453.016 475.176 443.491C475.176 442.662 474.348 442.662 473.52 443.077C472.277 444.319 470.62 444.733 469.378 443.905C464.822 443.905 466.479 441.834 473.934 438.107C477.247 434.794 477.247 435.208 479.732 431.48C482.217 430.238 480.974 428.995 480.146 429.824Z" fill="#60BFEE"/>
<path opacity="0.76" d="M387.375 506.857C386.547 506.443 386.133 506.443 387.375 506.857V506.857Z" fill="#60BFEE"/>
<path opacity="0.76" d="M387.375 506.857C388.617 507.271 390.688 507.685 390.274 507.685C393.173 506.443 393.173 507.271 391.102 510.17C390.688 512.241 389.446 513.897 387.375 514.726C381.163 521.352 371.223 524.666 362.94 527.979C348.858 533.777 334.777 538.747 319.039 539.161C319.039 539.161 318.625 539.575 319.039 539.575C329.393 542.06 340.161 538.747 350.101 535.848C362.111 532.12 374.95 527.565 385.718 520.524C389.032 518.453 400.628 511.413 398.143 505.614C396.072 501.059 391.517 504.372 387.789 503.958C385.718 503.958 385.718 506.443 387.375 506.857Z" fill="#60BFEE"/>
<path opacity="0.76" d="M457.782 450.117C457.367 450.946 457.782 452.188 458.61 452.602C472.277 458.4 437.074 481.593 431.69 484.078C420.922 489.048 408.911 492.361 399.8 500.644V501.059C420.093 489.876 451.569 484.492 463.994 462.128C466.479 457.572 466.065 455.916 464.822 451.774C464.408 449.289 462.752 452.602 463.166 448.875C463.166 446.39 467.307 443.905 468.55 442.248C472.691 438.521 477.247 435.208 480.974 431.48C482.217 430.238 480.56 428.581 479.318 429.409C471.449 434.794 463.166 441.834 457.782 450.117Z" fill="#60BFEE"/>
<path opacity="0.76" d="M442.458 416.571C458.196 431.894 400.214 464.199 390.274 471.239C389.86 471.239 390.274 472.068 390.688 471.653C406.012 462.956 421.336 454.259 434.589 442.248C439.559 438.107 445.357 432.723 447.428 426.096C448.256 423.611 446.185 414.5 446.185 414.5C447.428 413.672 445.771 412.015 444.529 412.843C443.7 413.257 443.286 413.671 442.458 414.086C441.63 414.5 441.63 415.742 442.458 416.571Z" fill="#60BFEE"/>
<path opacity="0.76" d="M408.083 393.378C408.497 404.974 398.557 413.257 390.688 420.298C380.748 429.41 369.98 437.693 357.97 444.733C334.777 458.815 309.514 465.441 285.078 475.795C285.078 475.795 285.078 476.209 285.078 475.795C314.483 472.482 345.545 457.158 369.98 440.592C384.062 431.066 412.224 413.257 410.982 392.964C410.982 391.307 408.083 391.721 408.083 393.378Z" fill="#60BFEE"/>
<path opacity="0.76" d="M322.767 359.417C330.221 368.528 279.28 395.034 275.967 397.105C264.785 403.732 256.501 412.015 249.047 422.783C242.006 433.137 237.45 445.976 228.339 454.259C227.925 454.259 228.339 454.673 228.753 454.673C233.309 452.188 236.208 448.461 239.107 443.905C244.491 435.208 249.875 426.925 256.087 419.056C270.169 402.075 289.22 396.277 306.2 383.852C310.756 380.539 335.191 363.144 324.837 356.932C323.595 356.518 321.938 358.175 322.767 359.417Z" fill="#60BFEE"/>
<path opacity="0.76" d="M271.825 373.912C295.018 351.962 321.938 339.952 352.172 330.426C368.324 325.456 384.062 322.971 400.628 320.9C411.396 319.244 419.265 315.102 427.134 307.647C428.377 305.991 425.892 303.92 424.235 305.162C410.568 318.001 394.83 316.759 377.435 320.072C361.697 322.971 346.374 328.355 331.05 333.739C309.099 341.608 285.078 353.205 271.825 373.912Z" fill="#60BFEE"/>
<path opacity="0.76" d="M333.949 482.422C326.08 483.25 321.524 485.321 316.968 491.947C312.827 497.746 309.928 503.958 304.544 508.514C295.432 515.968 283.836 518.039 272.654 512.655C283.422 519.282 295.846 517.211 305.372 509.756C309.099 506.857 311.584 502.715 314.483 498.574C319.867 490.705 324.009 484.907 334.363 484.078C337.676 483.664 340.989 484.078 343.889 483.25C355.485 480.351 355.485 469.583 365.425 466.27C378.678 462.128 388.203 458.815 395.244 445.562C395.658 445.148 394.83 444.733 394.416 445.148C389.032 453.845 381.577 461.3 371.637 463.785C367.91 464.613 362.526 463.785 359.627 465.855C357.97 467.098 357.97 468.34 357.142 469.169C356.727 470.411 355.899 472.068 355.485 473.31C352.586 477.866 348.858 480.351 343.889 481.179C340.161 482.008 337.262 482.008 333.949 482.422Z" fill="#60BFEE"/>
<path opacity="0.76" d="M425.063 333.325C427.962 338.295 423.821 343.679 420.093 345.75C417.608 346.992 415.124 348.235 412.639 349.063C408.497 350.306 403.527 349.891 399.386 351.548C394.416 353.619 396.072 354.033 394.83 356.932C391.931 363.973 394.002 363.559 387.789 366.458C385.304 367.7 382.819 368.529 380.334 369.357C376.607 370.599 373.708 372.256 370.395 374.327C357.142 381.367 343.889 386.751 331.878 395.863C316.14 407.873 292.119 420.712 285.078 440.592C280.937 451.774 284.664 465.027 279.28 475.795C275.553 483.25 266.855 487.806 265.613 496.503C265.613 496.917 266.027 497.331 266.441 497.331C270.583 497.331 272.654 496.503 275.967 494.018C276.381 494.018 275.967 493.604 275.553 493.604C269.34 492.775 268.098 490.705 271.825 488.22C272.654 487.391 273.068 486.563 273.896 486.149C275.967 484.078 278.038 482.007 279.694 479.522C282.179 475.381 283.422 469.997 283.836 465.027C285.078 455.916 283.836 446.804 287.977 438.521C292.119 429.824 299.988 423.197 307.443 417.399C322.767 405.803 337.676 392.55 355.071 384.266C362.111 380.953 368.738 377.226 375.779 373.913C381.577 371.428 388.203 370.185 393.587 366.458C396.486 364.387 396.901 363.144 398.557 360.66C399.386 359.417 398.143 359.003 398.557 358.175C399.8 355.275 404.355 353.619 408.497 352.376C414.709 350.72 425.477 348.649 428.791 341.608C430.033 339.538 428.791 337.467 429.619 335.396C430.447 333.325 427.962 334.568 429.619 332.497C430.447 331.254 435.831 331.254 437.074 330.84C442.458 329.598 449.084 327.941 447.842 321.315C447.428 320.072 445.357 320.486 445.771 321.729C447.014 328.769 430.447 329.598 426.72 330.84C424.649 331.669 424.649 332.911 425.063 333.325Z" fill="#60BFEE"/>
<path opacity="0.47" d="M285.907 293.98C222.955 330.012 201.419 411.601 237.864 476.623C239.521 479.522 241.178 482.007 242.834 484.492C246.976 486.977 251.117 489.048 256.087 490.705C288.806 501.473 328.151 493.604 354.242 472.068C379.092 451.36 397.729 412.843 401.042 380.539C403.527 356.518 399.8 330.012 387.789 308.476C379.506 293.566 368.738 283.626 356.313 277C332.292 276.172 308.271 281.141 285.907 293.98Z" fill="#60BFEE"/>
<path opacity="0.42" d="M466.479 346.164C451.569 319.658 429.619 300.193 403.941 288.596C403.941 289.01 404.355 289.01 404.355 289.425C432.932 336.638 432.518 400.833 397.729 443.491C381.163 463.37 358.798 482.007 336.02 494.018C312.827 506.443 287.149 510.998 262.3 508.099C303.715 547.858 366.667 558.212 418.023 528.807C481.389 493.19 502.925 411.187 466.479 346.164Z" fill="#1A7AA0"/>
<path opacity="0.42" d="M466.479 346.164C461.509 337.053 455.297 328.77 448.67 321.315C449.084 323.385 449.498 325.456 449.913 327.113C459.438 371.842 460.267 414.5 434.589 452.602C427.134 463.37 421.336 474.967 412.224 484.492C402.699 494.018 391.517 501.887 379.92 508.513C369.566 514.312 358.798 518.453 347.616 522.595C328.565 529.635 314.069 532.12 297.089 532.12C307.029 537.09 317.797 540.818 328.565 542.888C341.404 542.474 354.242 540.404 365.011 537.919C377.435 535.019 388.203 529.635 398.557 521.766C412.224 511.413 426.72 501.059 437.902 488.22C446.599 478.28 455.297 468.34 462.751 457.572C474.762 440.178 478.075 423.611 479.318 402.489C479.732 394.62 480.146 386.751 480.146 378.882C476.833 368.114 472.277 356.932 466.479 346.164Z" fill="#1A7AA0"/>
<path d="M456.539 331.255C459.438 334.982 462.337 339.123 464.822 343.679C511.208 330.426 542.684 326.285 546.411 334.982C552.623 349.892 470.62 397.105 364.182 440.592C257.744 484.078 165.801 507.685 160.003 492.776C156.69 484.492 181.953 465.027 224.197 442.249C222.955 437.279 222.126 432.723 221.298 427.753C131.012 471.654 72.2018 510.998 78.4141 525.908C87.1114 547.03 216.742 513.483 368.738 451.774C520.733 390.065 636.283 322.557 627.586 301.435C621.373 286.526 551.795 299.364 456.539 331.255Z" fill="#6CD4F4"/>
<path opacity="0.47" d="M290.877 312.203C276.381 307.233 256.502 332.911 250.703 343.265C237.036 368.943 231.652 404.56 251.946 430.238C261.057 442.248 278.038 442.248 291.291 438.935C311.584 433.965 329.807 421.541 340.161 403.318C351.343 384.266 357.556 364.801 352.172 342.437C349.687 332.497 346.374 322.557 337.262 317.173C325.666 310.132 309.099 309.304 290.877 312.203Z" fill="#60BFEE"/>
<path opacity="0.47" d="M263.956 347.407C255.673 356.104 247.39 382.61 266.855 383.438C291.705 383.852 285.078 338.295 263.956 347.407Z" fill="#60BFEE"/>
<path opacity="0.51" d="M461.095 337.467C462.337 339.123 463.58 341.194 464.408 342.851C531.916 320.072 579.13 309.304 582.443 318.001C587.827 330.84 488.429 383.852 360.869 436.036C233.309 488.22 125.628 519.696 120.244 506.857C116.931 498.16 158.346 472.482 223.783 441.006C223.369 438.935 222.955 436.864 222.541 434.794C148.821 470.825 101.607 501.473 106.163 512.655C112.789 529.221 227.925 497.331 363.354 442.248C498.783 386.751 603.151 328.77 596.524 312.203C592.382 301.021 537.714 312.203 461.095 337.467Z" fill="#B3EDFF"/>
<path opacity="0.62" d="M466.893 346.992C468.964 350.306 470.62 354.033 472.277 357.346C479.318 356.518 483.459 356.932 484.288 359.003C487.601 367.286 431.69 398.348 359.626 427.753C287.149 457.158 225.854 474.552 222.541 465.855C221.712 463.784 224.197 460.471 229.581 456.33C228.339 452.602 227.096 448.875 225.854 445.147C187.751 465.441 164.559 481.593 167.458 488.22C172.428 500.23 259.815 475.795 362.526 433.965C465.236 392.135 544.755 348.235 539.785 336.224C536.471 330.012 508.309 334.568 466.893 346.992Z" fill="#7DE0FF"/>
</g>
<path d="M138.188 849.596C136.788 857.994 136.088 866.995 136.088 876.598C136.088 889.195 137.927 898.31 141.605 903.941C144.145 907.75 147.546 910.273 151.811 911.51C146.765 905.553 143.998 897.105 143.51 886.168C143.38 883.173 143.314 880.243 143.314 877.379C143.314 868.004 143.949 858.743 145.219 849.596H138.188ZM176.566 902.477C177.966 899.71 179.008 896.454 179.691 892.711C180.375 888.967 180.717 883.743 180.717 877.037C180.717 870.299 179.984 860.924 178.52 848.912L170.316 849.596H170.023C169.307 849.596 168.705 849.335 168.217 848.814C167.729 848.261 167.484 847.659 167.484 847.008C167.484 846.357 167.696 845.787 168.119 845.299C168.575 844.811 169.128 844.518 169.779 844.42L191.215 842.711H191.41C192.094 842.711 192.68 842.971 193.168 843.492C193.656 843.98 193.9 844.566 193.9 845.25C193.9 845.934 193.673 846.52 193.217 847.008C192.794 847.464 192.257 847.724 191.605 847.789L183.598 848.424C185.03 861.087 185.795 871.845 185.893 880.699C185.437 896.227 181.579 906.773 174.32 912.34C170.023 915.66 164.49 917.32 157.719 917.32C150.557 917.32 144.796 915.009 140.434 910.387C134.086 903.681 130.912 892.353 130.912 876.402C130.912 866.702 131.612 857.766 133.012 849.596H127.201C126.452 849.596 125.834 849.352 125.346 848.863C124.857 848.342 124.613 847.724 124.613 847.008C124.613 846.292 124.857 845.689 125.346 845.201C125.834 844.68 126.452 844.42 127.201 844.42H157.816C158.5 844.42 159.102 844.68 159.623 845.201C160.144 845.689 160.404 846.292 160.404 847.008C160.404 847.724 160.144 848.342 159.623 848.863C159.102 849.352 158.5 849.596 157.816 849.596H150.395C149.06 858.124 148.393 867.467 148.393 877.623C148.393 900.149 153.357 911.412 163.285 911.412C169.079 911.412 173.507 908.434 176.566 902.477Z" fill="white"/>
<path d="M214.994 908.824C216.622 908.661 218.754 908.58 221.391 908.58L223.1 847.691C220.365 847.822 217.989 847.984 215.971 848.18L214.994 908.824ZM251.713 909.703C248.751 905.602 247.27 898.603 247.27 888.707V886.949C247.27 886.363 247.302 885.842 247.367 885.387C244.079 885.973 241.85 886.314 240.678 886.412C240.548 887.324 240.482 888.658 240.482 890.416C240.482 892.141 240.629 894.094 240.922 896.275C241.247 898.456 241.833 900.491 242.68 902.379C244.535 906.676 247.546 909.117 251.713 909.703ZM227.299 880.699C229.48 881.155 231.938 881.383 234.672 881.383C237.406 881.383 239.799 881.269 241.85 881.041C243.9 880.813 245.902 880.439 247.855 879.918C249.841 879.397 251.713 878.714 253.471 877.867C255.229 876.988 256.775 875.914 258.109 874.645C260.974 871.812 262.406 868.264 262.406 864C262.406 857.587 259.363 853.095 253.275 850.523C249.597 848.993 245.805 848.098 241.898 847.838C237.992 847.545 235.176 847.398 233.451 847.398H229.936C229.317 847.398 228.731 847.431 228.178 847.496L227.299 880.699ZM265.482 896.617L265.385 895.104C265.385 894.355 265.645 893.753 266.166 893.297C266.719 892.841 267.322 892.613 267.973 892.613C268.624 892.613 269.193 892.841 269.682 893.297C270.17 893.72 270.447 894.257 270.512 894.908L270.609 896.617C270.609 901.988 269.079 906.35 266.02 909.703C262.895 913.154 258.793 914.879 253.715 914.879H253.568C245.105 914.651 239.571 910.191 236.967 901.5C235.925 898.049 235.404 894.176 235.404 889.879L235.502 886.607C232.995 886.607 230.229 886.38 227.201 885.924L226.469 911.217C226.469 911.998 226.208 912.617 225.688 913.072C225.199 913.495 224.597 913.707 223.881 913.707C216.264 913.707 209.33 914.098 203.08 914.879H202.787C202.038 914.879 201.42 914.618 200.932 914.098C200.443 913.609 200.199 913.04 200.199 912.389C200.199 911.738 200.395 911.168 200.785 910.68C201.208 910.191 201.876 909.882 202.787 909.752C203.731 909.622 204.822 909.508 206.059 909.41C207.328 909.312 208.565 909.215 209.77 909.117L210.893 848.912L203.471 850.377C203.243 850.54 202.885 850.621 202.396 850.621C201.908 850.621 201.42 850.361 200.932 849.84C200.443 849.319 200.199 848.733 200.199 848.082C200.199 846.78 200.801 845.95 202.006 845.592C208.549 843.411 218.542 842.32 231.986 842.32C239.538 842.711 245.023 843.297 248.441 844.078C251.892 844.859 254.708 845.755 256.889 846.764C259.07 847.74 260.941 849.01 262.504 850.572C265.824 853.827 267.484 858.303 267.484 864C267.484 868.655 266.101 872.789 263.334 876.402C260.697 879.853 257.117 882.327 252.592 883.824C252.462 885.322 252.396 886.656 252.396 887.828C252.396 888.967 252.413 890.156 252.445 891.393C252.478 892.63 252.559 893.98 252.689 895.445C252.82 896.91 253.015 898.408 253.275 899.938C253.568 901.467 253.943 902.867 254.398 904.137C255.473 906.969 256.938 908.385 258.793 908.385C261.072 908.385 262.829 906.871 264.066 903.844C265.01 901.598 265.482 899.189 265.482 896.617Z" fill="white"/>
<path d="M294.145 888.316C299.939 888.967 304.415 889.293 307.572 889.293C312.423 889.293 317.566 888.967 323.002 888.316C319.421 877.346 314.636 867.434 308.646 858.58C302.624 868.801 297.79 878.714 294.145 888.316ZM334.428 908.58L338.529 908.482H340.043C340.531 908.482 341.02 908.515 341.508 908.58C335.746 884.003 327.022 863.772 315.336 847.887L311.527 853.795C318.233 862.975 323.637 873.782 327.738 886.217C331.547 898.098 333.777 905.553 334.428 908.58ZM299.809 915.123C296.456 914.114 292.224 913.609 287.113 913.609C282.003 913.609 277.771 914.114 274.418 915.123C273.669 915.123 273.051 914.863 272.562 914.342C272.074 913.821 271.83 913.235 271.83 912.584C271.83 911.217 272.53 910.354 273.93 909.996C276.176 909.41 279.138 908.971 282.816 908.678C287.113 887.779 297.188 865.579 313.041 842.076C313.562 841.36 314.148 841.002 314.799 841.002C315.906 841.002 316.687 841.295 317.143 841.881C330.684 859.166 340.58 881.48 346.83 908.824C350.15 909.117 353.454 909.508 356.742 909.996C357.393 910.094 357.914 910.387 358.305 910.875C358.728 911.363 358.939 911.933 358.939 912.584C358.939 913.235 358.646 913.821 358.061 914.342C357.507 914.863 357.068 915.123 356.742 915.123C356.286 915.123 355.294 914.977 353.764 914.684C347.449 913.544 339.587 913.316 330.18 914C327.413 914.195 325.329 914.423 323.93 914.684C322.53 914.944 321.798 915.074 321.732 915.074C321.667 915.107 321.439 915.123 321.049 915.123C320.658 915.123 320.202 914.846 319.682 914.293C319.193 913.74 318.949 913.154 318.949 912.535C318.949 911.917 319.145 911.363 319.535 910.875C319.958 910.387 320.658 910.061 321.635 909.898C322.611 909.703 323.767 909.54 325.102 909.41C326.436 909.247 327.803 909.085 329.203 908.922C327.771 903.486 326.241 898.245 324.613 893.199C318.852 894.013 313.578 894.42 308.793 894.42C304.008 894.42 298.523 894.013 292.338 893.199C290.613 898.342 289.213 903.437 288.139 908.482C292.273 908.613 296.374 909.117 300.443 909.996C301.029 910.094 301.501 910.387 301.859 910.875C302.25 911.363 302.445 911.949 302.445 912.633C302.445 913.284 302.152 913.854 301.566 914.342C301.013 914.863 300.427 915.123 299.809 915.123Z" fill="white"/>
<path d="M383.061 848.082C383.061 848.082 381.872 848.082 379.496 848.082C378.357 848.082 377.169 848.049 375.932 847.984L374.857 909.02H381.352L383.061 848.082ZM412.65 842.076C414.245 842.304 416.117 842.418 418.266 842.418C422.497 842.418 426.729 841.848 430.961 840.709C431.091 840.644 431.417 840.611 431.938 840.611C432.458 840.611 432.947 840.872 433.402 841.393C433.891 841.881 434.135 842.418 434.135 843.004C434.135 844.371 433.565 845.217 432.426 845.543C429.952 846.227 427.689 846.715 425.639 847.008C427.169 856.318 427.934 865.156 427.934 873.521C427.934 885.761 427.071 898.814 425.346 912.682C424.955 914.146 424.141 914.879 422.904 914.879C421.7 914.879 420.886 914.358 420.463 913.316C417.891 907.099 414.148 899.514 409.232 890.562C404.317 881.578 400.818 875.214 398.734 871.471C395.121 865.09 391.557 858.808 388.041 852.623L386.576 909.215C388.432 909.345 390.987 909.54 394.242 909.801C394.893 909.898 395.43 910.191 395.854 910.68C396.309 911.168 396.537 911.77 396.537 912.486C396.537 913.17 396.26 913.74 395.707 914.195C395.154 914.651 394.568 914.879 393.949 914.879H393.754C383.37 913.837 373.1 913.837 362.943 914.879H362.748C362.032 914.879 361.413 914.618 360.893 914.098C360.404 913.609 360.16 913.04 360.16 912.389C360.16 911.738 360.372 911.168 360.795 910.68C361.251 910.191 361.934 909.898 362.846 909.801C363.79 909.703 364.864 909.605 366.068 909.508C367.305 909.41 368.526 909.312 369.73 909.215L370.854 847.594C368.054 847.398 365.222 847.105 362.357 846.715C361.706 846.617 361.169 846.324 360.746 845.836C360.355 845.315 360.16 844.697 360.16 843.98C360.16 843.264 360.453 842.695 361.039 842.271C361.625 841.816 362.195 841.588 362.748 841.588H363.041C370.268 842.532 377.006 843.004 383.256 843.004H386.869C387.813 843.004 388.448 843.264 388.773 843.785C389.099 844.273 389.62 845.136 390.336 846.373C391.052 847.61 391.98 849.221 393.119 851.207C394.258 853.193 395.561 855.488 397.025 858.092C398.523 860.696 400.102 863.479 401.762 866.441C403.454 869.404 405.18 872.48 406.938 875.67C408.695 878.86 410.421 882.034 412.113 885.191C416.182 892.743 419.258 898.652 421.342 902.916C422.351 892.76 422.855 883.922 422.855 876.402C422.855 866.604 422.09 856.936 420.561 847.398C420.137 847.464 419.73 847.496 419.34 847.496H418.07C413.643 847.496 411.153 847.187 410.6 846.568C410.046 845.917 409.77 845.25 409.77 844.566C409.77 843.883 410.03 843.297 410.551 842.809C411.104 842.32 411.706 842.076 412.357 842.076H412.65Z" fill="white"/>
<path d="M455.57 849.596C454.171 857.994 453.471 866.995 453.471 876.598C453.471 889.195 455.31 898.31 458.988 903.941C461.527 907.75 464.929 910.273 469.193 911.51C464.148 905.553 461.381 897.105 460.893 886.168C460.762 883.173 460.697 880.243 460.697 877.379C460.697 868.004 461.332 858.743 462.602 849.596H455.57ZM493.949 902.477C495.349 899.71 496.391 896.454 497.074 892.711C497.758 888.967 498.1 883.743 498.1 877.037C498.1 870.299 497.367 860.924 495.902 848.912L487.699 849.596H487.406C486.69 849.596 486.088 849.335 485.6 848.814C485.111 848.261 484.867 847.659 484.867 847.008C484.867 846.357 485.079 845.787 485.502 845.299C485.958 844.811 486.511 844.518 487.162 844.42L508.598 842.711H508.793C509.477 842.711 510.062 842.971 510.551 843.492C511.039 843.98 511.283 844.566 511.283 845.25C511.283 845.934 511.055 846.52 510.6 847.008C510.176 847.464 509.639 847.724 508.988 847.789L500.98 848.424C502.413 861.087 503.178 871.845 503.275 880.699C502.82 896.227 498.962 906.773 491.703 912.34C487.406 915.66 481.872 917.32 475.102 917.32C467.94 917.32 462.178 915.009 457.816 910.387C451.469 903.681 448.295 892.353 448.295 876.402C448.295 866.702 448.995 857.766 450.395 849.596H444.584C443.835 849.596 443.217 849.352 442.729 848.863C442.24 848.342 441.996 847.724 441.996 847.008C441.996 846.292 442.24 845.689 442.729 845.201C443.217 844.68 443.835 844.42 444.584 844.42H475.199C475.883 844.42 476.485 844.68 477.006 845.201C477.527 845.689 477.787 846.292 477.787 847.008C477.787 847.724 477.527 848.342 477.006 848.863C476.485 849.352 475.883 849.596 475.199 849.596H467.777C466.443 858.124 465.775 867.467 465.775 877.623C465.775 900.149 470.74 911.412 480.668 911.412C486.462 911.412 490.889 908.434 493.949 902.477Z" fill="white"/>
<path d="M526.566 860.387C526.046 862.242 525.785 864.146 525.785 866.1C525.785 868.053 526.046 869.827 526.566 871.422C527.12 873.017 528.227 874.547 529.887 876.012C533.663 879.332 540.222 881.969 549.564 883.922C555.587 885.224 560.144 886.673 563.236 888.268C566.361 889.83 568.786 891.474 570.512 893.199C572.27 894.892 573.393 896.926 573.881 899.303C574.337 897.968 574.564 896.454 574.564 894.762C574.564 893.036 574.223 891.425 573.539 889.928C572.888 888.43 572.009 887.128 570.902 886.021C569.828 884.882 568.575 883.889 567.143 883.043C565.71 882.197 564.229 881.48 562.699 880.895C560.616 880.081 558.109 879.316 555.18 878.6C552.25 877.883 549.76 877.265 547.709 876.744C545.658 876.223 543.656 875.637 541.703 874.986C539.75 874.335 537.895 873.587 536.137 872.74C534.379 871.894 532.816 870.885 531.449 869.713C528.552 867.206 526.924 864.098 526.566 860.387ZM524.662 897.691C532.247 907.424 541.687 912.291 552.982 912.291C559.949 912.291 564.815 910.582 567.582 907.164C568.656 905.895 569.193 904.413 569.193 902.721C569.193 901.028 568.819 899.612 568.07 898.473C567.322 897.301 566.345 896.259 565.141 895.348C563.936 894.436 562.569 893.639 561.039 892.955C559.542 892.239 558.028 891.62 556.498 891.1C554.057 890.253 551.55 889.57 548.979 889.049C546.407 888.528 543.982 887.975 541.703 887.389C539.424 886.77 537.26 886.038 535.209 885.191C533.158 884.345 531.254 883.352 529.496 882.213C527.738 881.074 526.208 879.723 524.906 878.16C522.172 874.872 520.805 870.722 520.805 865.709C520.805 858.255 523.572 852.346 529.105 847.984C534.184 843.98 540.336 841.979 547.562 841.979C551.632 841.979 556.124 842.809 561.039 844.469C565.792 846.096 569.079 847.968 570.902 850.084C571.651 848.066 572.709 845.608 574.076 842.711C574.63 841.767 575.329 841.295 576.176 841.295C577.055 841.295 577.738 841.572 578.227 842.125C578.715 842.646 578.959 843.167 578.959 843.688C578.959 844.176 578.487 845.396 577.543 847.35C576.599 849.303 575.574 852.053 574.467 855.602C573.393 859.117 572.628 862.682 572.172 866.295C572.107 866.946 571.83 867.483 571.342 867.906C570.886 868.297 570.3 868.492 569.584 868.492C568.9 868.492 568.314 868.215 567.826 867.662C567.338 867.109 567.094 866.555 567.094 866.002V865.709C567.484 862.258 568.184 858.857 569.193 855.504C568.607 853.714 565.759 851.858 560.648 849.938C555.57 847.984 551.046 847.008 547.074 847.008C540.238 847.008 535.567 849.124 533.061 853.355C532.182 854.82 531.726 856.594 531.693 858.678C532.019 863.43 535.046 866.962 540.775 869.273C543.542 870.445 546.277 871.324 548.979 871.91C551.68 872.464 554.171 873.017 556.449 873.57C558.76 874.091 561.413 874.84 564.408 875.816C567.403 876.793 570.023 878.079 572.27 879.674C577.217 883.157 579.691 888.268 579.691 895.006C579.691 901.712 576.778 907.229 570.951 911.559C565.645 915.465 559.688 917.418 553.08 917.418C541.557 917.418 531.954 913.316 524.271 905.113V906.285C524.271 908.336 524.337 910.37 524.467 912.389V912.584C524.467 913.235 524.239 913.805 523.783 914.293C523.36 914.781 522.774 915.042 522.025 915.074C521.309 915.107 520.707 914.895 520.219 914.439C519.73 913.984 519.454 913.316 519.389 912.438C519.258 910.68 519.193 908.401 519.193 905.602C519.193 900.426 519.796 894.827 521 888.805C521.358 887.405 522.188 886.705 523.49 886.705C524.239 886.705 524.857 886.998 525.346 887.584C525.834 888.137 526.078 888.577 526.078 888.902V889.488C526.078 889.586 526.013 889.846 525.883 890.27C525.785 890.693 525.671 891.23 525.541 891.881C525.443 892.499 525.329 893.102 525.199 893.688C525.102 894.371 524.923 895.706 524.662 897.691Z" fill="white"/>
<defs>
<filter id="filter0_f_6_835" x="52.9653" y="256.912" width="630.081" height="349.187" filterUnits="userSpaceOnUse" color-interpolation-filters="sRGB">
<feFlood flood-opacity="0" result="BackgroundImageFix"/>
<feBlend mode="normal" in="SourceGraphic" in2="BackgroundImageFix" result="shape"/>
<feGaussianBlur stdDeviation="20" result="effect1_foregroundBlur_6_835"/>
</filter>
<clipPath id="clip0_6_835">
<rect width="550" height="268.788" fill="white" transform="translate(78 277)"/>
</clipPath>
</defs>
</svg>
